<?xml version="1.0" encoding="utf-8"?>
<!-- Generator: Adobe Illustrator 27.7.0, SVG Export Plug-In . SVG Version: 6.00 Build 0)  -->
<svg version="1.1" id="Capa_1" xmlns="http://www.w3.org/2000/svg" xmlns:xlink="http://www.w3.org/1999/xlink" x="0px" y="0px"
	 viewBox="0 0 670.1 428.5" style="enable-background:new 0 0 670.1 428.5;" xml:space="preserve">
<style type="text/css">
	.st0{fill-rule:evenodd;clip-rule:evenodd;fill:#1D1E1B;}
	.st1{fill-rule:evenodd;clip-rule:evenodd;fill:#FFFFFF;}
	.st2{fill:#E72F39;}
</style>
<g>
	<g>
		<path class="st0" d="M341.4,8.9c49.9,0,94.6,21.9,125.2,56.6l41.1,0.2c0.1,0,0.2,0,0.3,0l55.9,0.4c2.6,0,4.7,2.1,4.7,4.7v76.4
			c4.8,1,8.6,3.4,11.6,7.9c3.4,5.1,3.9,10.4,2.2,16.2c-0.5,1.6-1.1,3.1-2,4.5c0.3,5.3-1.5,10.1-5,13.8c1.1,0.7,2.2,1.4,3.3,2.3
			c2.9,1.5,5.3,3.6,7.1,6.4l0.8,1.2c0.7,1.1,1.3,2.2,1.7,3.3c0.4,0.5,0.7,0.9,1.1,1.4c0.4,0.4,0.7,0.7,1,1.1c2.5,2.8,4.2,6.3,4.7,10
			c0.6,2.1,0.9,4.3,0.7,6.5c0.2,0.9,0.4,1.8,0.4,2.8c0.4,4.5,0.3,9.5-1.2,13.8c-1.6,4.7-2.8,6.1-6.1,9.6c-1.4,1.5-3.1,2.8-4.9,3.8
			c-0.6,1.1-1.1,1.9-2.1,3c-2.2,2.4-5.1,4-8.1,5.1c-1,0.4-2,0.7-3.1,0.9c-0.5,0.4-1,0.8-1.5,1.1l-1.7,1.6c-0.1,0.1-0.1,0.1-0.2,0.2
			c-1.9,1.6-3.9,2.8-6.3,3.5c-1.4,1.1-3,2-4.7,2.6l-0.9,0.3c-0.9,0.3-1.8,0.6-2.8,0.8c-0.4,0.3-0.9,0.7-1.3,1l-1.5,1.5
			c-0.1,0.1-0.1,0.1-0.2,0.2c-3.4,2.9-6,3.5-10.3,4.3c-0.4,0.1-0.8,0.1-1.3,0.2c-2.6,3-6.1,5-10,5.8c-2.5,0.5-4.9,0.4-7.4-0.1
			l-2.3,0.7c-2.1,0.8-3.4,1.2-5.6,1.6l-1.1,0.3c-2.4,1-4.1,1.3-6.8,1.3c-0.4,0-0.8,0-1.2,0.2c-1.4,0.4-2.5,0.9-4,1.2
			c-0.5,0.1-0.8,0.3-1.3,0.4c-1.7,0.7-3.3,1-5.1,1.2c-2.8,0.5-5.3,0.8-8.1,1c-1.1,0.2-2.2,0.4-3.3,0.4c-1.9,0.4-3.8,0.5-5.7,0.4
			c0,0-0.1,0-0.1,0l-5.6-0.4c-1.5,0.2-3,0.3-4.4,0.3c-1.6-0.1-3.1-0.4-4.7-0.8c-30.3,31.4-72.9,51-120.1,51s-85.4-17.6-115.4-46.3
			c-3.1,3.9-7.9,6.5-13.4,6.7c-6.9,0.2-12.3-2.8-16-8.2c-4.9-1.4-8.9-4.8-11.6-9.1c-4.8-2.3-8.3-6.5-9.9-11.5
			c-1.5-1.5-2.7-3.3-3.6-5.2c-0.4-0.8-0.7-1.6-1-2.4c-0.9,0.6-1.9,1.1-2.9,1.6c-1.4,1.7-3.1,3.1-5.1,4.2c-3.4,2.4-7.5,3.4-11.7,3
			c-4.2-0.4-8.1-2-11.1-4.8c-1.3-1.2-2.2-2.4-3-3.7c-0.9-0.4-1.8-0.9-2.6-1.5c-3.7-0.6-7.2-2.3-10-4.8c-3.3,0.1-6.7-0.8-9.6-2.5
			l-0.3-0.1c-1.6-0.4-3.1-1.1-4.5-2c-3.3-0.6-6.4-2.1-8.8-4.4c-3.5-1.2-6.5-3.5-8.6-6.5c-0.3-0.2-0.6-0.3-0.9-0.5
			c-3.6-0.6-6.9-2.3-9.5-4.8c-8.2-2.9-13.5-10.9-12.5-19.8c0.9-8.5,7.5-15.5,16-16.7l5.3-0.8c2.7-0.6,5.7-0.9,8.5-1
			c1.1-0.3,2.3-0.4,3.5-0.5l6.4-0.9c0.9-0.1,1.8-0.2,2.6-0.2c0.7-0.1,1.3-0.2,2-0.2c1.5-0.1,3.4-0.1,4.8-0.4c0.6-0.2,1.3-0.3,2-0.4
			c1.7-1,3.6-1.7,5.6-2.1c1.1-0.5,2.2-0.8,3.3-1.1l-13.6-13.4c-0.9-0.9-1.4-2.1-1.4-3.4V70.9c0-2.6,2.1-4.7,4.7-4.7l59.6-0.4
			c8.5-0.1,16.6,1.1,23.5,5.4l0.9-2.5c0.7-1.9,2.4-3.1,4.4-3.1l8.8,0C246.7,30.9,291.4,8.9,341.4,8.9"/>
		<path class="st1" d="M493.9,198.3c-0.1,0.2-0.2,0.4-0.3,0.5c-0.6,1.5-1.6,2.8-2.9,3.6c-0.7,0.8-1.6,1.4-2.5,1.9
			c-2.1,1.8-4.4,3.7-7,4.7c-0.5,0.4-1,0.8-1.7,1c0,0.1-0.1,0.1-0.1,0.2c1.4,0.5,1.9,0.4,3.4,1.6l0.3,0.2c0.9,0.1,1.8,0.4,2.7,0.8
			c0.3,0.1,1.6,0.1,2.7,0.6l0.4,0.2c1.1,0.1,2.1,0.5,3,1c0.9,0.2,1.7,0.6,2.5,1c0.7,0.2,1.3,0.4,2,0.7c1.4,0.1,2.7,0.5,3.8,1.2
			l1.4,0.3l3.7,1.1c1.1,0.1,2.2,0.4,3.1,0.9c1.6,0,3,0.5,4.3,1.5c1.2,0.1,2.3,0.4,3.4,0.9c2.3,0.8,3.5,1.1,6,2.2
			c1.8,0.8,1.5,0.4,3,0.9l0.6-0.4c0.9-0.8,1.9-1.4,3.1-1.6c0.6-0.6,1.4-1.1,2.3-1.5c0.2-0.2,0.5-0.4,0.8-0.5
			c0.7-0.7,1.4-1.2,2.3-1.6c0.2-0.5,0.5-1,0.9-1.5c-2.9-1.2-5.8-2.2-8.6-3.6c-0.8-0.1-1.5-0.3-2.2-0.6c-2.3-0.8-1.1-0.1-3.3-1.7
			l-1.8-0.9c-0.9-0.2-1.7-0.5-2.5-0.7c-1.2-0.1-2.4-0.6-3.4-1.3c-1.3-0.5-2.3-1.1-3.6-1.7c-0.6-0.3-1.2-0.6-1.7-1
			c-0.8-0.1-1.6-0.4-2.3-0.8c-0.3-0.2-0.6-0.4-0.9-0.5c-1.2-0.1-2.5-0.6-3.5-1.3l-2.6-1.8C497.1,200.7,496,200.8,493.9,198.3
			 M391.9,194.6c-0.1-0.1-0.2-0.2-0.3-0.3l-1.1,0.7c-0.6,0.9-1.4,1.6-2.4,2.1l-0.9,0.9c-2.1,3-2.1,1.9-3,3.1c-0.8,1.4-2,2.5-3.5,3.1
			c-0.3,1-0.8,1.9-1.5,2.6c-0.2,0.7-0.4,1.6-0.5,2.3c0.1,0.8,0.1,1.5,0,2.3c0.1,9.1,5.3,4.6,8.1,5c0.6-0.3,1.3-0.5,2-0.7
			c0.7-0.6,1.6-1,2.6-1.3c0.4-0.1,0.7-0.2,1-0.2c0.4-0.2,0.6-1,3.9-1.9c-1.6-1.7-2.2-4.3-1.8-6.6
			C390.8,203.3,389.6,198.1,391.9,194.6L391.9,194.6z M361.6,105.3V119c2.6,0,9.3,0.5,10.9-1.1c1.9-2,1.9-9.1-0.1-11.2
			C370.8,104.9,364.4,105.3,361.6,105.3L361.6,105.3z M428.5,113.4c0,6.1,1.3,10,7.9,10.4c1.7,0.1,3.9,0.1,5.2-1.3
			c2.3-2.3,2.4-13.4-0.2-16.4c-2.3-2.6-8.8-2.7-11.1-0.3C428.7,107.5,428.5,111.3,428.5,113.4L428.5,113.4z M556.8,157.8l3.7,0.5
			c3.6,0.3,7.3-0.5,9.9,3.3c2.5,3.7,0.8,9.2-3.2,10.9c2.5,3.1,1.9,8-1.9,10.3c-3.2,1.9-4.6,1.3-5.2,1.6c-0.2,0.1-1.7,1.4-3.9,1.7
			c-1.5,0.2-3,0.2-4.5,0.2c-1.4,0.6-2.3,1-3.5,1.2c-0.2,0.1-0.3,0.1-0.5,0.2l1.3,1c1.4,0.2,2.7,0.7,3.7,1.5c0.9,0.2,1.8,0.7,2.6,1.3
			c0.8,0.2,1.5,0.6,2.1,1.1c1.4,0.3,2.6,1.1,3.6,2.2c0.2,0.2,1.2,0.4,2.1,1.1c3.2,2.1,6.5,3.2,9.1,5.9c0.4,0.3,2.3,0.5,3.8,2.9
			l0.8,1.2c0.8,1.3,1,2.9,1.4,3.4c0.8,0.6,1.5,1.4,2,2.3c0.6,0.5,1.1,1,1.6,1.6c1.2,1.3,1.8,3,1.8,4.7c0.6,1.3,0.8,2.8,0.4,4.3
			c-0.1,1.5,0.5,1.7,0.6,3.5c0.2,2.4,0.2,4.3-0.1,6.7c-0.1,0.8-0.3,1.6-0.6,2.3c-0.2,1.3-0.8,2.5-1.8,3.5c-2,2.1-3.4,4-6.6,4.1
			c-0.1,0.2-0.3,0.4-0.5,0.5c-0.3,2.6-2,4.8-4.5,5.8c-3.3,1.2-3.3,0.7-3.9,0.8c-0.6,0.4-1.3,0.6-2,0.8c-0.8,1.1-1.8,2-3,2.5
			c-0.4,0.6-0.8,1.1-1.4,1.6c-2.4,2-3,1.9-6,2.5c-0.6,0.1-1.1,0.1-1.7,0.1c-1.2,0.5-2.5,0.6-3.7,0.4l-1.3,0.6
			c-0.6,2.6-2.7,4.8-5.6,5.4c-2.9,0.6-5.9-1.1-6.6-0.9c-0.9,0.6-2,1-3.2,1.1c-1.9,0.4-4,1.7-6.5,2c-1.7,0.3-2,0.4-3.5,1.1
			c-2.2,0.9-3.1,0.3-5.6,0.8c-0.5,0.2-1,0.3-1.6,0.4c-0.8,0.5-1.8,0.8-2.8,0.9l-2.8,0.6c-1.3,0.8-2.9,1.3-4.5,1.3
			c-0.9,0.3-1.7,0.4-2.7,0.4h-0.1c-0.9,0.3-1.7,0.4-2.7,0.4c-0.7,0.2-1.3,0.2-2.1,0.2c-1.6-0.1-1.9,0.5-3.9,0.4
			c-0.8,0-1.9,0.6-4.5,0.5c-2.3-0.1-4.7-0.3-7-0.6c-0.7,0.1-1.9,0.6-4,0.5c-1.2-0.1-2.4-0.4-3.4-0.9c-1.2-0.2-2.3-0.6-3.2-1.4
			c-0.5-0.2-1.5,0.5-3.2,0.5h-6.4c-0.8,0.2-1.6,0.3-2.5,0.3c-3-0.1-5.9-2.2-7.1-4.9c-1.9-4.3,0.5-8.7,4.6-9.9
			c0.3-1.8,1.1-2.9,2.3-4.2c1.3-1.4,1.2-0.6,1.7-1.7c1.3-3.2,3.8-4,6.8-4.8l2-0.7c-1.6-0.7-1.4-1-2.5-1.3c-1.9-0.5-1.8-0.7-2.5-1
			l-5.2-1.9c-3.2-0.7-2.6-1.3-4.2-1.8l-3.4-1.1c-0.3,0-0.6,0-0.9,0c-0.3,0.8-0.7,1.5-1.3,2.2c-0.2,0.4-0.4,0.8-0.7,1.1
			c-1.2,1.7-1.7,1.3-2,2.3c-0.1,0.6-0.3,1.3-0.6,1.9c0,1.8-0.5,3.4-1.7,4.7c-0.1,0.1-0.1,0.2-0.2,0.2c0.2,1.9-0.2,3.6-1.3,5
			c-0.1,0.3-0.3,0.6-0.4,0.8c-1.3,2.3-2.6,2.4-2.7,3c-0.3,3.3-2.2,4.7-4.7,6.1c-0.5,0.3-1,0.5-1.5,0.6c-0.4,0.2-2.3,3.3-6.1,3.4
			c-0.4,0.7-0.9,1.4-1.5,2c-1.8,2.7-5.1,3.8-8.1,2.7l-0.2-0.1c-3.5,9.9-15.8,5.6-14.6-2.5l0.7-4.3c0.1-2,0.7-4.2,1.5-6
			c0-0.9,0.2-1.8,0.5-2.6c0.8-2.4,0.5-1.9,0.9-4.8c0.1-0.7,0.3-1.3,0.5-1.9c0.1-1.1,0.4-2.1,0.9-3c1.4-3.3,0-2.1,1.3-5.5l0.6-1.8
			c-0.3,0.1-0.5,0.3-0.8,0.4c-0.8,0.6-1.6,1-2.5,1.2c-3.2,1.1-1.9,0.1-4.3,0.9c-1.5,0.5-2.9,0.4-3,0.4c-0.6,0.4-1.3,0.7-2,0.9
			c-0.9,0.7-2,1.3-3.2,1.5c-1.3,0.2-2.1,0.2-2.8,0.4c-0.8,0.4-1.5,0.6-2.4,0.6c-0.7,0.2-1.5,0.4-2.3,0.4c-1.6,0.1-3.3-0.2-4.7-0.8
			c-1.2,0.3-2.3,0.3-3.5,0c0,0,0,0-0.1,0c-2.5,0.1-4.4-0.3-5.1-0.3c-1.3,0.2-2.7,0.1-4.2-0.3c-1,0-2-0.2-2.8-0.6
			c-1.2-0.4-2.4-0.8-3.5-1.5c-1.4-0.2-2.7-0.7-3.7-1.6c-0.4-0.2-0.7-0.4-1-0.7c-1.9-0.9-3.7-2.2-5.1-3.8c-0.7-0.5-1.3-1-1.8-1.7
			c-0.1,0.1-0.2,0.1-0.3,0.2c0.2,2.3-0.7,3.7-0.7,4.3c0.3,2.2-0.2,4.2-1.4,5.7c1.5,4.2,0.5,2.6,1.1,5.2c0.5,2.6-0.5,3.7-0.3,4.5
			c0.5,2.7-0.5,3.6-0.7,5.8c-0.1,0.8,0.7,3.7,0.6,5.7c-0.1,4.4-0.9-0.1,0.2,6.2c0.3,1.7-0.2,1.9,0.4,4.7c0.6,2.4,1.2,4.3-0.7,7
			c-1.6,2.3-4.1,3.2-6.7,3.1c-4.3-0.2-6.2-3.5-7.6-6.8c-3.5,0.2-6.6-2.2-7.3-5.6c-0.1-0.4-0.3-1.5-0.6-1.8c-1.4-0.6-2.6-1.6-3.4-3
			c-0.7-1.3-1.3-2.5-1.8-3.8c-0.5-0.5-0.9-1-1.3-1.6c-0.4-0.5-0.8-1.1-1.1-1.8c-0.4-0.8-0.6-1.7-0.6-2.5c-0.9-1.9-1.5-4.2-1.9-6.1
			c-0.7-3.4-0.2-10.2-0.5-14.4c-0.1,0-0.1,0-0.2,0c-1.1,0.5-2.4,0.6-3.7,0.6c-1,0.2-0.5,0.7-3.9,0.8c-2.3,0.1-1.1,0.3-3,0.5
			c-0.5,0.9-1.2,1.8-2.1,2.4c-0.5,1.6-1.5,2.9-2.8,3.9c-0.6,0.8-1.5,1.4-2.4,1.8c-0.4,0.5-0.8,1-1.3,1.5c-0.4,1.1-1,2-1.8,2.8
			c-2.5,2.7-4.7,2.9-4.8,3c-0.2,0.3-0.5,0.7-0.7,1c-0.6,1.4-1.7,2.6-3,3.3c-1.4,1.3-3.1,1.9-5,1.8c-3.8-0.1-6.9-2.4-7.6-6.2
			c-3.9-0.2-7.4-2.4-8.1-6.3c-0.7-3.5,0.7-4.4,1.3-6.7c-4.6,0.7-9.1-3-8.4-8l2.5-19.1c-0.2,0-0.3,0-0.4-0.1c-0.6,2.8-1.1,4.7-2,6.4
			l-1,2.2c-0.5,2.7-1.3,4.5-1.5,5.4c-0.4,4.4-2.3,4.2-2.7,5.9l-0.5,1.8c0.1,3.3-1.3,4.1-1.5,4.9c-0.6,2.7-1.2,2.6-1.7,3.9l-1.3,2.9
			c-0.1,0.8-0.4,1.7-0.9,2.5l-0.7,2.2c-0.8,2.2-0.1,1-1.6,3.3c-1.4,2.4-3,6.8-4.8,8.4c-2.8,2.6-7.5,2.8-10.4,0.1
			c-1.5-1.4-4.2-2.4-4.8-6.2c-5.3,0.2-9.9-5.6-7.5-10.8c-0.4-0.6-0.7-1.2-0.9-1.9c-1.3-1.5-1.7-3.3-1.5-5.1
			c-1.9-2.3-1.7-4.3-1.2-6.8c0.5-2.7,2.3-3.5,2.7-6c0.2-1.2-0.5-2-0.1-4.1c-1.1,0.6-2.2,0.8-3.3,0.9c0,2.4-1.1,3.7-1.2,4.3
			c0.2,2.3-0.6,4.5-2.1,5.9c0.1,0.9,0.3,1.2,0.5,2.2c0.4,1.9-0.1,1.9,0.1,3.9c0.3,2.9-0.9,3.6-0.8,4.9c0.2,1.7-0.2,3.2-1,4.5
			c-0.1,0.6-0.2,1.1-0.4,1.6c-0.1,0.9,0.3,4.1,0.1,6.3c0,1-0.3,1.9-0.7,2.8l0.3,4c0.1,0.8,0,1.6-0.2,2.4l0.4,3.9
			c0.8,4.8-2.9,8.8-8.3,8.3c-4.5-0.4-6.2-4.2-7.4-7.9c-3.7,0.1-6.9-2.6-7.2-6.3c0-0.5-0.2-1.8-0.6-2.2c-1.5-0.7-2.7-1.8-3.4-3.4
			c-0.7-1.4-1.2-2.8-1.6-4.3c-0.5-0.5-0.9-1.1-1.2-1.8c-0.4-0.6-0.7-1.2-1-2c-0.3-0.9-0.4-1.8-0.4-2.7c-0.8-2.2-1.2-4.6-1.4-6.7
			c-0.3-3.1,0.5-9.4,0.8-12.7l-1.2-0.1l-4.7,0.4c-1.5,0.4-7.5,0.7-9.6,0.8c-0.6,1.7-1.8,3.1-3.3,4c-0.7,0.7-1.6,1.3-2.7,1.7
			c-0.5,0.7-1.1,1.2-1.8,1.7c-0.5,1.1-1.2,2.1-2.2,2.8c-1.5,1.3-3.3,2.5-5.4,2.7c-0.3,0.5-0.7,0.9-1.1,1.3c-0.7,1.4-1.9,2.5-3.4,3.2
			c-1.5,1.2-3.2,1.7-5.1,1.5c-4-0.4-7.1-3.1-7.4-7.1c-5.5-0.5-9.1-4.6-8.1-9.5l-2.4,0.2c-0.3,0.1-0.7,0.3-1,0.4
			c-1.1,0.3-2.1,0.4-3.1,0.2c-0.4,0-0.7,0-1.1,0c-1,0-1.9-0.2-2.8-0.6l-2.4-0.1c-2.8,0.7-4,0.5-6.6-1.1c-1.2-0.8,0-0.2-1.5-0.6
			c-1.7-0.5-2.9-0.9-4.1-2.3c-0.6,0-1.1-0.1-1.7-0.3c-2.6-0.1-4.8-1.5-6-3.9c-6.1,0.1-9.5-6.2-6.1-11.3c2.3-3.4,5.2-2.9,7.8-3.4
			c0.8-0.2,1.6-0.4,2.4-0.4c2.4-0.5,5.5-0.9,7.9-0.8c0.5,0,1-0.3,2.9-0.5l2.8-0.2l4.6-0.8l2.1-0.1c2.5-0.4,2.9-0.5,5.5-0.4
			c1.4-0.1,3-0.7,5-0.8c0.4,0,1.2,0,1.5-0.3c2.6-2.3,3.4-1.5,4.9-2.2c1.6-0.9,3.5-1.3,5.4-1.2c0.3-0.1,2.3-1.2,4.7-1
			c4.7,0.4,2.9,0,5.2-1.8l0.2-0.2c0.6-0.9,1.3-1.7,2.2-2.2l1.9-1.9c0.4-0.8,0.9-1.6,1.6-2.2c0.3-0.5,0.7-0.9,1.1-1.3
			c0.4-0.9,1-1.8,1.7-2.4c0.7-0.9,0.1-0.6,1.8-2.2c0.5-0.5,1-0.9,1.5-1.3c0.3-0.4,0.6-0.9,1-1.2c0.7-0.8,1.5-1.6,2.3-2.2
			c0.2-0.3,0.5-0.6,0.7-0.9l2-2c1.5-2,0.6-1.1,2.5-2.5c0.4-0.4,0.8-0.7,1.3-1.1c0.5-0.9,1.3-1.7,2.2-2.3c0.4-0.3,0.4-0.9,1.1-2
			c1-1.6,2.6-2.6,4.3-3c0.4-0.3,0.9-0.6,1.4-0.9c1.2-1.2,2.5-2.2,4-2.8c1.6-1,1.2-1.4,2.5-2.7c1-1,2.2-1.7,3.6-2
			c1-0.7,2.2-1,3.4-1.2l0.1,0c1.3-0.9,2.4-1,3.2-1.5c1.6-1.3,3.7-2,6-1.8l1.3-0.7c1.3-0.6,2.7-1,4.1-0.9c0.6-0.5,1.3-0.9,2.1-1.1
			c0.3-0.2,0.2-0.9,0.5-2c-11.5,1.5-22.7,3.3-34.1,5.2c-3.5-8.6-3.1-7.1-3.6-16.7l-0.2-4.1c-2.3,0.3-4.6,0.6-6.9,0.9v21.8L126,170
			V77.8l52.6-0.4c10.8-0.1,19.4,1.8,24.7,12.4c1,1.9,1.7,3.9,2.1,5.9l6.9-18.5l76.1-0.2l11.5,16.5V77l75.3,0
			c9.3,0,19.2,1.9,26.2,8.5c5.4-5.3,13.5-8.7,21-9.6c8.5-1.1,18.8-1.1,27.3,0c4.9,0.7,9.6,2.4,13.9,4.8v-3.5l43.2,0.2l3.5,15.3
			l3.4-15.3l43.2,0.3L556.8,157.8L556.8,157.8z M466,153.9c0.6,1.8,0.6,3.8-0.3,5.5c0.8,1.1,0.8,1.7,1,2.1c1.3,1.6,1.7,3.4,1.5,5.2
			c1.1,1.3,1.7,3,1.6,4.8c0.2,0,0.3-0.1,0.5-0.1c0.9-0.4,1.9-0.7,2.9-0.7c0.4-0.2,0.9-0.4,1.3-0.6c3.3-1.3,4.1-1.2,7.6-0.8
			c3.4,0.4,6,3.1,6.2,6.5l0.1,1c0.1-0.3,0.3-0.6,0.5-0.8c0.4-1.8,1.5-3.4,3.2-4.4c0.7-1.2,1.7-2.2,2.9-2.8c0.7-0.6,1.5-1.2,2.4-1.7
			l4.9-3.2c1.4-0.8,2.1-0.6,3.1-1.1c2.9-1.8,3.4-0.7,6.6-2.1l-15.8-2.7v0L466,153.9L466,153.9z M378.2,160l0.6-0.2
			c1-0.8,2.3-1.3,3.7-1.4c2-1,4.4-1.4,6.7-1.5c0.5,0,1,0,1.4,0.1c0.9-0.7,2-1.1,3.1-1.3c0.7-0.3,1.5-0.4,2.4-0.5l0.4-0.2
			c2-1.1,4.4-1.2,6.4-0.2c0.5,0.1,1.1,0.1,1.8,0.1l6-7.9c-3.8-1.9-6.7-3.9-9.6-7.1c-5.7,5.1-13.1,7.1-20.5,7.5
			c0.2,0.4,0.4,0.8,0.5,1.2c0.6,1.8,0.5,3.5-0.3,5.2c-0.1,0.4-0.2,0.8-0.3,1.2c-0.5,1.5-1.3,2.8-2.3,3.6
			C378.2,159.1,378.2,159.5,378.2,160L378.2,160z"/>
		<path class="st2" d="M212.3,192.4c0.3,0,0.7,0.1,1,0.1c-0.8,0.6-1.3,0.5-1.9,0.8l0.4,0.5l1,0.5c0-0.1,0-0.4,0-0.4
			c0.1-0.1,0.3,0.1,0.4,0.2l1.7-0.2c0.6,0.1,1.1,0.2,1.7,0.4c0.6-0.1,1.2-0.1,1.7-0.3c0.6-0.1,1.8-0.2,2.5,0.1l1.6-0.6l0.6,0.2
			l-0.1,0.5l-0.2,0.2l-1.5,0.2c-0.1-0.1-0.3-0.4-0.5-0.3c-0.1,0,0,0.2,0,0.3l-0.8,0.1l-0.2,0.6c0.6,0.1,1.2-0.2,1.6-0.4l0.3,0.6
			c0.3-0.2,0.4-0.5,0.7-0.7c0.7,0.1,1.6,0.1,2.2-0.2c0.3-0.2-0.2-0.8-0.4-1.1l-0.3-0.3c-0.9,0.4-2.2,0-3.3,0.1c0,0-0.2,0.1-0.3,0
			c0,0,0.3-0.5,0.4-0.5c0.3,0.3,1.2,0.1,1.6,0c0.8,0.1,1.7,0.1,2.6,0.2c0.5-0.3,1.2,0,1.7-0.2l0.2,0.6l-0.7,0l-0.4,0.6
			c-0.2-0.1-0.8-0.2-0.5,0.3c0,0-0.1,0.1-0.1,0.1c0.1,0.1,1-0.1,1.2-0.1l0.2,0.2l-0.3,0.2c0.6,0.7,0.8,0.1,1.2,0.5l0.6-0.2l0.3-0.5
			h0.4l0.4,0.2l0-0.2l1.3-0.1l0.1,0.4l0.7-0.4c0.3,0.4,0.4,0.4,0.8,0.2c0.2,0.3,0.4,0.2,0.6,0.1c0.3-0.1,0.6,0.1,0.9-0.1l-0.1-0.1
			l0.7-0.1c0.3-0.1,0.6,0.1,0.9-0.1c0.6-0.1,1.9-0.2,2.6,0.1l0.4-0.2c0,0.2-0.1,0.4-0.1,0.6c-0.1-0.1-0.3-0.2-0.4-0.2
			c-0.1,0,0,0.2,0,0.3l-0.8,0.2l0,0.1l0-0.1l-0.7-0.6c-0.3,0.4-0.3,1.2-0.2,1.7c-0.2-0.2-0.5-0.3-0.8-0.3s0.6,1.1,0.6,1.3
			c-0.4,0.6-0.8,1.2-0.6,2.1l0.8,0.6l-0.2,0.3l-0.4-0.1c0,0-0.1-0.2-0.2-0.2c-0.3,0-0.5,0.9-0.4,1.2c-1,0-1.2,2.7-1.3,3.1l0.8,0.8
			c-0.1,0.2,0,0.3,0,0.5c-0.4-0.4-1-0.7-1.5-1l0.2,0.9c-0.7,0-0.7,0.1-0.5,0.6c-0.2,0-0.5,1.1-0.5,1.3c0.2,0.2,0.6,0.4,0.6,0.6
			c0,0.2-0.2,0.2-0.3,0.1c-0.3,0.1,0.2,0.6,0.4,0.3c0,0.1,0.2,0.5,0.2,0.7l-1.2,0c-0.6,0-1.2-0.1-1.9-0.1c-0.4,0-0.7,0.1-1,0.2
			c-0.1,0-0.3,0-0.4,0c-3-0.4-6-0.4-9-0.4c0.1,0.5-3.9-0.1-4.6-0.2c-1.1-0.1-0.7,0.9-1.8,0.8l-3.4-0.4l-0.2-2.4
			c1.3,0.1,0.7-2.6,0.6-3.2l-0.3,0c-0.2,0.3-0.4,0.7-0.4,1l0-0.3l-0.1,0.3h0.1c-0.1,0.2-0.1,0.3-0.1,0.4l0-0.4l-0.4,0.6l-0.1,0.4
			c-0.1,0-0.4-0.7-0.4-0.8c0-0.5,0.5-0.8,0.4-1.2c-0.1-0.4-0.6-0.5-0.9-0.5l0.4-0.3l0.2,0.1c0.4,0.5,0.8,1,0.8,1.5l0.2-2.1l-0.9,0.3
			v-0.1l0.4-0.6c0.2,0.1,0.5,0,0.7-0.1l0.3-0.6l-0.5-0.6c0.3-0.1,0.5-1.6,0.5-2c-0.4,0.5-1.1,1-1.7,1.3l0.4-0.8
			c0-0.5,0.5-0.3,0.5-0.8l0.4-0.7c0.1-0.1,0.2-0.9,0.3-0.9l0,0.2l0.5,0.6l0,0.7l0.5,0.7c-0.1-0.5-0.5-2.3,0.2-2.5c0-0.2,0-0.6,0-1
			c0.1,0,0.2,0,0.3,0.2l0.6-0.2l0.2-0.5c-0.3,0.2-0.7,0.2-1.1,0.2c0.1-0.6,0.3-1.2,0.8-1.1l0.6-0.4
			C212.3,192.6,212.3,192.5,212.3,192.4 M258.5,176.5c-0.5,0-1,0-1.4,0c0-0.5-0.1-1.1-0.5-1.1l0.1-0.6c0.3-0.1,0.4-0.4,0.5-0.6
			l-0.2-0.7l0.6-0.4l-0.2-0.8l0.3-0.4l-0.4,0l0.2-0.8c-1-0.4,0.3-0.3,0.6-0.3c0.3,0,0.4-0.1,0.3-0.4c0.1-0.1,0.2-0.4,0.2-0.6
			c0.2-0.1,0.3-0.3,0.5-0.4c1,0.1,2.2,0.1,3.1-0.2c0.5-0.2-0.2-0.8-0.5-1.1l-0.4-0.3c-1.3,0.4-3,0-4.5,0.1c0,0-0.3,0.1-0.4,0
			c0,0,0.4-0.5,0.5-0.5c0.4,0.3,1.7,0.1,2.1,0c1.1,0.1,2.3,0.1,3.5,0.2c0.7-0.3,1.6,0,2.3-0.2l0.2,0.6l-0.9,0l-0.5,0.6
			c-0.3-0.1-1.1-0.2-0.6,0.3c0,0-0.2,0.1-0.1,0.1c0.1,0.1,1.4-0.1,1.6-0.1l0.1,0c0,0.1,0,0.2,0,0.2l-0.2,0.1c0,0,0.1,0.1,0.1,0.1
			l-0.2,0.2l0.2,0.6c-0.3,0.1-0.3,0.5-0.2,0.8l-0.6,0.3c0.1,0.3,0.1,0.7-0.2,0.9c0.1,0.4-0.7,0.9-1,1.1l0.1,0.2
			c-0.1,0-0.4-0.5-0.4-0.6l0.1-0.6c-0.1-0.3-0.1-0.5-0.5-0.5h-0.3l0.2,0.9c-0.7,0-1,0.5-1.7,0.5c-0.4,1.6,0.2,2.2-1.6,2.8
			L258.5,176.5L258.5,176.5z M248,176.8C248,176.8,247.9,176.8,248,176.8l-0.7,0.2c-0.1-0.6,0-0.9-0.1-1.4l-0.7,0l-1,0.4
			c0.1,0.1,0.5,0.2,0.5,0.3c0,0.2-0.3,0.1-0.4,0.1l-0.1,0.5c-0.1,0-0.2-0.1-0.3-0.1l-0.8,0.1c0.1,0.1,0.2,0.2,0,0.3
			c-0.1,0-0.4-0.1-0.5-0.1c-1.1,0.6-3.2,0.1-4.4,0.3c-0.3-0.4-0.6-0.1-0.9,0.1c0,0-2.4,0.2-2.5,0.3l-1.4,0c-0.5,0.3-0.9-0.2-1.3,0
			c-0.2,0.1-1.7,0.4-1.9,0.4l-0.6,0c-0.3-0.3-0.6-0.3-0.8-0.1c-0.5,0.1-1.5,0.3-2,0.2l-0.4-0.2l-0.8,0.1c0,0,0.2,0.2,0.1,0.2
			c-0.1,0.1-0.4-0.1-0.5-0.1c-1,0.5-2.8,0.1-4,0.3c-0.3-0.3-0.7-0.1-0.8,0c-0.1,0-3.8,0.5-4,0.6c-0.6-0.4-1,0.5-1.6,0.1
			c0-0.1,0.1-0.2,0.2-0.2l-0.1-1.1l0.6-1c-0.1-0.1-0.2-0.3-0.3-0.5c-0.4-4.2,4.2-7.9,3.7-11.9l-0.6-0.8c-0.2,0.3-0.4,0.7-0.1,1
			c-0.2,0.4-0.8,1.5-0.7,2l-1.1,2.1c0.1,0.1,0.4,0.3,0.4,0.4c0,0.1-0.1,0-0.2-0.1h-0.1c-0.5-0.1-0.5,0.5-0.4,0.8l-0.4,1l-0.1-0.6
			c-0.2-2.1,0.3-3,1.3-4.8c-0.1-0.2-0.4-0.3-0.4-0.5c0-0.3,0.2-0.5,0.2-0.7c0.7-1.3,0.8-2.6,1.5-3.7c0.1-0.2,1-1.2,0.4-1.3
			c0.2-0.3,0.4-0.8,0.3-1.2c0.2,0,0.5,0.1,0.7,0.1l-0.1,0.1c0,0.3,0.4,0.4,0.6,0.5c0.2-0.1,1.2-0.3,1-0.6l0.7-0.3
			c0.4,0.1,0.9,0,1.2-0.1l0.9,0.3c0.4-0.1,0.9-0.3,1.3-0.1c0.5-0.2,1.8,0.2,2.4,0.4l0.3-0.1c0.1,0.1-0.3,0.4-0.4,0.5l-1,0.1
			c-0.4,0.1-0.6,0.2-0.3,0.5l0.2,0.2l1-0.4c0.5,0.5,1.5,0.5,2,1c2.4-0.2,2.9-0.7,5.1,0.2l1.2-0.5c0.6,0.2,1.6,0.4,2.1,0.1
			c0.6,0.5,1.7-0.6,2.4,0c-0.4,0.1-0.2,0.5-0.5,0.6c-0.3,0.1-0.7,0.2-1,0c-0.2,0.1-1.2,0.6-1.5,0.3c-0.3,0-2.5,0.3-2,0.8l-1,0.1
			c-0.4-0.1-0.8-0.2-1.3-0.2l-0.8,0.3l-1-0.3l-0.9,0.4l-0.8-0.1l0.3,0.3l-1.2,0.1c0.2,0.8-0.7-0.1-0.9-0.3c-0.2-0.2-0.5-0.2-0.8-0.1
			c-0.7-0.1-1.6,0.3-2.4,0.3l0.3,0.7l1.3,0.1c0.4-0.1,0.8,0.1,1,0.3c0.4-0.1,0.8-0.2,1.3-0.1l0.7-0.3c0.7,0.1,1.2,0.1,1.7-0.1l1,0.1
			l1.3-0.3c0.2,0,0.5,0.1,0.6,0.2c0.4,0.3-1.3,0.3-1.5,0.4l0.7,0.6l0.3-0.2c0.3-0.1,0.6,0.1,0.7,0.2c0.3,0.1,0.8,0.2,1.2,0.3l1-0.1
			l0.8,0.6l0.5,0.2c0.3,0.3,0.5,0.1,0.8,0c0.1,0,0.3,0,0.4,0c0.2,0,0.9,0,0.9,0c0.1,0.1-0.1,0.1-0.1,0.1c-0.8,0.3-2,0.1-2.7,0.4
			c-0.2,0.1-0.2,0.2,0,0.3l-0.4,0.6l1.1,0.3c0.5-0.2,0.8,0.1,1.4-0.2l0.3,0.3c0.6,0.5,0.8-0.7,1.8,0.2c0.8,0.1,1.4,0.2,2.2,0.4
			c0.7-0.3,1.6-0.1,2.4-0.1c-1.1,0.6-1.8,0.5-2.5,0.8l0.5,0.5l1.4,0.5c0-0.1,0-0.4,0.1-0.4c0.2-0.1,0.4,0.1,0.5,0.2l2.4-0.2
			c0.8,0.1,1.5,0.2,2.3,0.4c0.8-0.1,1.6-0.1,2.3-0.3c0.8-0.1,2.4-0.2,3.3,0.1l0.6-0.2l-0.3,0.5c-0.1-0.1-0.3-0.2-0.5-0.2
			c-0.1,0,0,0.2,0,0.3l-1,0.1l-0.3,0.6c0.4,0,0.8,0,1.2-0.1c0,0.2,0,0.5-0.2,0.6l0.2,0.6c-0.3,0.3-0.4,0.6-0.3,1.1l-0.4,0.5l0,0.9
			c-0.1,0.1-0.2,0.2-0.4,0.2c-0.5,0,0-0.9-0.1-1.2l-0.9,0l0.2,0.3c0.1,0.2-0.2,0.3-0.4,0.3c-0.2,0.2-0.4,0.4-0.7,0.4l-0.1,0.6l-1,0
			l-0.4,0.1c-0.4,0-0.2,0.2-0.2,0.5c0,0.1-0.1,0.2-0.1,0.2c-0.1,0.1-0.2,0.5-0.3,0.5c-0.1,0-0.1-0.2-0.1-0.2
			c-0.2-0.7,0.4-1.2,0.2-1.9c0-0.2-0.2-0.2-0.4-0.2l-0.6-0.6l-0.6,0.4c0.1,0.4-0.3,0.5-0.2,0.9l-0.4,0c-0.8,0,0.6,1-0.7,0.9
			c-0.3,0.4-0.6,0.7-1,1C248,176.4,248,176.6,248,176.8L248,176.8z M265.2,176l0.2-0.6c-0.1-0.5,0.3-0.2,0.2-0.9
			c-0.1-0.2,0-0.5,0.3-0.5c-0.1-0.6,0.1-0.9-0.1-1.5c0.6-0.7,1.1-2,1.3-3.2l0.2-0.2h0.5l0.6,0.2l0-0.2l1.7-0.1l0.2,0.4l1-0.4
			c0.4,0.4,0.5,0.4,1.1,0.2c0.3,0.3,0.6,0.2,0.8,0.1c0.4-0.1,0.8,0.1,1.2-0.1l-0.1-0.1l1-0.1c0.4-0.1,0.8,0.1,1.2-0.1
			c0.8-0.1,2.6-0.2,3.6,0.1l1.3-0.5l0.5,0.3l1.4,0.2c0,0.1-0.2,0.3-0.3,0.3c-0.8,0-1.6,0.1-2.2,0.3c-0.1-0.1-0.5-0.5-0.7-0.4
			c-0.1,0,0,0.2,0,0.3l-1.1,0.2l-0.4,0.6c0.8,0.1,1.8-0.1,2.5-0.4c0,0.2-0.1,0.4,0.2,0.6s1.1-0.7,1.2-0.8c0.9,0.1,1.8,0.2,2.7,0
			l-0.2,0.4c-0.4,0-0.4,0.1-0.3,0.3c0.1,0.2-0.2,0.2-0.4,0.2c0,0.2,0.1,0.6,0.1,0.9l-0.1,0.7c-0.1,0.1-0.2,0.2-0.1,0.2h-0.1
			c0,0.1,0,0.2,0,0.3c0,0.1-0.1,0.2-0.2,0.2c0.1,0.2,0.1,0.4,0.1,0.6c0,0.1-0.1,0.2,0,0.2l-0.3,0.2c-0.2,0.5-0.5,0.8-0.3,1.4
			c0,0,0,0-0.1,0.1h0c-0.1,0.1-0.2,0.3-0.5,0.1c-0.4-0.1-0.9-0.4-1.4-0.2c-0.1,0.2-0.4,0.2-0.7,0.1c-0.5,0.3-1.9,0.2-2.6,0.1
			c0,0.2-0.1,0.2-0.2,0.2l-0.4-0.2c-0.1-0.1-0.1-0.1-0.1-0.2c-0.5,0.2-1.6,0.4-2.7,0.6c-0.6-0.1-1.1,0-1.7,0.2h-0.6l-0.8,0
			c-0.3,0.1-0.6-0.1-0.9,0.1h-1.3l-0.4-0.2l-0.8,0c-0.2-0.3-0.3-0.2-0.5-0.1c-0.2,0.1-0.4-0.1-0.5-0.2c-0.1,0.1-0.5,0.3-0.8,0.3
			l-0.8,0.1C265.4,176,265.3,176,265.2,176L265.2,176z M315.8,217.6c-0.2-0.2-0.4-0.3-0.4-0.6c0-0.1,0.1-0.1,0.2-0.1
			c0.9,0,0.1-0.7,0.9-0.6c-0.2-0.8,0.9-1,0.8-1.5l1.1-1.3c0.6,0-0.1-0.7,0.8-0.6l0.4,1c-0.1,0-0.4,0-0.4,0.2c0,0.2,0.4,0.3,0.6,0.3
			c0.8,0-0.6-0.8,1.5-0.7c1,0,0.1-1.3,0.8-1.3l1.5-0.8c0-0.1-0.1-0.4,0.1-0.4c0.1,0,0.3,0.6,0.3,0.7c0.1,0.5,0.6,0.8,0.7,1.3
			c-1,0,0.5,1.7-0.5,1.6c-0.6,0.3-1.1,0.5-1,1.2c0.8,0,0.9,0,1,0.7c-0.9,0-0.8,0.7-0.6,1.3c0.2,0,0.4,0.1,0.5,0.3
			c0.1,0.4-0.5,0.7-0.7,1l-0.4,1.6c-0.5,0-8.2,0.6-8.2,1l-1.1-0.4c0.4,0,0.6-0.3,0.7-0.6l0.5-0.1c0.2-0.4,0.4-1.1,0.8-1.4l-0.1-0.4
			l1.5-0.6c-0.2-0.3-0.4-0.6-0.5-0.9c-0.6,0.4-1.1,0.9-1.7,1.3c0.1,0.5-0.7,0.8-1.1,0.9c0-0.2-0.3-0.6-0.6-0.7h0.2
			c0.4,0,0.7-0.1,0.6-0.5C314.9,218.5,315.1,217.6,315.8,217.6L315.8,217.6z M178.5,205.1c-0.2-0.2-0.4-0.4-0.4-0.7
			c0-0.1,0.1-0.1,0.2-0.1c1,0.1,0.1-0.7,1-0.6c-0.1-0.9,1.1-1,1-1.6l1.4-1.3c0.7,0.1-0.1-0.7,0.9-0.6l0.3,1.1c-0.1,0-0.4,0-0.4,0.1
			c0,0.2,0.5,0.3,0.6,0.3c0.9,0.1-0.6-0.9,1.7-0.7c1.1,0.1,0.3-1.4,1-1.3l1.8-0.8c0-0.1,0-0.5,0.2-0.4c0.1,0,0.3,0.7,0.3,0.7
			c0.1,0.5,0.5,0.9,0.6,1.5c-1.1-0.1,0.4,1.8-0.7,1.7c-0.7,0.3-1.3,0.4-1.2,1.2c0.9,0.1,1,0.1,1.1,0.8c-1-0.1-0.9,0.7-0.8,1.4
			c0.2,0,0.4,0.1,0.5,0.4c0,0.5-0.6,0.8-0.9,1l-0.6,1.7c-0.5,0-9,0.2-9,0.6l-1.1-0.5c0.4,0,0.7-0.3,0.8-0.6l0.5-0.1
			c0.3-0.4,0.5-1.2,1-1.4l0-0.5l1.7-0.6c-0.2-0.3-0.4-0.7-0.4-1c-0.7,0.4-1.3,0.9-2,1.3c0.1,0.5-0.9,0.8-1.3,1
			c0-0.3-0.3-0.7-0.6-0.8l0.2,0c0.4,0,0.7-0.1,0.7-0.5C177.4,206,177.7,205,178.5,205.1L178.5,205.1z M154.3,102.9
			c5-0.3,10-0.5,15-0.8c2-0.1,3.6,0.3,4.7,1.2c1.1,0.9,1.7,2.5,1.7,4.9c0,4.3-2,6.5-6,6.9c-5.1,0.4-10.3,0.9-15.4,1.3V102.9
			L154.3,102.9z M259.6,142.8c6.9-0.5,13.8-0.9,20.8-1.3v-32.2h0.2c3.8,5.3,7.7,10.5,11.5,15.7c3.8,5.2,7.7,10.4,11.5,15.5
			c7.9-0.2,15.8-0.4,23.8-0.5v-56c-6.9,0-13.8,0-20.8,0v31.3h-0.2c-3.7-5.2-7.3-10.3-11-15.5c-3.7-5.2-7.3-10.5-11-15.7
			c-8.3,0-16.5,0-24.8,0.1v40.6c-2.7-6.7-5.5-13.3-8.1-20.1c-2.7-6.8-5.4-13.6-8.1-20.5c-8.9,0-17.8,0.1-26.6,0.1
			c-3.3,8.8-6.6,17.7-9.8,26.7c-3.3,9.1-6.5,18.4-9.8,27.7c-0.2-3.7-0.5-7.4-0.7-11.1c-0.2-2.7-0.9-4.9-2-6.5
			c-1.1-1.6-2.5-2.6-4.3-3.1v-0.2c2.9-1.3,5.1-3.3,6.4-6.2c1.4-2.8,2-5.9,2-9.3s-0.7-6.6-2.1-9.5c-1.5-2.9-3.2-4.9-5.3-6.1
			c-1.5-0.8-3.3-1.5-5.3-1.8c-2-0.4-4.6-0.5-7.8-0.5c-15.2,0.1-30.4,0.2-45.6,0.3v76.4c7.2-1.6,14.4-3.1,21.7-4.6v-22.2
			c5.1-0.7,10.3-1.4,15.4-2c1.9-0.2,3.3,0.3,4.1,1.6c0.9,1.3,1.3,3.2,1.5,5.9c0.1,1.3,0.1,2.5,0.2,3.5c0.2,2.9,0.3,5,0.4,6.2
			c0.1,1.3,0.3,2.2,0.6,2.9c7.9-1.3,15.8-2.5,23.7-3.6c5.5-0.7,10.9-1.4,16.4-2.1c0.8-2.5,1.5-4.9,2.3-7.4c7.5-0.8,15-1.4,22.6-2.1
			c0.8,2.2,1.5,4.5,2.3,6.7C249,143.6,254.3,143.2,259.6,142.8L259.6,142.8z M354.3,98.2c4.1,0,8.3,0,12.5,0c4.8,0,8.3,1.2,10.6,3.6
			c2.2,2.4,3.3,5.9,3.3,10.5c0,4.6-1.1,8.1-3.3,10.4c-2.2,2.3-5.8,3.4-10.6,3.4c-4.2-0.1-8.3-0.1-12.5-0.1V98.2L354.3,98.2z
			 M421.1,113.4c0-5.7,1.3-9.9,3.8-12.5c2.5-2.6,6-3.9,10.7-3.8c4.6,0.1,8.2,1.5,10.7,4.3c2.5,2.8,3.7,7.2,3.7,13.2
			s-1.2,10.3-3.7,12.8c-2.5,2.6-6.1,3.7-10.7,3.3c-4.6-0.3-8.2-1.9-10.7-4.6C422.4,123.4,421.1,119.1,421.1,113.4L421.1,113.4z
			 M470.2,147.4c6.5,0.8,13.1,1.7,19.7,2.7v-46.9c0,0,0.1,0,0.1,0c1.9,7.9,3.8,16,5.8,24c1.9,8.1,3.8,16.4,5.8,24.7
			c5.5,0.9,11,1.9,16.5,2.8c1.9-8,3.8-16.2,5.8-24.4c1.9-8.3,3.8-16.6,5.8-25.1h0.1V157c6.5,1.3,13.1,2.8,19.7,4.2V84.7
			c-10.2-0.1-20.4-0.1-30.6-0.2c-1.5,6.8-3,13.5-4.5,20.2c-1.5,6.6-3,13.2-4.5,19.7c0,0-0.1,0-0.1,0c-1.5-6.8-3-13.5-4.5-20.2
			c-1.5-6.6-3-13.2-4.5-19.8c-10.2,0-20.4-0.1-30.6-0.1V99c-0.2-0.6-0.5-1.1-0.8-1.7c-2.5-4.7-5.7-8.2-9.5-10.4
			c-3.8-2.2-7.7-3.5-11.6-4c-3.9-0.5-8.1-0.8-12.7-0.8c-4.5,0-8.8,0.3-12.7,0.8c-3.9,0.5-7.8,1.8-11.6,3.8c-3.8,2-7,5.1-9.5,9.3
			c-0.3,0.6-0.6,1.2-0.9,1.8c-1.1-2.9-2.7-5.2-4.6-7.1c-4.6-4.4-11.8-6.6-21.4-6.6c-14.1,0-28.2,0-42.2,0v56
			c14.2,0,28.4,0.1,42.7,0.4c9.3,0.2,16.3-1.7,21-6.1c1.9-1.8,3.4-4,4.5-6.7c0.3,0.7,0.6,1.4,1,2c2.5,4.4,5.7,7.6,9.5,9.9
			c3.8,2.2,7.7,3.7,11.6,4.5c3.9,0.8,8.1,1.4,12.7,1.8c4.6,0.4,8.8,0.5,12.7,0.4c3.9-0.1,7.8-1.1,11.6-2.8c3.8-1.7,7-4.8,9.5-9.2
			c0.3-0.5,0.5-1,0.8-1.6L470.2,147.4L470.2,147.4z M236.6,123c-4.4,0.3-8.8,0.6-13.1,0.9c1-3.6,2.2-7.1,3.2-10.6
			c1-3.5,2.2-7,3.3-10.5c0,0,0.1,0,0.2,0c1,3.4,2.2,6.8,3.2,10.2C234.4,116.3,235.5,119.7,236.6,123L236.6,123z M442.1,289.5
			c-26.9,23.9-62.3,38.4-101.1,38.4s-72.8-14-99.5-37c5,0.3,10-1.3,13.9-4.9c3.3-3.1,4.4-6.5,6.4-10.3c0.5-0.9,1.1-1.8,1.5-2.8
			c1.9,2.3,4.3,4.2,7.3,5.5c3.3,4.5,8.6,7.2,14.2,7.4c4.8,0.2,7.9-1,11.7-3.7c1.8-1.1,3.3-2.6,4.6-4.3c1.9-1.1,3.4-2.3,5-3.9
			c0.6-0.6,1.2-1.3,1.7-2c0.3,1,0.6,2,1,2.9c0.3,1.4,0.7,2.7,1.2,4c0.5,1.2,1.1,2.3,1.9,3.3c0.3,0.5,0.6,0.9,1,1.4
			c0.5,1,1,2.1,1.6,3.1c0.9,1.6,2.1,3.1,3.5,4.4c1.8,4.3,5.1,7.7,9.4,9.5c3.4,4.4,8.2,7.5,13.9,7.7c6.3,0.2,12.1-2.4,15.8-7.6
			c2.1-3,3.2-6.5,3.2-10.1c2-4.1,2.4-8.7,1.2-13.2c-0.1-0.4-0.2-0.8-0.2-1.1c0-1.3-0.1-2.3-0.3-3.6c-0.1-0.4-0.2-0.8-0.2-1.1
			c0.1-1,0.2-1.8,0.2-2.8c0-0.2,0-0.3,0-0.5c1.2,0.3,2.4,0.6,3.6,0.6c1.7,0.3,3.4,0.4,5.1,0.3c0.8,0.1,1.7,0.2,2.5,0.2
			c0.5,0,1.1,0.1,1.6,0.1c1,0.1,2,0.2,3.1,0.2c1.9,0.4,3.8,0.6,5.7,0.5c1.3,0,2.6-0.2,3.9-0.5c0.5-0.1,1-0.2,1.5-0.3
			c-0.5,1.8-0.9,3.6-1.1,5.4l-0.6,4c-1.3,8.7,3.9,16.9,12.3,19.5c6.6,2,13.4,0.4,18.2-4.4c3.8-0.8,7.2-2.8,9.7-5.7
			c2.1-1,3.6-1.9,5.6-3.6c0.5-0.4,1.5-0.8,2.3-1.2C436.1,285.9,438.9,288.1,442.1,289.5L442.1,289.5z M341,23.6
			c39.6,0,75.7,15.1,102.7,39.9c-8-0.5-16.6-0.2-23.3,0.7c-6.6,0.9-13.8,3.3-19.7,6.8c-7.9-4.2-17-5.7-25.9-5.7
			c-46.2,0-92.4,0.1-138.7,0.2C263.4,39.6,300.4,23.6,341,23.6L341,23.6z M341,8.9c49.9,0,94.6,21.9,125.2,56.6l41.1,0.2
			c0.1,0,0.2,0,0.3,0l55.9,0.4c2.6,0,4.7,2.1,4.7,4.7v76.4c4.8,1,8.6,3.4,11.6,7.9c3.4,5.1,3.9,10.4,2.2,16.2
			c-0.5,1.6-1.1,3.1-2,4.5c0.3,5.3-1.5,10.1-5,13.8c1.1,0.7,2.2,1.4,3.3,2.3c2.9,1.5,5.3,3.6,7.1,6.4l0.8,1.2
			c0.7,1.1,1.3,2.2,1.7,3.3c0.4,0.5,0.7,0.9,1.1,1.4c0.4,0.4,0.7,0.7,1,1.1c2.5,2.8,4.2,6.3,4.7,10c0.6,2.1,0.9,4.3,0.7,6.5
			c0.2,0.9,0.4,1.8,0.4,2.8c0.4,4.5,0.3,9.5-1.2,13.8c-1.6,4.7-2.8,6.1-6.1,9.6c-1.4,1.5-3.1,2.8-4.9,3.8c-0.6,1.1-1.1,1.9-2.1,3
			c-2.2,2.4-5.1,4-8.1,5.1c-1,0.4-2,0.7-3.1,0.9c-0.5,0.4-1,0.8-1.5,1.1l-1.7,1.6c-0.1,0.1-0.1,0.1-0.2,0.2
			c-1.9,1.6-3.9,2.8-6.3,3.5c-1.4,1.1-3,2-4.7,2.6l-0.9,0.3c-0.9,0.3-1.8,0.6-2.8,0.8c-0.4,0.3-0.9,0.7-1.3,1l-1.5,1.5
			c-0.1,0.1-0.1,0.1-0.2,0.2c-3.4,2.9-6,3.5-10.3,4.3c-0.4,0.1-0.8,0.1-1.3,0.2c-2.6,3-6.1,5-10,5.8c-2.5,0.5-4.9,0.4-7.4-0.1
			l-2.3,0.7c-2.1,0.8-3.4,1.2-5.6,1.6l-1.1,0.3c-2.4,1-4.1,1.3-6.8,1.3c-0.4,0-0.8,0-1.2,0.2c-1.4,0.4-2.5,0.9-4,1.2
			c-0.5,0.1-0.8,0.3-1.3,0.4c-1.7,0.7-3.3,1-5.1,1.2c-2.8,0.5-5.3,0.8-8.1,1c-1.1,0.2-2.2,0.4-3.3,0.4c-1.9,0.4-3.8,0.5-5.7,0.4
			c0,0-0.1,0-0.1,0l-5.6-0.4c-1.5,0.2-3,0.3-4.4,0.3c-1.6-0.1-3.1-0.4-4.7-0.8c-30.3,31.4-72.9,51-120.1,51s-85.4-17.6-115.4-46.3
			c-3.1,3.9-7.9,6.5-13.4,6.7c-6.9,0.2-12.3-2.8-16-8.2c-4.9-1.4-8.9-4.8-11.6-9.1c-4.8-2.3-8.3-6.5-9.9-11.5
			c-1.5-1.5-2.7-3.3-3.6-5.2c-0.4-0.8-0.7-1.6-1-2.4c-0.9,0.6-1.9,1.1-2.9,1.6c-1.4,1.7-3.1,3.1-5.1,4.2c-3.4,2.4-7.5,3.4-11.7,3
			c-4.2-0.4-8.1-2-11.1-4.8c-1.3-1.2-2.2-2.4-3-3.7c-0.9-0.4-1.8-0.9-2.6-1.5c-3.7-0.6-7.2-2.3-10-4.8c-3.3,0.1-6.7-0.8-9.6-2.5
			l-0.3-0.1c-1.6-0.4-3.1-1.1-4.5-2c-3.3-0.6-6.4-2.1-8.8-4.4c-3.5-1.2-6.5-3.5-8.6-6.5c-0.3-0.2-0.6-0.3-0.9-0.5
			c-3.6-0.6-6.9-2.3-9.5-4.8c-8.2-2.9-13.5-10.9-12.5-19.8c0.9-8.5,7.5-15.5,16-16.7l5.3-0.8c2.7-0.6,5.7-0.9,8.5-1
			c1.1-0.3,2.3-0.4,3.5-0.5l6.4-0.9c0.9-0.1,1.8-0.2,2.6-0.2c0.7-0.1,1.3-0.2,2-0.2c1.5-0.1,3.4-0.1,4.8-0.4c0.6-0.2,1.3-0.3,2-0.4
			c1.7-1,3.6-1.7,5.6-2.1c1.1-0.5,2.2-0.8,3.3-1.1l-13.6-13.4c-0.9-0.9-1.4-2.1-1.4-3.4V70.9c0-2.6,2.1-4.7,4.7-4.7l59.6-0.4
			c8.5-0.1,16.6,1.1,23.5,5.4l0.9-2.5c0.7-1.9,2.4-3.1,4.4-3.1l8.8,0C246.3,30.9,291.1,8.9,341,8.9L341,8.9z M600.4,221
			c0-2.2-0.2-4.3-0.8-6.4c0-0.2-0.1-0.3-0.1-0.5c-0.7-4.5-2.8-8.6-5.8-12c-0.3-0.4-0.7-0.7-1-1.1c-0.3-0.4-0.5-0.7-0.7-1.2
			c-0.5-1-1-2-1.6-2.9c-1.5-2.4-2.9-4.4-5.2-6.2c-1.7-1.4-2.3-3.6-1.6-5.7c0.8-2.2,1.3-4.6,1.4-7c0-0.7,0.2-1.3,0.5-1.9
			c0.5-1.1,1-2.3,1.3-3.5c3.1-10.8-1-22.5-11-27.9c-1.7-0.9-2.6-2.5-2.6-4.4V70.8c0-5.2-4.2-9.5-9.5-9.5l-93-0.5
			c-1.4,0-2.7-0.6-3.7-1.6c-32.6-35.1-78-55-125.9-55s-93.4,19.9-125.9,55c-1,1.1-2.2,1.6-3.7,1.6c-3,0-7.6-0.2-10.1,1.9
			c-1.4,1.1-3.1,1.4-4.8,0.9c-5.9-2-12.2-2.6-18.4-2.5l-59.6,0.4c-5.2,0-9.5,4.3-9.5,9.5v107.9c0,2.6,1,5,2.9,6.8l1,1
			c1.4,1.4,1.9,3.3,1.2,5.2c-0.6,1.9-2.2,3.1-4.1,3.4l-11.4,1.4c-0.2,0-0.3,0-0.5,0c-2.9,0.1-5.8,0.4-8.6,1c-0.1,0-0.2,0-0.2,0
			l-5.1,0.8c-10.6,1.6-18.9,10.3-20,21c-1.1,10.3,4.6,20.1,14.1,24.2c0.4,0.2,0.8,0.4,1.2,0.7c2.4,1.9,5.1,3.4,8,4.2
			c0.9,0.3,1.6,0.7,2.3,1.4c2.1,2.3,4.7,4.1,7.6,5.4c0.4,0.2,0.8,0.4,1.1,0.7c2.5,2,5.4,3.5,8.6,4.2c0.4,0.1,0.7,0.2,1.1,0.4
			c1.1,0.6,2.3,1.1,3.5,1.5c0.3,0.1,0.5,0.2,0.8,0.4c2.5,1.4,5.3,2.2,8.2,2.6c0.8,0.1,1.6,0.4,2.3,0.8c2.4,1.7,5.2,2.9,8.1,3.6
			c1.1,0.3,2,0.8,2.7,1.7c4.4,5.5,9.2,8.1,16.3,8.8c4.9,0.5,9.9-0.7,14.1-3.3c1.3-0.8,2.7-1,4.1-0.6s2.5,1.3,3.1,2.7
			c2,4.2,5.1,7.7,9,10c0.6,0.4,1,0.7,1.4,1.3c2.7,3.6,6.2,6.5,10.4,8.3c0.7,0.3,1.3,0.7,1.9,1.3c4.7,5.5,11.1,8.1,18.3,7.9
			c3.7-0.1,7.3-1.1,10.5-2.9c1.9-1.1,4.1-0.8,5.7,0.6c67.3,58.5,168.6,55.5,232.4-6.9c1-1,2.3-1.5,3.8-1.4c1.7,0.1,3.5-0.1,5.2-0.2
			c0.2,0,0.4,0,0.6,0l5,0.3c2.3,0.2,4.3-0.2,6.6-0.5c5.2-0.6,12.5-0.9,17.4-2.7c0.1-0.1,0.3-0.1,0.4-0.1l4.9-1.4
			c0.4-0.1,0.7-0.2,1.1-0.2c2-0.1,3.9-0.4,5.8-1.1c0.5-0.2,1-0.4,1.5-0.5c0.2,0,0.3-0.1,0.5-0.1c1.9-0.4,3.7-0.9,5.6-1.6
			c0.8-0.3,1.5-0.4,2.3-0.3c2.4,0.3,4.7,0.2,7.1-0.2c3.9-0.8,7.5-2.5,10.5-5.2c0.7-0.6,1.4-1,2.3-1.1c4.3-0.8,7.5-2.2,10.9-5
			c0.4-0.3,0.8-0.7,1.2-1c0.5-0.5,1.1-0.8,1.8-1c0.5-0.2,1-0.3,1.5-0.5c2-0.8,3.5-1.5,5.3-2.7c0.3-0.2,0.7-0.4,1-0.5
			c2.5-1,4.8-2.3,6.9-4.1c0.5-0.4,1-0.8,1.5-1.3c0.6-0.5,1.1-0.8,1.8-1c0.6-0.2,1.2-0.4,1.8-0.6c4.7-1.8,8.4-4,11.4-8.2
			c0.4-0.5,0.8-0.9,1.3-1.3c1.6-1,3-2.3,4.3-3.6c3.6-3.8,5.5-6.2,7.2-11.2c0,0,0-0.1,0-0.1c1.8-5,1.9-10.6,1.5-15.8
			c-0.1-0.8-0.2-1.5-0.3-2.3C600.4,221.6,600.4,221.3,600.4,221L600.4,221z M308.2,151.3c0.1-0.3,0.1-0.6,0.1-0.8
			c-0.5-0.5,0.2-1.4,0.5-1.6c0.4-0.4,0.1-0.6-0.3-1c-0.3-0.2-0.4-0.2-0.6,0.1c-0.3,0.1-0.4,0.4-0.2,0.6l0.2,0.4
			c-0.7,0.3-1.2,1-1.2,1.7c-0.2,0.2-0.3,0.3-0.4,0.5l-0.2,0c-0.2,0.1-0.3,0.1-0.5,0.1l-0.4,0c0,0.1,0,0.1-0.1,0.1
			c-0.4,0-0.7,0-0.9-0.2c-0.5,0.2-1-0.2-1.5,0l-1,0c0,0-0.1,0-0.1,0c0.1-0.2,0.2-0.3,0.4-0.4c-0.2-0.1-0.4-0.2-0.2-0.4
			s0.3-0.2,0.1-0.4c0.3-0.9,0.2-1.8,0.5-2.8c0.3-0.2,0.6-1,0-1.4c-0.1-0.1-0.3-0.2-0.5-0.1c-0.5,0.4-0.1,2-0.5,2.3
			c-0.6,0.4-1.1,0.4-0.2,1c-0.5,0.3-0.5,0.8-1,1.2c0.2,0.2,0.2,0.4,0.1,0.6H300l0.1,0.4c-0.2,0-0.3,0-0.5,0.1c0,0-0.1,0-0.1,0
			l-0.2-0.7l0.6-0.4l-0.5-0.6c0.5-0.5,0.7-1.2,0.7-1.9c0.5-0.4,0.3-0.8-0.2-1.3l0.4-1.5c-0.3-0.2,0.1-1.6,0.3-1.9
			c-0.5-0.4,0.5-0.5-0.1-0.9c0.3-0.2,0.2-0.5-0.2-0.8l-1.1,0.8c0.3,0.6-0.6,0.8-0.3,1.3l-0.2,0.6c0.2,0.2,0.1,0.4-0.1,0.5l-0.5,0.4
			l-0.4,1.4c0,0.2-0.3,0.5-0.4,0.7c0.2,0.2,0.2,0.3,0,0.5l-0.5,0.5c-0.2-0.2,0.1-0.6,0.2-0.9c-0.2,0-0.1-0.2-0.2-0.3
			c0.3-0.1,0.5-0.1,0.2-0.4c0.1-1.2,0.7-2.5,0.6-3.7c0.1-0.2,0.1-0.4-0.3-0.6h-0.1c0.3-0.3,1.1-2.3,0.9-2.6c-0.2-0.1-0.6,0-0.8,0.1
			l-0.3,0.5c-0.2,0.2-0.3,0.5-0.2,0.7c-0.5,0.3-0.4,0.8-0.8,1.1l-2.4,5c-0.3,0.1-0.6,0.4-0.2,0.7c-0.3,0.2-0.5,0.5-0.4,0.8
			c-0.4,0.4-0.7,1.9-0.6,2.2l-0.6,1.1c-0.3,0-0.6-0.1-0.8-0.2l-1,0.1c0.1,0.1,0.2,0.2,0,0.3c-0.1,0-0.5-0.1-0.7-0.1
			c-1.5,0.6-4.3,0.1-6,0.3c-0.4-0.4-0.8-0.1-1.2,0.1c0,0-3.2,0.2-3.4,0.3l-1.9,0c-0.6,0.3-1.2-0.2-1.8,0c-0.3,0.1-2.3,0.4-2.6,0.4
			l-0.9,0c-0.4-0.3-0.8-0.3-1.1-0.1c-0.7,0.1-2,0.3-2.8,0.2l-0.5-0.2l-1,0.1c0,0,0.2,0.2,0.1,0.2c-0.2,0.1-0.5-0.1-0.7-0.1
			c-1.4,0.5-3.8,0.1-5.5,0.3c-0.4-0.3-0.9-0.1-1.1,0c-0.2,0-5.2,0.5-5.4,0.6c-0.8-0.4-1.5,0.5-2.3,0.1c-0.6,0.3-2.6-0.1-3.2,0.2
			l-0.6-0.1c-1.2,0.5-2.4,0.2-3.6,0.7l-0.9,0c-0.2-0.2-2.8-0.2-3.2,0c-0.4-0.3-1.2,0-1.4,0.2c-0.3-0.1-0.9,0-1.1,0.2l-0.7,0
			l-0.6-0.2l-3.5,0.5l-0.4,0.2c-0.3,0.1-0.6,0.1-0.9,0l-1.3,0c-0.6,0.2-0.6-0.2-1.4,0.2c-0.3,0.1-0.6,0.1-0.8-0.1
			c-0.6,0.3-1.3,0.2-2,0.5c-0.6-0.1-1.4-0.1-2.2-0.1c0.2-0.4,0.5-0.8,0.6-1c-0.1-0.2-0.1-0.4-0.2-0.6c-0.1-0.8,1-1.5,1-2.2
			c-0.4,0-0.8,0.2-1.2,0.3c0.2,0.1,0.2,0.2,0.3,0.4c0,0.4-1.4,2.7-1.5,2.9v0.1c-0.6,0-1.1,0.1-1.7,0.1c0.4-1,0.6-2.1,1.2-3l-0.2-0.3
			l-0.2,0.1c-0.1,0,0.1-0.4,0-0.5l-0.5,0l-0.8,0.4c-0.3,0.5,0.2,1.1,0.3,1.7l0,0.2l-0.2,0c-0.3,0-0.9,0-0.2,0.3l-0.4,0.7l-0.5,0.1
			l0.1,0.3c0,0.2-0.2,0.1-0.3,0.1l-0.1,0.3c-0.5,0.1-0.9,0.2-1.2,0.3c-0.4-0.4-1,0-1.4,0.2l-1.1,0c-0.3,0.1-0.7,0.2-1.1,0.1
			l-1.1,0.2l0.1,0.2c0.2,0.1,0.4,0.1,0.6,0.1c0.7,0.1,1.6,0.2,2.2-0.1c0.4,0.1,0.8,0,1.1-0.1c0.5,0.1,1.1,0.2,1.7,0.2l-0.7,1l-0.4,0
			l0.1,0.7c-0.2,0.8-0.9-0.2-0.7,1.3c0,0.4-0.5,0.7-0.9,0.7l-0.3,0.6c0.2,0,0.3,0.1,0.4,0.3l-0.1,0.2c-0.4,0-0.6,0.3-0.8,0.6h-0.1
			c-1.3-0.1-2,4-2.9,3.9c-0.2,0-0.4-0.1-0.7-0.2l0.6-0.8c0.1,0,0.8,0,0.3-0.2l0.3-1c-0.6-0.3-0.4-0.8,0.2-0.5
			c0.3-0.4-0.1-0.3-0.2-0.6c-0.1-0.6,1.5-1.7,1.4-2.7c0-0.2,0-0.4-0.2-0.5c0,0,0.1-0.2,0-0.2c-0.2,0-0.3,0-0.5,0
			c-0.7,0.7-0.7,0.5-0.6,1.3c0,0.1,0,0.2-0.1,0.3l-0.2-0.1c-0.8-0.1-0.1,3-1.3,2.1c-0.2,0.3,0.2,0.6,0,1c0.3,0.1,0.5,0.3,0.5,0.6
			l-0.1,0.3c-0.1-0.1-0.2-0.1-0.3-0.1c-0.5,0,0.2,1.9-0.8,1.5c-0.7,0.7-1.4,1.4-1.8,2.2l-0.9-0.2c0.8-1.2,1.7-1.6,2.4-3.1
			c-0.1-0.1-0.1-0.3-0.1-0.4c0-0.5,0.5-1.1,0.7-1.5l-0.2-0.3c0.2-0.3,1.2-1.9,1.2-2.1c0-0.1,0-0.2-0.1-0.2c-0.5,0-1.3,1.8-1.5,2.1
			l-1.9,0.2c-0.4,1.2-2.2,5-2.6,5.2c-0.3,0-0.7-0.1-0.9,0c-0.1,0.1-0.1,0.2,0,0.2l0.1,0.3l-0.2,0.5c-0.5,0-0.6-0.5-0.5-0.9
			c-0.5,0-0.7-0.3-0.4-0.7l-1.5-0.1c0.2-0.5,1.2-2.8,1.2-2.9c0,0,0-0.1-0.1-0.1c-0.2,0-0.5,0.2-0.7,0.3c-0.2,0.3-0.8,1.8-1.3,1.6
			l-0.6,0.8l-0.1-0.1l-2-0.9l-0.8-0.1c-0.4,0-0.9,0-0.8,0.4l0.4,0.5c-0.5,0.1-2.5,0.1-2.4,0.8c0,0.2-0.2,0.3-0.4,0.2l-0.3,0.3
			l-1-0.1l-0.8,0.6c0,0.5-0.5,0.5-0.9,0.4c0.1,0.7-2.1-0.2-2,0.7c0.1,0.7-1.7,0.7-2.3,0.7l0,0.4c0.1,0.9,0,1.4-1.2,1.2l-1.1,1.2
			c-0.8-0.1-1.4,0.9-1.8,1.3c-1.2-0.1-2.7,1.6-3.3,2.2c0.1,1-1.2-0.1-1.1,1c0,0.2-0.4,0.1-0.5,0.1c0,0.4-0.4,0.7-0.8,0.7
			c0.1,0.6-0.4,0.2-0.7-0.1c-0.1,0.3-0.6,0.3-0.9,0.3l0.4,0.8c0.1-0.1,0.2-0.3,0.3-0.3c0.2,0,0.2,0.3,0.3,0.4l-0.7,0.6l-0.9,0.3v1.1
			c-0.4,0-0.8,0-1,0.3c-0.3,0-0.2,0.3-0.2,0.4c0,0.3-0.2,0.3-0.5,0.3c0,0.4-0.2,0.2-0.5,0.2c-0.2,0-0.2,0.2-0.2,0.3
			c0,0.4-0.4,0.2-0.4,0.6c-0.8,0.7-1.9,1.3-2.4,2.2c0,0.5-0.4,0.7-0.9,0.5c0.1,1-1.6,1.2-1.5,2.2c-0.6,0.4-1.1,0.8-1.6,1.3
			c0,0.4-0.4,0.3-0.4,0.8c-1,0.5-2.1,1.5-2.7,2.5c-0.7-0.1,0,1.8-0.9,1.7c-1-0.1-0.9,0.5-1.5,0.5l-0.3,0.4l-0.4,0.2l-0.4,0.7
			c0,0.2,0.1,0.7-0.2,0.7c-0.1,0.4-0.5,0.7-0.9,0.6l-0.3,0.9c0,0.3,0,0.6-0.4,0.8l-0.6,0.7c-1.1-0.1-0.4,1.4-1.5,1.3
			c-0.1,0.4-0.4,1.7-1,1.6c-0.3,0.3-1.4,1.9-2,2l-0.5,0.7c-0.5,0,0,0.7-1,0.6l-0.2,0.7l-1.5,1.2l-0.3,1c0.1,0.1,0.3,0.2,0.4,0.3
			s-0.4,0-0.4,0c-0.7-0.1-1.6,0.3-1.5,0.8c0,0.4-0.4,0.5-0.3,1l-1.6,0.4l-2-0.2c0,0.3-2.6,0.6-2.7,0.1l-1.7-0.2
			c-0.1,0.3-0.5,0.3-0.8,0.3l0,0.3c0,0.5-2.1,0.5-2.6,0.7l-1.2-0.2c-0.4,0-1,0.1-1.4,0.3c0.1,0.9-1.8,0-1.7,1l-1.6,0l-0.6,0.8
			c-0.7-0.1-1.4,0.5-1.4,1.1c-0.4,0.1-0.8,0.2-1,0.1c-0.9,0.2-2.3,0.1-3.1,0.3l-0.5,0c-1.6,0.5-2.4,0.3-4,0.8l-0.8,0.1
			c0-0.2-2.4,0-2.9,0.1c0-0.3-1.1,0-1.5,0.2c-0.2,0-0.8,0.1-1.2,0.2h-0.6l-0.3-0.1l-3.8,0.6l-0.6,0.2c-0.4,0.1-0.7,0.2-0.8,0
			l-1.2,0.1c-0.7,0.2-0.3-0.1-1.5,0.2c-0.4,0.1-0.7,0.2-0.7,0c-0.9,0.2-1.5,0.3-2.3,0.5c-1.7-0.2-5.7,0.2-8,0.9c0-0.3-1,0.1-1.5,0.2
			l-1.1,0.1c-0.4,0.1-0.9,0.2-1.1,0.2l-1.2,0.2l-0.1,0.2c0,0.1,0.2,0.1,0.5,0c0.5,0.1,1.3,0.1,2-0.2c0.2,0.1,0.7,0,1.1-0.2
			c0.6,0.2,1.8,0.2,2.5,0.2c0.5,0.1,1.2,0.2,1.9,0l0.3,0.1l1-0.3c0.2,0.1,0.8,0,1.2-0.1l0.4,0.3c0.5-0.1,1.1-0.3,1.3-0.2
			c0.6-0.2,1.4,0.1,1.8,0.2l0.4-0.1c0,0.1-0.8,0.4-0.9,0.4l-1,0.1c-0.5,0.1-0.7,0.2-0.8,0.4l0,0.2l1.4-0.4c0,0.4,0.8,0.4,0.8,0.8
			c2.4-0.3,3.4-0.8,4.4,0l1.6-0.5c0.3,0.2,1,0.2,1.8,0c0,0.5,2.2-0.6,2.2-0.1c-0.5,0.1-0.6,0.4-1.1,0.6c-0.4,0.1-0.9,0.2-1,0.1
			c-0.2,0.1-1.7,0.6-1.7,0.3c-0.2,0-2.7,0.4-2.7,0.8l-1,0.1c-0.2-0.1-0.6-0.1-0.9-0.1l-1.1,0.3l-0.6-0.2l-1.2,0.4l-0.6,0l0,0.2
			l-1.2,0.1c-0.7,0.7-0.5-0.1-0.4-0.3c0-0.2-0.2-0.2-0.6,0c-0.5-0.1-1.8,0.4-2.5,0.4l-0.4,0.6l1.1,0c0.5-0.1,0.7,0,0.6,0.2
			c0.5-0.1,1-0.2,1.3-0.2l1-0.3c0.5,0.1,0.9,0.1,1.7-0.2l0.8,0l1.5-0.3c0.1,0,0.4,0.1,0.3,0.2c0,0.3-1.5,0.3-1.8,0.4l-0.1,0.5
			l0.5-0.2c0.4-0.1,0.5,0,0.5,0.1c0.2,0,0.6,0.1,0.7,0.2l1-0.1l0.1,0.5l0.2,0.2c0,0.2,0.4,0.1,0.7,0c0.1,0,0.2,0,0.4,0
			c0.1,0,0.8-0.1,0.8,0c0,0.1-0.3,0.1-0.3,0.1c-1.1,0.3-1.9,0.2-2.9,0.5c-0.2,0.1-0.4,0.2-0.4,0.3l-1,0.5l0.7,0.2
			c0.6-0.2,0.7,0,1.5-0.2l0,0.2c0,0.5,1.5-0.7,1.4,0.1c0.6,0,1.1,0.1,1.5,0.3c1-0.3,1.6-0.2,2.3-0.2c-1.7,0.6-2.2,0.5-3.2,0.8l0,0.4
			l0.7,0.4c0.1-0.1,0.4-0.3,0.5-0.4c0.2-0.1,0.2,0.1,0.2,0.2l2.4-0.3c0.6,0,1.2,0.1,1.6,0.2c0.8-0.1,1.6-0.1,2.4-0.4
			c0.8-0.1,2.4-0.3,3-0.1l2.6-0.6l0.6,0.1l-0.6,0.4l-0.5,0.2l-2.1,0.3c0-0.1,0-0.3-0.2-0.3c-0.1,0-0.3,0.2-0.4,0.3l-1.1,0.2
			l-0.9,0.5c0.7,0,1.7-0.2,2.4-0.4l-0.3,0.5c0.6-0.2,1-0.5,1.6-0.6c0.8,0,1.9,0,3-0.3c0.6-0.2,0.7-0.7,0.7-0.9l0-0.3
			c-1.6,0.4-2.8,0.1-4.2,0.3c0,0-0.4,0.1-0.4,0c0,0,0.9-0.4,1-0.5c0,0.3,1.4,0,1.9-0.1c1,0,2,0,3,0c1-0.3,1.4,0,2.3-0.3l-0.4,0.5
			l-0.8,0l-1.1,0.6c-0.2,0-0.8-0.1-0.9,0.2c0,0-0.2,0.1-0.3,0.1c0,0.1,1.3-0.1,1.6-0.1l0.1,0.1l-0.6,0.2c-0.1,0.6,1,0,0.9,0.3l1-0.2
			l0.9-0.4l0.5,0l0.3,0.1l0.3-0.2l1.7-0.2l-0.3,0.4l1.4-0.4c0,0.3,0.1,0.3,0.8,0.1c0,0.2,0.3,0.1,0.7,0c0.5-0.1,0.7,0,1.2-0.1v-0.1
			l1-0.1c0.4-0.1,0.6,0,0.9-0.1c-0.2,0.4-0.7,0.7-0.7,1.3c-0.2,0.2-0.4,0.5-0.7,0.6c-1.1,1.1-1.1,2.8-2.3,3.9c0,0.3-0.5,1.5-0.6,1.6
			c0.1,0.5-1.3,1.4-1.2,2.3c0.4,0.7,1.3,0.8,1.9,0.8c0.4,0,0.8,0,0.7-0.5l0.7-0.4c1.3,0.1,1.2-1.1,2.1-1.6c0-0.1,0-0.4,0.2-0.3
			c0.3,0,0.7,0.4,1.1,0.5v0.1c0,0.4-0.1,0.6-0.6,0.6l0.1,1.7c0,0.2,0.1,0.4,0.4,0.4c0.9,0.1,1.8-0.8,1.7-1.6c0.4,0,0.9,0,1.2-0.2
			c0.1-0.5,0.4-1.3,1.2-1.2c0.1,0,0.7,0.1,0.6-0.1c0-0.4-1.1-0.3-1.1-0.5c0-0.3,0.3-0.5,0.5-0.7c-0.1-0.6,1.5-0.5,1.4-1.4l0.3-0.1
			c0.2,0,0.4,0.1,0.5,0.4l0.4,0.3c-0.2,0.6-0.6,1.1-0.6,1.7c-0.4,0-0.4,0.2-0.4,0.5c0,0.1-0.1,0.2-0.2,0.2l0.2,0.7l-0.5,0.7
			c-1-0.1-0.4,1.9-0.4,2.4c0,0.3-0.2,0.3-0.5,0.3c0.1,0.7-0.8,0.9-0.7,1.7c-0.4,0-0.4,0.3-0.3,0.6c-0.6,0.8-1.1,1.5-1.6,2.3
			c0,0.4,0.5,0.5,0.8,0.5l0.2,0l0.8-0.7l0.7-0.2l0-0.5c0-0.2-0.1-0.6,0.4-0.6l0.4-0.7c0-0.4,0.3-0.2,0.6-0.2c0.4,0,0.3-0.3,0.3-0.5
			c0-0.4,0.2-0.5,0.5-0.5l0-0.7c-0.1,0-0.2,0-0.2-0.1c0-0.3,0.4-0.4,0.4,0l1.6-1c0-0.5,0.4-0.6,0.3-1l0.9,0.4c0.5,0,0.7,0.4,1.2,0.5
			c0.4,0,0.7-0.2,0.7-0.6c0.8,0.1,0.7-0.1,0.7-0.7c1.2,0.1,0.7-0.6,1-1.3c-0.2,0-0.3,0-0.3-0.2c0-0.3,1.1-1.1,1.2-1.2
			c1.1,0.1,1.8-0.6,1.8-1.5l1.5-1.5c0-0.2-0.1-0.5,0.2-0.5c0.5,0,0.8,0.5,1.2,0.6c0.2,0,0.2-0.3,0.2-0.3l0.9-0.7
			c0.5,0,0.7-0.2,0.7-0.6c-0.1-0.7,0.4-1.4,0.3-2.1c1.2,0.1,0.4-1.4,1.3-1.3c-0.1-0.6,0.7-0.1,1.2-0.1c0.8,0.1,0.6-0.7,0-1
			c0-0.2,0.1-0.3,0.3-0.4l0.8-0.1v0.1l2.2-0.1l1.2-0.3l0.3,0.4c-0.2,0.1-1.3,0.3-1.4,0.6c0,0.1,0.4,0.1,0.6,0c0.7,0.1,1.7,0,2.5-0.1
			c0.5-0.1,0.6,0,1.1-0.2c0.7,0.2,2.5-0.1,3.5-0.2c0,0.1,0.2,0,0.4,0c0.4-0.1,1.6-0.6,1.6-0.9c0-0.1-0.4,0-0.5,0.1l-1.1,0.1
			c-0.5,0.1-0.9,0.2-1.2,0.1c-0.9,0.2-1.8,0.4-2.4,0.3l1.1-1.1l0.1,0c0.1,0,0.2,0.2,0.2,0.3c0,0.3,0.8-0.1,1.1-0.3l0.4,0
			c-0.1,0.6-0.2,0.7,0.9,0.3c0.9-0.2,3.3-0.6,4.1-0.8l0.8,0l-0.3,0.4l-3.4,1c-0.1,0.5,1.9-0.3,1.9,0.1l2-0.1c1-0.3,1.2,0,2.1-0.2
			l0.6,0.2l1.2-0.1l0.8,0.2l1.5-0.4c0.7,0,1.7-0.1,2.4-0.3l0.3,0.1l0.6,0l0,0c0.6,5.9-0.6,12.4-0.8,18.1c0.3,0.2,0.5,0.6,0.5,0.9
			c-0.4,0-0.5,0.3-0.5,0.6c0.1,0.9,0.9,6.1,1.8,6.2v1.1l-0.4,0.6c0.2,0.5,0.6,0.7,0.7,1.1l1,0.2c0.4,2,0.8,3.9,1.8,5.9
			c0.8,0.1-0.3-3.1-0.4-3.5c0-0.1-0.1-0.5,0.2-0.5c0.2,0,0.6,0.8,0.8,1v0.1c0,0.3,0.3,0.6,0.7,0.6l0,0.2c0,0.3,0.3,0.5,0.6,0.6
			l1.6,5.3c0.7,0.6,1,3.5,1.1,4.2c0.4,0-0.2-2.4-0.3-2.9c-0.1-1.3,0.9-0.1,0.7-1.9c-0.2-1.5-0.6-2.9-0.8-4.4c0-0.3,0.5-0.2,0.7-0.2
			l-0.8-5c0,0,0-0.3,0.1-0.3c0.1,0,0.3,0.4,0.3,0.5c0,0.2,0.5,4.6,1.8,4.7l0.4,0l-0.2-1.4c0,0,0-0.3,0.1-0.3c0,0,0.4,0.8,0.4,0.9
			l1.7,10c0,0.1,0,0.2,0.1,0.2c0.2,0,0.6-0.8,0.6-1l-0.3-1.7c0-0.1,0-0.2,0.1-0.2c0.3,0,0.6,0.1,0.8,0.3c0.7,1.7,0.5,4.5,1.7,5.7
			c-0.3,0.2-0.4,0.5-0.3,0.9c0.1,0.8,1.4,4,1.6,4l0.8,0l-0.3-1.5c-0.2-1.7-0.1-3.3-0.4-5.3l0.4-0.2l-0.4-5c-0.1-0.8-0.5-2.9,0.8-2.7
			l-0.2-1l0.3,0c-0.2-2.4,0-4.6-0.3-7.1l0.5-0.3c-0.1-0.7,0.2-1.4,0.2-2.1h0.1l0-0.6c0.2,0,0.7,0.1,0.6-0.2l0-0.4l-0.9-0.3l-0.2-1.5
			c-0.1-0.7,0.2-1.3,0.1-2.1l0.8,0l0,0.3c0,0.3,0.2,0.5,0.5,0.5c0-0.3,0-0.7,0.3-0.9c0-0.3,0.2-0.3,0.2-0.5l0-0.2l-0.6-0.4l-0.3-0.4
			H203l0-0.3h0.9l-0.5-1c0.1-0.4,0.4-0.7,0.7-0.8c-0.2-1-0.8-2.2-0.6-3.1c-0.3-0.2-0.5-0.7-0.5-1c0.3,0,0.6-2.5,0.6-2.8
			c0.3-0.2,0.4-0.6,0.3-1l0.9,0.1l0-0.7l0.4,0c0.4,0,0.4-0.1,0.4-0.5l-1.5-0.3c-0.1-0.9,0.6-3.8,1.6-3.7l0,0.3
			c0,0.3,0.2,0.5,0.5,0.5c0-0.4,0-0.7,0.3-1c0-0.4,0.4-0.3,0.4-0.7c0-0.3-0.5-0.4-0.7-0.4l-0.3-0.4l-0.3-0.1
			c-0.7-0.1-0.4,1.4-0.8,1.4l0-0.2v-1.1l0.7-0.8l0,0.4l1.3,0.1l-0.4-1l0.3-0.6l0.4-0.2c-0.1-0.5,0-1.3-0.5-1.8l0.2-0.1l-0.1-0.2
			l1.3-0.3l0.4-0.6c-0.8,0.2-1.4,0.2-2,0.1v0c0.3,0,0.6-0.1,0.8-0.1l0.8,0c0.6-0.4,1.8,0.2,2.4-0.3c0.2-0.1,0.6-0.1,0.7-0.1
			c0-0.1-0.1-0.1-0.3-0.1l-1,0.1l-0.4-0.1l0.5-0.2c0.3,0,0.6,0,0.7-0.2l0.7,0c0,0.1,0.5,0.1,1-0.1c0.4,0.1,1.2,0.2,1.6,0
			c0.1-0.2,0-0.3,0.2-0.6c0.4,0,0.8,0,1.3-0.1c0.2-0.1,0.4-0.2,0.4-0.3l0.2-0.2c2,0.5,4.2-0.3,6.1,0.1c0.3-0.2,0.6-0.3,1.1-0.3
			c0.6-0.6,2-0.3,2.9-0.2c-0.1-0.8,1.1-0.7,1.9-0.6l-0.3,0.7c0.2,0.6-0.5,0.8-0.4,1.3l-0.5,0.4l-0.2,0.8l-0.7,0.5l0.2,0.9
			c-0.2,0.5-0.4,1.1-0.3,1.6l-0.3,0.2l-0.6,1.5l0.1,0.9h-0.3c-0.4,0-0.4,0.2-0.4,0.4c-0.2,0.1-0.3,0.3-0.3,0.5
			c0,0.1,0.1,0.1,0.2,0.1l0.8,0.7c0.1,0.6-0.1,1,0,1.6c-0.2,0-0.4,0.1-0.4,0.3h-0.2c-0.2,0.1-0.2,0.1,0,0.2h0.1
			c0,0.3,0.1,0.6,0.1,0.9c-0.2,0-0.6,1.2-0.7,1.5c0.2,0.9-0.7,1.2-0.5,1.9l-0.4,0.8l0.1,0.2h-0.2c-0.5,0.4-0.6,1.4-1.3,1.9l-0.2,1.2
			l0.6,0.5l0.5-0.1l0,0.9l0.9,0.3c-0.1-0.6,0.2-1,0.5-1.4c0,0.2-0.1,0.5,0,0.6l-0.3,0.5c0.5,0.4-0.9,1.1-0.4,1.6
			c0,0.2-0.1,0.4-0.1,0.5c0.1,0,0.3-0.1,0.3-0.2l0.2-0.6l0.2-0.2l0.2,0.7l-0.4,0.5c-0.2,0-0.3,0.3-0.2,0.6c-0.2,0.2-0.8,0.8-0.5,1
			c0.2,0.1,0.6,0,0.9,0.1c-0.1,0.2-0.4,0.5-0.3,0.8c0,0.2,0.2,0.2,0.4,0.2l0.5,0.2c-0.1,0.2-0.1,0.5-0.3,0.7l1,0.2
			c-0.1-0.3,0.1-0.5,0.3-0.7c-0.3-0.2-0.6-0.4-0.9-0.4c0-0.3-0.1-0.7,0.1-0.9c-0.1-0.2,0.1-0.4,0.2-0.6c0.2,0.2,0.5,0.3,0.7,0.2
			l0.3-0.1l-0.8-0.3c0.3-0.1,0.5-0.1,0.7-0.1c0.8,0,0.5-1.3,1.2-1.3l0.2,0.2c-0.1,0.5-0.3,0.8-0.5,1.3l-0.7,0.5
			c0.5,0.3-0.6,2.9-0.8,3.2c0.1,0.2,1.1,1,0.8,1.2c-0.2,0.1-0.3,0.2,0,0.5c-0.5,0.5-0.6,1.9-0.6,2.3c0.5,0.5-0.2,1.4-0.5,1.6
			c-0.4,0.4-0.1,0.6,0.3,1c0.3,0.2,0.4,0.2,0.6-0.1c0.3-0.1,0.4-0.4,0.2-0.6l-0.2-0.4c0.7-0.3,1.2-1,1.2-1.7
			c0.5-0.5,0.7-1.1,1.2-1.5c-0.1-0.1-0.2-0.2-0.2-0.3c0.2-0.2,0.4-0.1,0.1-0.4l0.1-0.5l1.1-0.7l0.3-0.1c0.1,0.1,0,0.3,0,0.4
			c-0.3,0.1-0.2,0.5,0.2,0.8c0.6,0.5,2.1,0.3,2.7,0.3c-0.3,0.1-0.3,0.5,0.1,0.8l-0.3,0.5c0.1,0.2-0.2,0.5-0.4,0.8
			c0.2,0.1,0.4,0.2,0.2,0.4c-0.2,0.2-0.3,0.2-0.1,0.4c-0.3,0.9-0.2,1.8-0.5,2.8c-0.3,0.2-0.6,1,0,1.4c0.1,0.1,0.3,0.2,0.5,0.1
			c0.5-0.4,0.1-2,0.5-2.3c0.6-0.4,1.1-0.4,0.2-1c0.5-0.3,0.5-0.8,1-1.2c-0.2-0.2-0.2-0.4-0.1-0.6h0.1l-0.3-1.2
			c0.3-0.1,1.2-0.4,0.6-0.9c0-0.1,0.2-0.2,0.3,0c0.1,0.1,0.3,0.5,0.3,0.6c-0.4,0.1-0.2,0.5-0.4,0.8l0.2,0.9l-0.6,0.4l0.5,0.6
			c-0.5,0.5-0.7,1.2-0.7,1.9c-0.5,0.4-0.3,0.8,0.2,1.3l-0.4,1.5c0.3,0.2-0.1,1.6-0.3,1.9c0.5,0.4-0.5,0.5,0.1,0.9
			c-0.3,0.2-0.2,0.5,0.2,0.8l1.1-0.8c-0.3-0.6,0.6-0.8,0.3-1.3l0.2-0.6c-0.2-0.2-0.1-0.4,0.1-0.5l0.5-0.4l0.4-1.4
			c0-0.2,0.3-0.5,0.4-0.7c-0.2-0.2-0.2-0.3,0-0.5l0.5-0.5c0.2,0.2-0.1,0.6-0.2,0.9c0.2,0,0.1,0.2,0.2,0.3c-0.3,0.1-0.5,0.1-0.2,0.4
			c-0.1,1.2-0.7,2.5-0.6,3.7c-0.1,0.2-0.1,0.4,0.3,0.6h0.1c-0.3,0.3-1.1,2.3-0.9,2.6c0.2,0.1,0.6,0,0.8-0.1l0.3-0.5
			c0.2-0.2,0.3-0.5,0.2-0.7c0.5-0.3,0.4-0.8,0.8-1.1l2.4-5c0.3-0.1,0.6-0.4,0.2-0.7c0.3-0.2,0.5-0.5,0.4-0.8
			c0.4-0.4,0.7-1.9,0.6-2.2l0.8-1.3l-0.2-0.6c1-0.7,0.8-2.2,1.6-3c-0.1-0.3,0.2-0.5,0.2-0.7l0.6-1.2c-0.1-0.2-0.3-0.3,0-0.5
			c0.2-0.3,0.8-0.4,0.7-1c-0.3-0.2-0.1-0.5,0.1-0.6c-0.2-0.6,0.4-1.7,0.8-2.2c-0.2-0.1-0.3-0.2-0.2-0.3l0.3-0.2c0.1,0,0.2,0,0.3,0.1
			c0-0.6,0-1.6,0.2-2.6c0.3-0.4,0.4-0.9,0.3-1.5l0.2-0.5l0.3-0.6c-0.1-0.3,0.3-0.5,0.2-0.8l0.4-1l0.3-0.2l0.2-0.6
			c0.4,0,0.4-0.1,0.3-0.3c-0.1-0.2,0.2-0.2,0.4-0.2c0-0.2-0.1-0.6-0.1-0.9l0.1-0.7c0.1-0.1,0.2-0.2,0.1-0.2h0.1c0-0.1,0-0.2,0-0.3
			c0-0.1,0.1-0.2,0.2-0.2c-0.1-0.2-0.1-0.4-0.1-0.6c0-0.1,0.1-0.2,0-0.2l0.3-0.2c0.2-0.5,0.5-0.8,0.3-1.4c0.1,0,0.5-1.2,0.4-1.4
			c0.2-1.1,0.6-2.2,1.1-3.1c0-0.2-0.1-0.2,0-0.4l0.1-0.2c-0.1-0.1-0.1-0.1-0.1-0.2c0-0.2,0.2-0.4,0.5-0.4c-0.1-0.4,0.5-0.5,0.4-0.8
			l0.2-0.6c-0.1-0.6,0.5-0.6,0.4-1.2c0-0.2,0.2-1.9,0.3-1.9c-0.1-0.3,0.2-0.3,0.1-0.6c0.5,0,0.6-0.3,0.4-0.6l0.2-1.6
			c0.1-0.2,0.4-0.5,0.6-0.6l0.1-0.7c-0.1,0-0.3,0-0.3-0.2c0-0.1,0.2-0.2,0.3-0.3c-0.3-1.3,0.9-2.6,1.2-3.7c0.6,0,0.3-0.5,0.2-0.8
			c0,0,0.6-2,0.6-2.2l0.5-1.1c-0.1-0.6,0.6-0.5,0.4-1.1c-0.1-0.2,0.1-1.6,0.2-1.8l0.2-0.5c0.5,0,0.5-0.3,0.3-0.6
			c0.1-0.5,0.1-1.4,0.4-1.8l0.4-0.1l0.1-0.7c0,0-0.3,0-0.3-0.1c0-0.2,0.2-0.2,0.3-0.3c-0.3-1.2,0.8-2.3,1-3.4c0.5,0,0.4-0.4,0.3-0.6
			c0.7,0.1,1.6-0.1,2.1-0.2c0.1,0.1,0.2,0.1,0.3,0c0.2-0.1,0.7-0.7,0.5-0.9c-0.1-0.1-0.3,0-0.3,0.1l-0.8,0c-0.3,0.1-0.5,0.2-0.9,0.1
			c-0.2,0.1-0.4,0.2-0.7,0.3c0.1-0.3,0.2-0.7,0.2-1.2c0.4,0.5,0.5,0.6,1,0.3c0.5-0.3,2.1-0.6,2.7-0.7l0.7,0l0.2,0.5l-1.9,0.9
			c0.5,0.6,1.4-0.2,1.7,0.2h1.6c0.5-0.3,1.1,0.1,1.5-0.1l0.7,0.2l0.9-0.1l0.9,0.3l0.8-0.4c0.6,0,1.3,0,1.7-0.2l0.4,0.2h1.8l0.8-0.3
			l0.1,0.1c-0.1,0.2-0.1,0.4-0.2,0.5c-0.6,0-0.3,0.5-0.2,0.8c0,0-0.6,2-0.6,2.2l-0.5,1.1c0.1,0.6-0.6,0.5-0.4,1.1
			c0.1,0.2-0.1,1.6-0.2,1.8l-0.2,0.5c-0.5,0-0.5,0.3-0.3,0.6c-0.1,0.5-0.1,1.4-0.4,1.8l-0.4,0.1l-0.1,0.7c0,0,0.3,0,0.3,0.1
			c0,0.2-0.2,0.2-0.3,0.3c0.3,1.2-0.8,2.3-1,3.4c-0.5,0-0.4,0.5-0.2,0.7c-0.1,0.1-0.8,3.3-0.7,3.6c-0.6,0.2,0.2,1.2-0.4,1.4
			c0.1,0.6-0.7,1.5-0.6,2l-0.2,0.3c0.3,1-0.3,1.6,0,2.6l-0.2,0.5c-0.3,0-0.9,1.5-0.8,1.9c-0.5,0-0.3,0.7-0.2,0.9
			c-0.2,0.2-0.2,0.5-0.1,0.8l-0.2,0.4l-0.3,0.2l-0.3,2.4l0.2,0.4c0.1,0.2,0,0.5-0.3,0.5l-0.3,0.8c0.1,0.5-0.3,0.2-0.2,0.9
			c0.1,0.2,0,0.5-0.3,0.5c0.1,0.6-0.1,0.9,0.1,1.5c-0.9,1.1-1.7,3.7-1.3,5.1c-0.6,0-0.2,0.6-0.2,0.9l-0.2,0.7c0.1,0.2,0,0.6-0.1,0.7
			l-0.1,0.8l0.3,0.1c0.2,0,0.3-0.1,0.2-0.3c0.3-0.3,0.6-0.8,0.5-1.3c0.3-0.1,0.2-0.5,0.1-0.7c0.5-0.4,0.9-1.1,1.2-1.6
			c0.4-0.3,0.8-0.8,0.7-1.2l0.3-0.2l-0.2-0.6c0.3-0.1,0.3-0.5,0.2-0.8l0.6-0.3c-0.1-0.3-0.1-0.7,0.2-0.9c-0.1-0.4,0.7-0.9,1-1.1
			l-0.1-0.2c0.1,0,0.4,0.4,0.4,0.5c-0.5,0.1-0.9,0.6-0.8,1.1c0.1,0.6,1.9,0.6,2.3,0.6l2.4,0.1c0,0,0.2,0,0.2,0.1
			c0.1,0.4-1.7-0.2-1.6,0.7c0.2,0.1,0.9,0.4,0.9,0.6c0,0.1-0.2,0.1-0.2,0.1c-0.2,0.2-0.6,0.4-1,0.4c-0.2,0.2-0.5,0.3-0.8,0.3
			c0,0.2-0.5,0.3-0.7,0.3l0.3,0.7c1,0,2.1,0.7,3.1,1l4,0.2l0.3,0.8l-0.4,0.6l0.2,0.9c-0.5,0.2-0.9,0.7-1.1,1.2l-0.6,0.3
			c-0.4,0-0.4,0.2-0.3,0.4c0,0.2,0,0.2-0.2,0.2l-0.3,0.9c0.1,0.7-0.7,1-0.6,1.7c-0.2,0.2-0.3,0.5-0.6,0.6c-0.9,1-0.8,2.6-1.7,3.7
			c0,0.2-0.3,1.4-0.4,1.5c0.1,0.5-1,1.4-0.9,2.2c0.4,0.6,1.2,0.6,1.8,0.6c0.4,0,0.7-0.1,0.6-0.5l0.6-0.4c1.2,0,1-1,1.8-1.6
			c0-0.1-0.1-0.3,0.1-0.3c0.3,0,0.7,0.4,1.1,0.4l0,0.1c0.1,0.3-0.1,0.6-0.5,0.6l0.2,1.6c0,0.2,0.2,0.3,0.4,0.3
			c0.8,0,1.5-0.8,1.4-1.5c0.4,0,0.8-0.1,1-0.3c0-0.5,0.3-1.2,1-1.2c0.1,0,0.6,0,0.6-0.1c-0.1-0.3-1-0.2-1.1-0.4
			c0-0.2,0.2-0.5,0.4-0.6c-0.1-0.6,1.3-0.5,1.1-1.4l0.3-0.1c0.2,0,0.4,0.1,0.5,0.3l0.4,0.3c-0.1,0.6-0.5,1.1-0.4,1.6
			c-0.4,0-0.4,0.2-0.3,0.5c0,0.1-0.1,0.2-0.2,0.2l0.2,0.7l-0.4,0.6c-0.9,0-0.2,1.8-0.2,2.2c0,0.2-0.1,0.3-0.4,0.3
			c0.1,0.7-0.6,0.9-0.5,1.6c-0.4,0-0.3,0.3-0.2,0.6c-0.5,0.7-0.9,1.5-1.3,2.2c0.1,0.3,0.5,0.4,0.8,0.4h0.2l0.7-0.7l0.7-0.2l-0.1-0.4
			c0-0.2-0.1-0.6,0.3-0.6l0.3-0.6c-0.1-0.3,0.2-0.2,0.6-0.2c0.4,0,0.2-0.3,0.2-0.5c-0.1-0.3,0.1-0.5,0.4-0.5l0-0.7
			c-0.1,0-0.2,0-0.2-0.1c0-0.2,0.3-0.4,0.4-0.1l1.4-1c-0.1-0.4,0.3-0.6,0.2-1l0.9,0.3c0.5,0,0.7,0.4,1.2,0.4c0.4,0,0.7-0.2,0.6-0.6
			c0.7,0,0.7-0.1,0.6-0.6c1.1,0,0.6-0.6,0.8-1.3c-0.2,0-0.3,0-0.3-0.2c0-0.2,0.9-1,1-1.1c1,0,1.6-0.7,1.5-1.5l1.2-1.4
			c0-0.2-0.1-0.5,0.1-0.5c0.5,0,0.8,0.4,1.2,0.5c0.2,0,0.2-0.2,0.1-0.3l0.8-0.7c0.5,0,0.7-0.2,0.6-0.6c-0.1-0.7,0.2-1.3,0.1-2
			c1.1,0,0.2-1.3,1-1.3c-0.1-0.6,0.7-0.1,1.1-0.1c0.7,0,0.5-0.6-0.1-0.9c-0.1-0.5,1.2-0.6,1-1.5l0.6,0.1c0.3,0,0.8-0.7,0.7-1
			c0.2-0.2,0.4-0.5,0.7-0.6l2.7,0.1l0.6-0.6l2.5,0.1c0.2-0.2,1-0.7,1.1-0.1l0.3,0.1c0.3,0,0.5-0.1,0.4-0.4l0.6-0.5l0.6-1.2
			c0.1,0,0.2,0.3,0.2,0.3c0.1,0.5,0.8,1,1.4,1c0.7,0,1.6,0.2,1.5-0.6l0.4-0.2l-0.1-0.7c0.8,0,0.6,0.2,0.7,0.6c0.1,0.3,0.8,0.4,1,0.4
			c0.3,0,0.7-0.1,0.8-0.3c0.8,0,1.2-0.2,2.1-0.2c0.3,0,0.4-0.1,0.3-0.3c1.3,0,2.7-0.2,3.8-0.2c0.4,0,0.4,0.3,0.5,0.5
			c-0.1,0.3-0.3,0.7-0.2,1.1l0.2,0.1l0,0.9l-0.3,0.3c1.1,5.4,0.5,11.4,0.8,16.7c0.3,0.2,0.5,0.5,0.6,0.8c-0.4,0-0.4,0.3-0.4,0.6
			c0.2,0.8,1.3,5.6,2.2,5.6l0.1,1l-0.3,0.6c0.2,0.4,0.6,0.6,0.7,1l0.9,0.1c0.6,1.8,1.1,3.5,2.2,5.4c0.7,0-0.6-2.8-0.6-3.2
			c0-0.1-0.1-0.5,0.1-0.5c0.2,0,0.6,0.7,0.8,0.9l0,0.1c0,0.2,0.3,0.5,0.7,0.5l0,0.2c0,0.2,0.3,0.4,0.6,0.5l2,4.8
			c0.7,0.5,1.2,3.2,1.4,3.8c0.4,0-0.4-2.2-0.5-2.7c-0.2-1.2,0.8-0.1,0.4-1.8c-0.3-1.3-0.8-2.7-1.1-4c0-0.2,0.5-0.2,0.7-0.2l-1.2-4.6
			c0,0,0-0.2,0-0.2c0.1,0,0.3,0.3,0.3,0.4c0,0.2,0.8,4.2,2,4.2l0.4-0.1l-0.4-1.2c0,0,0-0.2,0-0.2c0,0,0.4,0.7,0.5,0.8l2.4,9.1
			c0,0.1,0,0.2,0.1,0.2c0.2,0,0.4-0.8,0.5-1l-0.4-1.6c0-0.1,0-0.2,0.1-0.2c0.3,0,0.5,0.1,0.8,0.3c0.8,1.5,0.8,4.1,2,5.2
			c-0.2,0.2-0.3,0.5-0.2,0.8c0.2,0.7,1.6,3.6,1.8,3.6l0.7-0.1l-0.4-1.3c-0.3-1.6-0.4-3.1-0.9-4.8l0.4-0.2l-0.8-4.6
			c-0.2-0.7-0.7-2.7,0.5-2.5l-0.3-0.9h0.3c-0.4-2.1-0.4-4.2-0.9-6.5l0.4-0.3c-0.1-0.7,0-1.3,0-2h0.1l0-0.6c0.2,0,0.6,0,0.6-0.2
			l-0.1-0.3l-0.8-0.2l-0.3-1.4c-0.1-0.7,0-1.2-0.1-1.9l0.7-0.1l0,0.2c0,0.2,0.2,0.4,0.5,0.4c0-0.2,0-0.7,0.2-0.8
			c0-0.2,0.1-0.3,0.1-0.5l0-0.2l-0.6-0.4l-0.3-0.3h-0.1l0-0.3l0.8-0.1l-0.6-0.9c0-0.3,0.3-0.6,0.5-0.8c-0.3-0.9-0.9-2-0.9-2.8
			c-0.3-0.2-0.5-0.6-0.6-0.9c0.3,0,0.3-2.3,0.3-2.6c0.2-0.2,0.3-0.6,0.2-0.9l0.8,0l0-0.7l0.4,0c0.4,0,0.4-0.2,0.3-0.5l-1.4-0.2
			c-0.2-0.8,0.2-3.5,1.1-3.5l0,0.2c0,0.2,0.2,0.4,0.5,0.4c-0.1-0.3,0-0.7,0.2-0.9c-0.1-0.3,0.3-0.3,0.3-0.6c0-0.2-0.5-0.3-0.7-0.4
			l-0.3-0.3l-0.3-0.1c-0.6,0-0.2,1.3-0.6,1.3l0-0.2l-0.1-1l0.5-0.8l0.1,0.3l1.2,0l-0.5-0.9l0.2-0.6l0.4-0.2
			c-0.1-0.5-0.2-1.3-0.8-1.8c-0.4-2.1,0.9-1.9,2.9-1.9c0.4,0,0.9,0,1-0.3c-0.1-0.4,0.5-0.4,0.8-0.3c-0.2-0.7,3-0.8,3.3-1
			c1.3,0.4,2.6,0.1,3.9,0l0.3,0.8l0.9,0.7c0.3,0.8,0.3,1.5,1.5,1.7c0.3,1.3,3.4,3.1,5,3.6l-0.1,0.3l0.7,0.3c0,0.1,0.2,0.4,0.4,0.4
			l0.6,0l1.5,0.6c1,0.7,2.1,1,3.2,1.4l0.1,0.1l0.4,0c1.2,0,2.3,0.9,3.3,0.1l0.5,0.2c0.3,0,2.5,0.3,3.2,0.3l0.2-0.1
			c0.4,0,0.7,0.3,1.2,0c0.5,0.1,1,0.1,1.5,0l0.9,0.2c0.4-0.1,0.8-0.2,1.2-0.4c0.6,0.2,1.2,0,1.7,0l0.7-0.3l-0.6-0.2
			c0.3-0.2,0.8-0.4,1.3-0.4l0.7,0.4l-0.3,0.3c0.4,0.1,0.9,0.3,1.4,0.5l-1.1,0c-0.3,0-0.7,0.1-0.9,0.2c0.4,0.4,1.7,0.5,2.2,0.4
			c0.9,0-0.4-0.6,2-0.4l0.2-0.2l-0.5-0.4l0.7,0l0.6,0.2l-0.2-0.3c0.7-0.4,1.9-0.2,2.8-0.4l0.3,0.3l0.6-0.1l-0.6-0.2h-0.3
			c1.2-0.4,3.1-0.9,4-1.4l-0.2-0.2c0.2-0.4,1.8-0.7,2.2-0.9c0.5,0.2,1.6,0.3,2,0.2l1.9-0.7l0.2-0.3l1.6,0.2l0.4-0.4l0.7,0.1
			c-0.1-0.7,1.2-0.9,1.8-1l1.1-0.7l1,0l0.2-0.1l-0.1-0.1c-0.1-0.2,1.6-0.9,1.9-0.9c-0.2-0.5,5.8-2.4,5.5-3.2l-1.3-0.6
			c0.5-0.3,2.1-1.1,1.9-1.7c1.3-0.3-0.2-0.7,2.1-0.2l0-0.1l0.5-0.4l0,0.1c0.2,0.7-2.1,1.4-2.7,1.6l-0.3,0.7c0.4,0,0.9-0.1,1-0.4
			c1.6,0,1.6-1.3,2.4-1.4l1.6-1.4c-0.1,0.5-0.2,1.1-0.3,1.2l-0.2,0.6c-0.5,0-0.5,0.4-0.4,0.7c-0.1,0.5-0.2,1.6-0.5,2.1l-0.4,0.2
			l-0.2,0.8c0,0,0.3,0,0.3,0.1c0,0.2-0.2,0.3-0.3,0.4c0.2,1.4-0.9,2.7-1.2,4c-0.5,0-0.4,0.5-0.3,0.8c-0.1,0.1-0.9,3.9-0.9,4.2
			c-0.7,0.3,0.1,1.4-0.5,1.6c0.1,0.6-0.8,1.7-0.7,2.4l-0.2,0.4c0.2,1.2-0.4,1.8-0.2,3l-0.2,0.6c-0.3,0-1,1.8-0.9,2.2
			c-0.5,0-0.4,0.8-0.2,1.1c-0.2,0.2-0.2,0.6-0.1,0.9l-0.2,0.5l-0.4,0.3l-0.4,2.8l0.2,0.5c0,0.3,0,0.5-0.3,0.6l-0.3,0.9
			c0.1,0.6-0.4,0.3-0.2,1.1c0,0.3,0,0.5-0.3,0.5c0.1,0.6-0.1,1.1,0,1.7c-1,1.3-1.8,4.4-1.5,6c-0.6,0-0.3,0.7-0.2,1.1l-0.3,0.8
			c0,0.3,0,0.6-0.2,0.8l-0.1,0.9l0.3,0.1c0.2,0,0.3-0.2,0.2-0.4c0.3-0.4,0.6-1,0.5-1.5c0.3-0.2,0.2-0.5,0.2-0.8
			c0.5-0.4,1-1.4,1.3-1.9c0.4-0.4,0.8-0.9,0.7-1.5l0.4-0.3l-0.1-0.7c0.3-0.2,0.3-0.6,0.2-0.9l0.6-0.4c-0.1-0.4,0-0.8,0.2-1
			c-0.1-0.5,0.7-1.1,1.1-1.3l0-0.3c0.1,0,0.4,0.6,0.4,0.6l-0.2,0.7c0.1,0.4,0.1,0.6,0.5,0.6h0.3l-0.2-1c0.7,0,1-0.6,1.7-0.6
			c0.5-1.8-0.1-2.6,1.7-3.3l-0.2-1.2c0.5-0.3,0.9-0.8,0.8-1.4c0.8,0-0.2-1.7,0.7-1.6c0.1,0.4,0.5,0.5,0.5,0.8c0,0.3,0,0.6-0.3,0.7
			c0,0.2,0.3,1.3-0.1,1.3c-0.1,0.2-0.3,2,0.4,2l-0.2,0.7c-0.3,0.2-0.4,0.4-0.6,0.7l0.1,0.8l-0.6,0.4l0.2,0.9l-0.3,0.4h0.4l-0.2,0.9
			c1,0.5-0.3,0.4-0.6,0.4c-0.3,0-0.4,0.2-0.3,0.4c-0.3,0.4-0.1,1.4-0.3,1.9l0.8,0.3l0.5-0.8c-0.1-0.4,0.3-0.5,0.6-0.4
			c-0.1-0.4,0-0.7,0.2-1l-0.1-0.7c0.3-0.4,0.5-0.7,0.4-1.3l0.4-0.6v-1.1c0.1-0.1,0.3-0.3,0.5-0.3c0.5,0,0,1.1,0,1.4l0.9,0l-0.2-0.4
			c0-0.3,0.2-0.4,0.4-0.4c0.2-0.2,0.4-0.4,0.7-0.5l0.2-0.7l1-0.1l0.4-0.2c0.4,0,0.2-0.3,0.2-0.5c0-0.1,0.1-0.2,0.2-0.3
			c0.1-0.1,0.2-0.6,0.3-0.6c0.1,0,0.1,0.2,0.1,0.2c0.1,0.8-0.4,1.5-0.3,2.2c0,0.2,0.2,0.3,0.4,0.3l0.5,0.7l0.6-0.5
			c-0.1-0.5,0.3-0.5,0.2-1.1h0.4c0.8,0-0.6-1.1,0.7-1.1c0.3-0.4,0.7-0.8,1.1-1.2c-0.1-0.7,0.3-1.2,0.6-1.7c0.4,1.3,0.1,1.7,0.2,2.4
			l0.7,0l1-0.5c-0.1-0.1-0.4-0.3-0.5-0.4c0-0.2,0.3-0.2,0.4-0.2l0.4-1.8c0.3-0.4,0.6-0.9,1.1-1.3c0.1-0.6,0.4-1.2,0.3-1.8
			c0.1-0.6,0.5-1.8,1-2.3l0-1.9l0.4-0.4l0.5,0.5l0.2,0.4l-0.3,1.5c-0.1,0-0.6,0-0.6,0.2c0,0.1,0.2,0.2,0.4,0.3l-0.2,0.8l0.6,0.7
			c0.3-0.5,0.3-1.3,0.2-1.8l0.7,0.2c-0.1-0.5-0.4-0.7-0.5-1.2c0.4-0.6,0.7-1.5,0.6-2.3c-0.1-0.5-1-0.5-1.4-0.5H435
			c0.1,1.2-0.8,2.1-1.1,3.2c0,0,0,0.3,0,0.3c0,0-0.4-0.6-0.4-0.7c0.5,0,0.6-1.1,0.6-1.5c0.4-0.7,0.7-1.5,1.2-2.3
			c-0.1-0.7,0.5-1.1,0.4-1.7l0.8,0.3l-0.3,0.6l0.5,0.8c-0.2,0.2-0.5,0.6,0.1,0.6c0,0,0,0.2,0.1,0.2c0.1,0,0.3-1,0.4-1.2l0.3-0.1
			l0.1,0.5c1,0,0.4-0.7,1-0.7l0-0.7l-0.4-0.6l0.1-0.4l0.4-0.3l-0.2-0.2l0.4-1.3l0.5,0.2l-0.2-1c0.6,0,0.6-0.1,0.5-0.6
			c0.4,0,0.4-0.3,0.3-0.5c-0.1-0.4,0.3-0.5,0.2-0.9h-0.1l0.2-0.7c-0.1-0.4,0.3-0.5,0.2-0.9c0.1-0.6,0.4-2,1.1-2.4l-0.2-1.3l0.5-0.1
			l0.6-0.8c0.1,0.1,0.3,0.4,0.3,0.5c-0.2,0.5-0.4,1.2-0.3,1.7c-0.1,0-0.7,0-0.7,0.2c0,0.1,0.2,0.2,0.4,0.3l-0.1,0.9l0.6,0.7
			c0.3-0.4,0.4-1.4,0.2-2c0.2,0.2,0.5,0.4,0.8,0.4c0.3,0-0.5-1.3-0.6-1.5c0.5-0.7,0.8-1.4,0.7-2.5l-0.8-0.7l0.2-0.4l0.4,0.1
			c0,0,0,0.3,0.2,0.3c0.3,0,0.5-1.1,0.5-1.4c0.4,0,0.7-0.6,1-1.3c0.1,0.1,0.2,0.3,0.3,0.5c1.4,0.3,2.4,1.1,3.6,1.7
			c1-0.2,1.5,0.6,2.5,0.4c2.1,0.2,3.8,1.3,5.8,1.5c0.1,0.3,0.2,0.3,0.6,0.2c0.9-0.2,0.3,0.9,1.4,0.6c0.6-0.1-0.1,0.9,1.2,0.7
			c0.3,0,0.4,0,0.5,0.2c1.6,0.4,3.2,1.1,4.6,1.7c0.4-0.1,0.8,0,1,0.3l1.3,0.7c0.5-0.1,0.6,0.3,1.1,0.2l2.3,0.8l0.1,0.2
			c0.1,0.4,0.5,0.6,0.8,0.5l1.1,0.2c0.8-0.2,2.9,1.1,3.7,1.4c0.5-0.1,0.9,0.3,1.4,0.2c0.4,0.1,1,0.1,1.5,0l0.7,1.2
			c1-0.2,1.9,0.5,2.9,0.3c0.3,0.9,1.8,0.6,2.1,1.5c0.6-0.1,2.4-0.4,2.7,0.4c1.8,0.2,3.3,1.2,5,1.4c0.2,0,0.4,0,0.6,0l0,0.1l-0.9,0.5
			h-0.2c-0.4,0-0.6,0.3-1.1,0.2c0.1,0.3-0.4,0.3-0.7,0.3l0.1,0.3c-0.6,0-1.8-0.3-1.9,0.3c-1,0-1.6,0.5-2.7,0.4
			c-0.2-0.1-0.4-0.4-0.5-0.4c-0.4,0-0.1,0.6,0,0.7l-0.4-0.1c-0.4,0-0.5,0.1-0.3,0.4l-0.7,0.5c-0.5-0.3-0.9-0.5-1.4-0.6
			c-0.6,0.2-2.1,0.2-2.4,0.7c-0.8,0,0.2,0.7-0.5,0.8l0,0.3l-0.9,0l-0.2,0.3l-1,0c0.1,0.3-0.6,0.2-0.7,0.2c0.2,0.4-1.6,0.3-1.8,0.3
			l0.2,0.4c-2-0.1-3.1,1.1-4.8,1c-0.6,0-0.2,0.7-1.2,0.6c-0.4,0.2-0.8,0.2-1.2,0.2l-0.4,0.4c-2.4-0.1-0.5,0.7-1.5,0.6l-0.1,0.7
			l1.9,0.1c0.3,0.7,0.9,0.1,1.3,0.9c0.4,0,0.6,0.3,0.7,0.6l0.2,0.4c-1,0.4-2.4,0.5-3.6,0.6l-1.5-0.3c0.1,0.3-1.3,0.3-1.7,0.3
			l-0.5,0.5c1,0,2.2,0.5,3.2,0.6l0.2,0.4c0.2,0,0.3-0.2,0.3-0.3c4,1.2,1.4-0.9,2.7-0.5c0.4,0.1,1.4,0.5,1.7,0.5
			c0.8,0,0.5-0.7,1.4-0.8l1.6,0.7c2-0.8,1.8-0.7,4.8-0.7c0.2-0.5,0.9-0.3,1.6-0.2c-0.2-0.5,2.6-0.1,2.1-1c0.4,0,1.9,0.2,2,0.3l0,0.2
			c-1.2-0.1-2.1,1-3.4,1c-2.1,0.9-0.8,1.1-4.1,0.5l0.4,0.7c0,0.1-0.6,0.4-0.5,0c-0.6,0.1-1.4,0.2-2.1,0.1l-0.1,0.5l-1.7,0.5
			l-1.1-0.2c-1.7,0.8-4.9,1-7.1,0.8c-0.1,0.1-0.1,0.2-0.1,0.3c0.2,0.4,0.9,0.8,1.1,1.1c0.1,0.2-0.8,0.1-0.9,0.1
			c-1,0.4-5.5,0.4-5.2,1.1l-1.6-0.1c-0.2,0-0.4,0.1-0.3,0.3c0.1,0.3,0.7,0.8,1,0.8c0.1,0,0.1-0.2,0.1-0.3h8.4
			c-0.1-0.4,0.4-0.4,0.9-0.4c0.1,0,1,0,0.8-0.3c0.7,0.1,2.6,0.5,2.4-0.4c2.2,0.1,3.8-0.5,6.1-0.3c-0.4-1,4.4-0.9,4.9-0.8
			c0.1-0.2,0.8-0.1,1-0.1c0.5-0.8,4.6-0.3,6-0.9c0.1,0.3-0.8,0-0.4,0.8c-0.3,0-0.8,0-1,0.2c-0.8,0.1-4.1,0.2-4.4,0.6l-0.9-0.1
			l0.1,0.4l-2.1,0.7c-0.7-0.1-1.9-0.5-2.6-0.5c-0.8,0,0.4,0.9-0.9,0.8l-1,0.4l-1.6-0.1c0,0.2-0.1,0.6,0.1,0.9c0.2,0.4,1.1,0,1.3,0
			c0.5,0,0.5,0.3,0.6,0.5c0.1,0.3,0.4,0.4,0.8,0.4c0.5,0,1-0.1,1.4-0.2c0.4,0.1,0.8-0.1,0.6-0.5c3,0.4,6.1,0.7,9,0.9
			c0.6,0,2.6-0.2,2.6-0.6c0.6-0.1,1.3,0.1,2,0.1c0.1,0,0.5,0,0.4-0.2c1.3,0,2.1-0.3,3.5-0.2l1-0.4l1.1,0.2l1.2-0.5l1.6,0.1l0.7-0.4
			l1.6,0c0.2,0,0.7,0,0.7-0.2l1.1-0.8l2.1-0.3c-0.3-0.6,0.6-0.3,1-0.3l0.2-0.3c0.4,0,1.7,0.2,1.4-0.3l0.4-0.3c0.5,0,0.7-0.3,1-0.5
			l0.6,0.1c0.6,0,1.2-0.1,1.5-0.4c0.8,0,2.3,0,2.8-0.4l1.6,0.2c0.9-0.4,1.8-0.6,2.4-1.2c0.8,0,1.7,0,2.4-0.3
			c-0.2-0.5,0.8-0.3,1.2-0.1l0.3-0.4c0.7,0,1.3-0.1,1.8-0.3l0.2-0.5l1.8-0.2l0.5-0.4l1.5-0.1c-0.1-0.5,0.6-0.7,1.1-0.7
			c0.2,0-0.1-0.2-0.1-0.2h0.2l0.9-0.4l1.5,0.1c0.2-0.1,0.4-0.2,0.7-0.4c2,0.6,4.8,1.4,5,1.4c0.1,0,0.2-0.2,0.2-0.4l-2.2-1.4
			c-0.6,0.1-1-0.3-1.7-0.1l-0.1-0.1c0.2-0.1,0.3-0.3,0.5-0.4c1.3,0.1,2.2-0.4,3.2-0.7l0.3-0.4c0.8,0,1.9-0.3,2.1-0.8l1.5-0.4
			l0.4-0.6l1.5-0.2l0-0.4l1-0.3l0.1-0.2l1.2,0l0.4-0.8l0.1,0.4l0.8,0.9l0.8-0.5l-0.5-0.6l-0.1-0.4c0.6-0.1,1.4-0.2,1.9-0.5
			c0.4,0.5,0.6,1.1,0.8,1.6l2.2-0.4l0.6-0.5c-0.5-0.6-1.1-1.4-1.4-2c0.4-0.1,0.8-0.2,1.2-0.4l-2-1.3c-0.5,0.2-0.8,0.6-1.1,0.9
			l-1.1-0.4c0-0.7,0.6-1,1.4-1l0.4-0.8c1-0.2,1.8-0.5,2.7-0.8l0.4-0.9l-1.1-0.3c0.8-0.1,1.7,0,2.5,0l-0.2-0.1l0.5-0.8l1.1-0.4
			l0.7,0.9c-0.6,0.2-1.2,1.2-1.3,1.7l-1.6,0.2l-0.8,0.9c-0.7,0-1.1,0.3-1.4,0.6l0.9,1.1l-0.2,0.4c0.6-0.2,1.2-0.5,1.7-0.7l1.7,0.4
			l0.6-0.9l-0.8-0.4l1-0.9l0-0.7c0.9,0,1.9-0.1,2.5-0.4l0.9,0.5c-0.1-0.6,0.2-1.3,0.6-1.7l1.1,0.8l0.5-0.4c0.6,0.2,1.1,0.3,1.8,0.4
			l1-0.4l-2.1-0.5l-0.8-0.8l1.2-1.7l1.1-0.2l0.8-0.6l0.8,0l-0.4-0.8c0.3,0.1,0.8,0.4,1.2,0.4c0.6,0,0.4-0.7,0.2-1l-0.1-0.2l-1.2,0.5
			l-0.4-1.5l1.3-1.1l0.5,0.4l-0.1,0.7l0.8,0.2c2.1-0.8,1-1.3,4.3-0.7l1.8-1.9c-0.2-0.2-0.5-0.3-0.7-0.3c-0.9,0-1.2,0.7-1.7,1
			l-0.6-0.3l-0.4-0.8c0.2,0.2,0.3,0.2,0.6,0.2c0.4,0,0.9-0.8,1.1-1l0.2-0.9c0.6,0.3,1.2,0.6,1.7,0.8l0.3-0.3
			c0.2-2.1,0.3-3.2,0.1-5.4l-0.8-1c0.6-1.5-0.2-3.1,0.3-4.6l-0.9-0.7c0.6-0.1,0.1-1-0.2-1.5l0.5-0.7c-0.7-0.8-1.6-1.5-2.5-2.2
			l-0.2-0.8c-1.4-0.6-1.7-1.9-2.2-2.9l-1.5-1.1l0.8-0.2l-0.1-1l-0.8-1.2l-1.5-0.6l0,0.3l-0.6-0.6h-0.1c-1.5-2.3-6.1-4.1-8.7-5.9
			l-1.5-0.6c-0.7-0.4-1.4-1.1-1.9-1.6l-1.2,0l0-0.1l-1.2-1.1c-0.5,0-1-0.2-1.4-0.2l-0.9-1.1l-1.3-0.1l-0.9-0.5
			c-0.2-0.2-0.4-0.5-0.5-0.8c-1.4-0.2-1.9-0.1-3.3-1.1l-0.3-0.4l-1-0.8H543l-0.4,0.8l0-0.1l-1.3-0.8h-0.1l-1.2-0.5l-0.2-0.7
			l-1.2-0.5l-1,0.3l-2.4-0.7l-0.7-1.1l-1.1-0.5l0,0.1l-0.4,0.8l-1.2-1c-0.8-0.2-1.6-0.6-2.4-0.9l-0.5-0.4c-1.2-0.1-2.2-0.3-3.5-0.8
			l-0.9-1l0.1-1c1,0,2,0,2.2-0.8c0.7,0,1.3,0.1,2,0.2l1-0.4c0.7,0,1.2-0.1,1.7-0.3l-0.6-0.6l-0.2-0.5l1,0.7c0.6-0.1,1.5,0,2.2,0
			L533,183l0.2-0.5l1,0.5l1.9-1.1c0.5,0.1,1.1,0.3,1.6,0.3c1.2,0.1,2.3-0.3,3.4-0.2l0.8-0.3l1.3,0.2l0.3-0.4l1.4-0.1l0.8-0.6l0.3,0
			c1.9,0.1,3.2-1.5,5-1.4c1.4,0.1,2.9,0,4-0.1l0.6-0.4h-0.1l-1.2-0.5l-0.5,0.2c0.1-0.3,0.7-0.4,0.8-0.7c1.7,0.1,2.9-0.5,4.7-0.4
			c0.5,0,1-0.1,1.4-0.1l0.6-0.4l-1.3-0.4c-0.5,0.1-1.1,0.2-1.7,0.1l-0.3-0.4l0.4-0.8l-1-0.7l-1.1,0.2c-0.5-0.4-1.3-0.8-1.9-1.1
			c-1.9-0.5-3.6-0.1-5.2-0.1l-0.5-0.3l0.9-0.5c0.7,0.1,1.4,0.1,1.9-0.1l0.4-0.7c-0.6,0-1.4-0.1-1.9,0l-0.7-0.3l-0.2-0.6
			c1,0,1.9-0.1,2.9-0.1l1.3,0.1l0.8-0.6l-1-0.5l-0.1-0.3l-1.3-0.1l-0.6-1.1l0.6-0.7l0.6,0c0.3-0.4,0.8-0.7,1.3-0.9l0.8,0.6l0.4-0.3
			l-0.3-0.6l1.4,0.3c1.8-1,4-0.7,6.5-0.7c0.3-0.4,1-0.3,1.6-0.2l0.2-0.6c-1.6-0.2-3-0.2-4.6-0.2l-6.4-0.8c-2.2,0.2-4.6,0-6.7,0.2
			l-0.3-0.3c-6.6,0.3-13.7-0.2-20,0.6c-0.9,0.1-2.1,0.8-2.7,0.8l-0.8-0.6l-0.6,0.5l-1.4-0.3c-0.5,0.2-1.1,0.4-1.7,0.2l-0.7,0.7
			l-1.6-0.1c-2.7,1.3-4.2,2.1-7.6,2.5l-0.3,0.5c-0.2,0.1-1,0.5-1.3,0.3l-0.8,0.6l-1.2,0c-1.4,0.8-2.7,1.7-4,2.6l0.2,0.1
			c-1.2,0.5-2.2,0.9-2.6,2c-1.4-0.1-1.6,1.3-1.8,2.1l-1.7,0.7l0.1,1.2c-0.2,0.5-0.7,0.9-1.2,1.2l0,0.7l-0.5,0.4l0.5,0.5h-0.1l-1,0.4
			c0,0.2-0.1,1,0.1,1.2l-0.2,0.9c0.8,1.3,0.4,2.4,0.3,3.4l0.4,0.8c0.1,0,0.7,0,0.7,0.2l0.6,1.1c0.8,0.7,1.4,1.4,1.9,2.2l1.1,0.4
			c0.2,0.6,0.8,1.6,1.4,2.1c1.2,0.9,2.5,1.5,3.6,2.3l-0.4-0.9l-1.3-0.8l-0.1-0.9l0.1,0.2c0.9,0.7,1.7,1.4,2.4,2.2l0.3,0.8l1.4,1
			l0.6-0.5l1,0.8c0.5,0.1,1.5,0.8,2.1,1.1c0.2-0.1,0.6-0.2,0.8-0.2c1.1,0.3,2.2,0.3,3.3,0.8c0,0.4-0.5,0.7-0.7,1
			c1,0.5,2.1,1.1,3.2,1.5l0.8,0l0.8,0.9c0.3-0.1,2.5,0.7,3.1,0.9l0.3-0.2l-0.2-1l1.3,0.4l0-0.1l-0.6-1.1l-1.1,0l-1.5-1l-1.1,0
			l-1.1-0.4l-0.4,0l-1.2-0.9l-1.2-0.5l0-0.4l0.4,0.4c1.9,0.5,3.5,0.5,5.5,1.8l1.4,0.4c1.1,0.9,2.3,1.8,3.4,2.5h1.9l1,0.4l-0.2,0.9
			l-1.7-0.1c-0.5-0.3-1.2-0.6-1.7-0.7l-0.3,0.6l1.1,0.7h0.1l0.9,0.8c0.5,0.1,1,0.3,1.5,0.5l1.2,0.1c3.7,2,7.3,3,11,4.8
			c1,0.2,2,0.6,3,0.9c0.9,1,2.1,1.9,2.9,2.9l-0.2,0.1c0.1,0.2,0.1,0.5,0.3,0.8l-0.4,0.8l-1,0c-0.4,0.7-1.1,2.4-1,3.4h-0.2l-0.4,0.9
			l-0.7-0.1l-0.9,0.5l0.2,1c-0.2,0.5-0.8,1.1-1.4,1.3l-0.2,0.7c-0.3,0.3-1.9,0.8-2.4,0.7c-0.2,0.5-0.7,0.9-1.3,1.1l0.1,0.2
			c-0.5,0.4-1.2,0.7-1.9,0.8c-0.5,1.1-1.9,1.6-3.3,1.8l-0.2,0.8l-1,0.1l0,0.4l-0.6,0l-0.7,0.8l-2.4,0.2l0.2,0.4
			c-0.6,0.1-1.1,0.4-1.5,0.8l-1,0l-0.2,0.4c-0.7,0.3-1.7,0.3-2.1,0.8c-0.8,0.2-1.6,0.4-2.2,0.9l0,0.3c-0.6,0-1.7-0.7-2-0.4l-0.2,0.8
			l-0.5,0.1l-0.7-0.1c0.6,0.8-1.3,0.7-1.9,0.8l-0.8,0.8c-0.2-0.1-0.3-0.2-0.4-0.2c-0.6,0.1-0.5-0.4-1.1-0.2
			c-0.2-0.6-4.9-2.2-5.1-2.9c-0.7-0.4-2.1,0.1-2.4-0.9c0-0.1,0.1-0.2,0.2-0.3c0.9-0.2,3.3,0.7,4.2,1.1c0.5-0.1,0.6,0.3,1.1,0.2
			c0,0.1,0.1,0.4,0.3,0.4c0.1,0,0.3-0.4,0.2-0.5l1.4-0.3l0.9,0.3l0.4,0.4l2.4,0.8c0.4-0.1,0.7-0.3,0.9-0.5c0.1,0,0.3-0.2,0.3-0.3
			c-0.1-0.3-0.5-0.7-0.8-0.9c-1.8-0.1-2.1-1.4-4-1l-0.6-0.3c-0.4,0.1-0.7,0-0.5-0.4c-0.1,0-0.4,0-0.4-0.1c0-0.1,0.1-0.1,0.2-0.2
			c0.5-0.1,1-0.1,1.5,0c0.5-0.1,0.6,0.3,1.1,0.2c0,0.1,0.1,0.4,0.4,0.4c0.1,0,0.2-0.4,0.2-0.5c0.9-0.2-0.1-1.7,1.1-1.9
			c1.7,0.1,3.3,0.6,4.8,1.2c0.2,0.3,0.7,0.2,1,0.1c0.2,0.7,0.9-0.1,1.2,0.7c1-0.2,1.8,0.6,2.8,0.4c-0.2-0.7-1.7-1-2.4-0.9
			c-0.3-0.9-2.1-0.3-2.4-1.1c-1.4-0.6-3.2-1.3-4.7-1.8c-0.9,0.2-1.5-1-2.5-0.8c-1.3-0.2-2.8-0.7-3.7-1.5c-0.4,0.1-1,0.2-1.5,0
			c-1.3,0.2-1.1-1-2.3-0.8l-2.5-0.5c-0.2-0.6-1.9,0.3-2.3-0.8l-1-0.3c-0.2,0-0.8,0.2-1-0.1l-1.4-0.5c-0.2-0.6-0.5-0.5-1.2-0.3
			c-1.2-0.4-2.5-1.2-3.8-1l-0.9-0.7c-0.3-0.9-1.9,0.3-2.3-0.9c-0.1-0.4-0.4-0.3-0.7-0.2c-0.1,0-0.2,0-0.3-0.2l-1.2-0.4
			c-0.5,0.1-0.9-0.3-1.4-0.2l-1.3-0.2l-1-0.6c-1,0.2-1.4-0.6-2.4-0.4c-0.7-0.4-1.2-0.9-1.8-1.4l-1.3-0.2c-0.3-0.9-2-0.1-2.3-0.8
			c-0.6,0.1-0.9-0.3-0.9-0.7l-1.5,0.1c-0.9-0.3-3.3-1.6-4.2-1.4c-0.4,0.1-0.3,1.3-0.2,1.6c0.1,0.3,0.5,0.4,0.9,0.3
			c0.3,0.9,2.3,0.6,2.6,1.3c0.1,0.3-0.1,0.5-0.4,0.5c-0.5,0.1-1.1-0.1-1.6-0.3c-0.9,0.2-1.9-0.8-2.5-1.2c-0.1,0-0.5,0.1-0.5,0
			c-0.1-0.3,0.5-0.6,0.4-0.8c0,0,0-0.1-0.2-0.1l0.1,0c0.4-0.1,0.2-0.6,0.1-0.8l0.1-0.8c-1-0.6-2.6-1.4-3.7-1.5c-0.6,0.1-1-0.3-1-0.7
			l-0.9,0.6l-1.1-0.5l-0.2-0.5c0.4-0.2,0.8-0.3,1.3-0.4c0-0.2,1.9-0.8,2.3-0.8c0.5,0.1,0.7-0.1,0.7-0.6c1.3-0.4,2.3-1,3.5-1.7
			l1.4,0.2c0-0.7-0.2-1.1,0.7-1l0.4,0c-0.1-1,2-0.1,1.9-1.5l1.6,0.1c-0.3-0.6,0.1-0.9,0.7-0.8c0.5-0.5,1.2-0.9,1.9-1.2l0.7-1
			c2.1,0.2,6-3.5,7.4-4.7c1.1,0.1,1.1-1.7,2.3-1.6l0.2-1c0.6,0.1,0.8-1.1,0.8-1.5c0.4-0.2,0.5-0.6,0.4-1l-0.3-2.1
			c-0.6-0.1-0.9-0.4-1.5-0.5c-0.7-0.8-1-2.1-1.2-2.9c-0.5,0.1-1-0.1-1-0.7c-0.2,0-0.5-0.1-0.5-0.4c0-0.2,0.1-0.4-0.3-0.5
			c-0.5-0.4-1.3-0.8-1.7-1.4c0-0.2,0-0.6,0.3-0.5c0.4-0.3,0.6-0.9,0.5-1.3c0-0.2,0-0.5-0.3-0.5c-0.5-0.1-0.8,0.5-1.5,0.4
			c-0.4,0-0.4-0.5-0.4-0.7c0-0.6,0.4-0.8,0.9-0.7l0.1,0l-0.3-1.4c-0.2,0-0.9-0.1-0.9-0.5c0-0.5,0.7-0.8,1-1l-0.1-1.7l-2.4-0.3
			c-0.4,0.3-0.8,0.5-1.3,0.4l-0.5,0.3c-0.2,0-0.6,0-0.6,0.3v0.1l-0.8,0.6l-2.2,0l-0.7,0.8l-1.5-0.2c0,0.7-3,2.9-3,3.5
			c-1.2,1.1-2.2,2.3-3.1,3.6c0.1,0.9-2.1,0.2-2,1l-2,1.3c0,0.6-3.4,3.2-3.4,3.2c-0.5,0.3-1,0.9-1.2,1.5c0,0,0,0-0.1-0.1h-0.1v0
			l0.1-0.2c-0.2-0.7,0.5-0.8,0.4-1.4l0.5-0.4l0.2-0.6c0.7-0.5,1.2-0.9,1.2-0.9l0.4-1.8H458c0-0.2,0-0.4,0-0.6l0.3-0.2l0.6-1.5l0,0
			c0.1-0.2,0.3-0.4,0.5-0.6l0.1-0.5c0,0,0-0.1,0-0.1l0-0.2c0.2-0.1,0.3-0.3,0.2-0.4c0-0.1-0.1-0.1-0.1-0.1v0l-0.6-0.6l-0.2,0
			l-0.1-0.1c-0.1-0.6,0.1-1.1,0-1.6c0.2,0,0.4-0.1,0.4-0.3h0.2c0.2-0.1,0.2-0.2,0-0.2h-0.1c0-0.3-0.1-0.7-0.1-0.9
			c0.2,0,0.6-1.3,0.7-1.5c-0.2-0.9,0.7-1.2,0.5-1.9l0.4-0.8l-0.1-0.2h0.2c0.5-0.5,0.6-1.5,1.3-2l0.2-1.2l-0.6-0.5l-0.5,0.1l0-0.9
			l-0.9-0.3c0.1,0.6-0.2,1-0.5,1.5c0-0.2,0.1-0.5,0-0.6l0.3-0.6c-0.5-0.4,0.9-1.2,0.4-1.6c0-0.2,0.1-0.4,0.1-0.5
			c-0.1,0-0.3,0.1-0.3,0.2l-0.2,0.6l-0.2,0.2l-0.2-0.7l0.4-0.6c0.2,0,0.3-0.3,0.2-0.6c0.2-0.2,0.8-0.8,0.5-1c-0.2-0.1-0.6,0-0.9-0.1
			c0.1-0.2,0.4-0.6,0.3-0.9c0-0.2-0.2-0.2-0.4-0.2l-0.5-0.3c0.1-0.2,0.1-0.5,0.3-0.7l-1-0.2c0.1,0.3-0.1,0.6-0.3,0.7
			c0.3,0.2,0.6,0.4,0.9,0.4c0,0.3,0.1,0.7-0.1,0.9c0.1,0.2-0.1,0.4-0.2,0.6c-0.2-0.2-0.5-0.3-0.7-0.2l-0.3,0.2l0.8,0.3
			c-0.3,0.1-0.5,0.2-0.7,0.2c-0.8,0-0.5,1.4-1.2,1.4l-0.2-0.2c0.1-0.5,0.3-0.9,0.5-1.4l0.7-0.6c-0.5-0.3,0.6-3,0.8-3.3
			c-0.1-0.2-1.1-1-0.8-1.2c0.2-0.1,0.3-0.2,0-0.5c0.5-0.5,0.6-1.9,0.6-2.3c-0.5-0.5,0.2-1.5,0.5-1.7c0.4-0.4,0.1-0.6-0.3-1
			c-0.3-0.2-0.4-0.2-0.6,0.2c-0.3,0.2-0.4,0.4-0.2,0.6l0.2,0.4c-0.7,0.3-1.1,1-1.2,1.8c-0.5,0.5-0.7,1.1-1.2,1.6
			c0.1,0.1,0.2,0.2,0.2,0.3c-0.2,0.2-0.4,0.2-0.1,0.4l-0.1,0.6l-1.1,0.8l-0.3,0.2c-0.1-0.1,0-0.3,0-0.4c0.3-0.1,0.2-0.5-0.2-0.8
			c-0.6-0.5-2.1-0.3-2.7-0.3c0.3-0.2,0.3-0.5-0.1-0.8l0.3-0.6c-0.1-0.2,0.2-0.6,0.4-0.8c-0.2-0.1-0.4-0.2-0.2-0.4
			c0.2-0.2,0.3-0.2,0.1-0.4c0.3-1,0.2-1.9,0.5-2.9c0.3-0.2,0.6-1,0-1.5c-0.1-0.1-0.3-0.2-0.5-0.1c-0.5,0.4-0.1,2.1-0.5,2.4
			c-0.6,0.5-1.1,0.5-0.2,1c-0.5,0.3-0.5,0.9-1,1.3c0.2,0.2,0.2,0.4,0.1,0.6h-0.1l0.3,1.2c-0.3,0.2-1.2,0.5-0.6,1
			c0,0.1-0.2,0.2-0.3,0c-0.1-0.1-0.3-0.5-0.3-0.7c0.4-0.2,0.2-0.5,0.4-0.8l-0.2-0.9l0.6-0.4l-0.5-0.7c0.5-0.5,0.7-1.3,0.7-1.9
			c0.5-0.4,0.3-0.9-0.2-1.3l0.4-1.5c-0.3-0.2,0.1-1.7,0.3-2c-0.5-0.4,0.5-0.5-0.1-1c0.3-0.2,0.2-0.5-0.2-0.8l-1.1,0.9
			c0.3,0.6-0.6,0.8-0.3,1.4l-0.2,0.6c0.2,0.2,0.1,0.4-0.1,0.6l-0.5,0.4l-0.4,1.5c0,0.2-0.3,0.6-0.4,0.7c0.2,0.2,0.2,0.3,0,0.5
			l-0.5,0.5c-0.2-0.2,0.1-0.6,0.2-0.9c-0.2,0-0.1-0.2-0.2-0.3c0.3-0.2,0.5-0.2,0.2-0.4c0.1-1.2,0.7-2.6,0.6-3.8
			c0.1-0.2,0.1-0.4-0.3-0.7h-0.1c0.3-0.3,1.1-2.4,0.8-2.7c-0.2-0.1-0.6,0-0.8,0.2l-0.3,0.6c-0.2,0.2-0.3,0.5-0.2,0.7
			c-0.5,0.3-0.4,0.8-0.8,1.2l-2.4,5.2c-0.3,0.2-0.6,0.4-0.2,0.7c-0.3,0.2-0.5,0.5-0.4,0.8c-0.4,0.4-0.7,1.9-0.6,2.3l-0.8,1.4
			l0.2,0.6c-1,0.8-0.8,2.3-1.6,3.1c0.1,0.3-0.2,0.6-0.2,0.7l-0.6,1.3c0.1,0.2,0.3,0.3,0,0.5c-0.2,0.3-0.8,0.5-0.7,1
			c0.3,0.2,0.1,0.5-0.1,0.6c0.2,0.7-0.4,1.8-0.7,2.3c0.2,0.1,0.3,0.2,0.2,0.3l-0.3,0.2c-0.1,0-0.2,0-0.3-0.1c0,0.6,0,1.6-0.2,2.7
			c-0.3,0.4-0.4,1-0.3,1.5l-0.2,0.5l-0.3,0.6c0.1,0.3-0.3,0.5-0.2,0.8l-0.4,1l-0.3,0.2l-0.2,0.6c-0.4,0-0.4,0.1-0.3,0.3
			c0.1,0.2-0.2,0.2-0.4,0.2c0,0.2,0.1,0.6,0.1,0.9l-0.1,0.7c-0.1,0.1-0.2,0.2-0.1,0.2h-0.1c0,0.1,0,0.2,0,0.3c0,0.1-0.1,0.2-0.2,0.2
			c0.1,0.2,0.1,0.4,0.1,0.6c0,0.1-0.1,0.2,0,0.2l-0.3,0.2c-0.2,0.5-0.5,0.9-0.3,1.5c-0.1,0-0.5,1.3-0.4,1.5
			c-0.2,1.1-0.5,2.3-1.1,3.2c0,0.2,0.1,0.2,0,0.4l-0.1,0.2c0.1,0.1,0.1,0.1,0.1,0.2c0,0.2-0.2,0.4-0.5,0.4c0.1,0.4-0.5,0.5-0.4,0.9
			l-0.2,0.6c0.1,0.6-0.5,0.6-0.4,1.2c0,0.2-0.2,1.9-0.3,2c0.1,0.3-0.2,0.3-0.1,0.6c-0.5,0-0.6,0.3-0.4,0.6l-0.2,1.6
			c-0.1,0.2-0.4,0.5-0.6,0.6l-0.1,0.5l0,0c-1.1,0.2-1.8-1.4-2.8-1.2l-0.1-0.2c-0.2-0.7-0.8-0.5-1.5-0.4l-0.5-0.4
			c-0.7-0.2-2.2-0.7-2.4-1.3c-2,0.4-3.4-1.4-5.4-1c-0.1-0.3-0.4-0.4-0.8-0.3l-0.8,0.2l0.2,1.2c-0.4,0.1-0.8,0.3-0.9,0.6l-1.6-0.5
			l-0.5-0.4l-1.3-0.2c-0.8,0.2-1.3-0.7-2.3-0.5c-0.6-0.1-1.3-0.2-1.8-0.1c-0.4,0.1-0.6,0.2-0.5,0.6c-1.4,0.3-2.9,0.1-4.4,0.4
			l-1.1,1.6c0.5,1.6-0.9,0.6-1.9,0.8c-0.6,0.1-0.8,0.4-0.6,0.9c0.3,1,1.4,1,2.4,1.2l0,0.1c0.1,0.4,0.5,0.7,1,0.6
			c0.8,0.3,1.3,0.9,1.8,1.5c0.2,0.1,0.6,0.1,0.6,0.3c0.1,0.3-0.8,0.8-0.6,1.4l-1.4,2.1c-0.3,0.3-0.3,0.8-0.2,1.2
			c1.2,0.6,2.4,1.3,3.5,2c1.1-0.2,1.6,0.9,2.6,0.7l2.3,1.4c0.1,0.4,0.5,0.6,1,0.7c0.1,0.2,1.1,0.1,1.3,0.7c0.1,0,0.2,0,0.3,0
			c0,0,0,0,0,0.1h-0.2c0.1,0.2,0,0.7-0.3,0.4l-0.7,1c-0.8,0.1-0.7,0.8-1.5,0.8l-0.4,0.3c-0.2,0.1-0.6-0.1-0.7-0.2l-0.8,0.8
			c-1.4,0-4.3,1.6-5.4,2.4c-0.4-0.2-0.9-0.1-1.3,0l-0.2-0.2c-0.8,0-1.5,0.7-2.9,0.8l-0.3,0.4l-0.5-0.2c0.1,0.2-0.3,0.4-0.4,0.2
			l0,0.7h-0.1l-0.5,0.4c-1,0-0.7,0.6-1.9,0.7c-0.6,0-0.5,0.4-1,0.5l-0.5-0.4c-0.6,1.5-4.2,0.9-3.8,2.1l-0.5,0l-0.2,0.4l-1.2,0
			c-1.3,0-0.3,1.8-1.1,1.8l-0.8-0.3l0.8-0.4l-1.8-0.7l-1,0l-0.4-0.3c-0.7,0-0.5,1-3.7,1.1l-0.1-0.7l-1.6,0.2c-0.9-0.8-1.8-0.6-2.3-2
			l-1.1,0.2c-0.3-0.5-0.9-2-1.4-3.3l-0.5-1.7c0-0.3,0-0.4,0-0.5c-1-1.8-0.2-3.1-3.1-4.4l0.4-0.6l0.9,0.3c0.2,0,0.3-0.1,0.2-0.3
			c-0.2-1.1-0.8-1.9,0.9-2.1l-0.1-0.3c-0.4-1.2,1.2-7.8,2.3-7.9l0.1-0.5l-0.4-0.6l0.5-0.9l-0.7-0.1l0.6-0.8l-0.4-0.3l0.3-0.2
			c0.3,0.1,0.1,0.5,0.1,0.5h0.3l0.2-0.4h-0.1c0-0.1,0.1-0.1,0.2-0.1l0.9-1h0.3l0.2-1c0.4,0,0.8,0.4,0.9,0.7h0.2l0.5,0.2
			c1.1-0.1,0.5-1.6,1.6-1.7c0.4-0.6,1.1-1.4,1.9-1.6l0-0.7l0.5-0.1l0.1-0.2c0.3-0.2,0.5-0.6,0.6-1l0.5-0.4l0-0.2
			c1.1-0.2,1-1.1,1.9-1.2l0.3-0.8c0.6-0.1,1.1-0.5,1.2-0.9l1.1-0.6l0.3-0.7l0.5,0l0.3-0.5h0.1c0.2-0.2,3-1.9,3.2-1.9l0.4-0.7
			c1.6,0,1.2-1.2,2.1-1.2c0.5-0.4,1.3-1,2-1c-0.2-0.7,1.2-0.7,1.7-0.7c0.2-0.4,0.5-0.8,0.9-1.1c0.5,0,2,0.1,2.1-0.4l0.2,0.2
			l-0.1,0.3l0.1,0.4l-0.2,1l0.3,0.4c0,0.2,0.2,0.4,0.4,0.6l0,0.3l0.3,0.3l-0.3,0.6l0.3,0.2l-0.2,0.3l0.4,0.2l-0.2,0.3l0.6,0.6l0,0.3
			l1.2,0.8v0.3l0.5,0.4l-0.2,0.3l0.5,0.2c0.2-0.1,0.6,0.1,0.9,0.1l0.8-0.5l0.6,0.6l0.6-0.3L407,189l0.5,0.4l-0.2,0.3
			c0.1,0.1,0.8,0.6,0.9,0.3l0.7,0.2l0.6-0.6l0.7,0.3l1.5-1.1l0.6,0.1c0.6,0,1-0.5,1.2-1l0.6,0.1c0.2,0-0.2-0.2-0.2-0.2
			c-0.1-0.2,0.3,0,0.3,0.1c0.2-0.3,0.4-0.5,0.8-0.7l1,0.2l0.7-0.9l-0.3-0.3l1.1-0.9h0.2l0.7-0.7h0.2c0.1-0.1,0.8-2.2,0.7-2.3l0.6-1
			l-0.2-0.2l0.2-0.6l-0.1-0.3l0.5-0.8l-0.3-0.2c-0.2-0.6,0.3-1.2,0.7-1.7l-0.5-0.6c-0.2-0.7,1-1.5,0.7-2.7l0.8-1l-0.3-0.2
			c-0.2-0.6,0.5-0.9,0.8-1.4l-0.1-0.3l0.2-0.9l0-0.1l0,0.2l-0.8,1.2l0.1,0.1c-0.3,0.2-0.5,0.5-0.6,0.9l0.2,0.1l-0.9,1.5
			c-0.9,1.5-1.2,2.9-1.9,4.6c-0.1,0.1-0.1,0.3-0.3,0.3H418l0.2-0.3c-0.1,0-0.5,0.1-0.5-0.1c0.2-0.5,0.1-1.1,0.5-1.6l-0.3-0.2
			c-0.1-0.2,0.2-0.5,0.3-0.6l-0.1-0.2l0.2-0.8l0.5-0.5c0-0.2,0-0.4-0.1-0.6c0.2-0.3,0.4-0.5,0.5-0.9c0.2,0.2,0,0.8,0,0.9l0.2,0.1
			l0.7-0.7l-0.3-0.2l0.7-0.8l-0.3-0.2c0-0.1,0.1,0,0.1,0l0.3-0.6l-0.2-0.2c0-0.2,0.6-1.4,0.5-1.6c0-0.1-0.4-0.1-0.4,0.1l-0.2-0.2
			c-0.1-0.3,0.8-0.5,1-0.8l1.8-2.2l-0.4-0.2l-0.7,0.4l-0.2-0.2l1.1-1.7l-0.2-0.2l0.8-1.5l0.4,0.2l0.5-1l-0.4-0.2
			c-0.1,0-0.2,0.1-0.3,0.1c-0.2,0.4-0.7,1.4-1.3,1.4l-0.1-0.1l1.2-1.8l0.3-0.1l0.6,0.2c0.5-0.5,1.9-2.3,1.8-2.9l-1.3-0.9l0.3-0.9
			l-0.2-0.2l0.1-0.6l-0.5,0.5l-0.1-0.1l0.6-1h0.2l0.4-0.4l-0.2-0.2c0.2-0.4,1.2-0.5,1-1.1l-0.1-0.1l-0.4-0.6
			c-0.3,0.4-0.8,1.6-1.4,1.6l-0.1-0.1l-0.5,0.5l-0.9,0c-0.6,1.5-1.7,2.8-2.7,4.1l-0.3-0.1l-0.3,0.1l-0.2,0.4h-0.1l-0.1-0.1l0.4-0.8
			l-0.1-0.3c0.3-0.4,2.1-2.7,2.1-3c0-0.1-0.3-0.1-0.4-0.1l-0.8,1.5l-0.7-0.4c0.8-0.4,1.9-1.3,1.6-2.3l-0.2-0.2l0.3-0.3l-0.2-0.1
			l-1.1,1.3l0.2,0.2l-0.4,0.3l-0.2-0.1c-0.3,1.5-1.7,1.9-2.4,3l0.4,0.3l-0.4,0.4l-0.1-0.1l-0.5,0.2l-0.4-0.6l0.4-0.3l-0.2-0.2
			c0.3-0.2,0.8-0.5,0.7-1l-0.2-0.2l1.3-2l0-0.1l-0.7,0.7l-0.9-0.2c0.3-0.1,0.5-0.4,0.6-0.7l-0.2-0.2c-0.1-0.2,5.6-8.1,6.3-8.8l0-0.1
			l-0.2-0.1c-0.1,0,0,0.2-0.1,0.2l-0.4-0.2l-0.3,0.2l-0.1-0.1l-0.6,0.4h-0.1l-0.5,0.4l-0.2-0.1c-0.2,0,0.2,0.2,0.2,0.2
			c0,0.1-0.4,0.2-0.5,0.3c-0.4,0.4-0.9,0.8-1,1.3c-0.5,0.2-1.1,0.6-1.4,1l-0.2-0.2l0.7-1.6H419c-1.4,0-9.4,10.7-9.5,11.8l0.1,0.1
			l-0.2,0.6l0.2,0.1c0,0.2-0.3,0.5-0.7,0.4l-0.5,0.7c0,0.3-0.1,0.7,0.1,0.9l-1.7-1.2c-1.6,0-6.3,0.1-7.2-0.7c0.1,0.8-2.6,1-3.5,1.1
			c0.2,0.5-1.2,0.4-1.5,0.4l0,0.1c0.1,0.4-0.1,0.7-0.5,0.7c-1.9,0.1-3.7,1.4-4.9,1.4l-0.2-0.2l0.3-0.7l-0.2-0.1
			c-1.2,0-4,0.3-4.4,1.4l-1.9,0.1c0.2,0.6-0.4,0.8-1,0.6c-0.1,1-1.8,0.8-2.7,0.9c-1,0,0.8,1.1-1.5,1.2c-1.1,0-3.3,2.8-3.7,2.8
			l-0.4,0.4l-0.6,0.1l0,0.1l-0.4,0.4l0,0.3l-0.5-0.2c-0.2,0.4-0.5,0.7-0.8,0.9l0,0.1L371,173l-1.4,0.1c-0.9,0.1,0.8,1.2-1.4,1.3
			c-0.7,0-2.5,3.2-3.1,3.3c0.3,0.5-1.3,0.6-1.1,1.2c0.1,0.2,0.1,0.3,0.1,0.5l-1.1,0.5c0.3,0.7-0.2,1.3-0.8,1.6l0,0.2l-0.4,0.4h-0.3
			c-0.1,0.1-0.6,0.7-0.5,0.8l-0.2,0.5c-0.2-0.1,0.1,0.3-0.8,0.4l0,0.4h-0.3c-1.9,2-2.8,4.1-4.3,6.3c-1.4,0-0.1,2.1-1.8,2.5
			c-0.9,0.8-1.1,2.8-1.2,3.9c-0.8,0.4-0.8,1.5-0.4,2.3c-0.6,0.6-1.1,1.3-1.3,2.1l0-1l-0.7,1.4c-0.8,0.1-0.5,2.2-0.7,2.8l0.5,0.8
			c-1.2,0.1-0.9,0.7-0.6,1.5c0.3,0.9-0.7,1.5-0.4,2.7c0.1,0.4,0.1,2.6-0.4,2.7c0.2,0.5,0.4,0.9,0.6,1.4c0.1,0.3,0.4,1.7-0.1,1.8
			l-0.1,0.1l0.1,0.9c0.2,0.2,0.3,0.4,0.4,0.6c0.2,0.5,0,1.1-0.2,1.5c0,0.1,0,0.2,0.1,0.2c-0.9,0-0.5,0.9-1.4,0.8l-3.1-0.2l-0.4-2.2
			c1.2,0,0.4-2.5,0.3-3h-0.3c-0.1,0.3-0.3,0.6-0.3,1l0-0.2l0,0.2h0.1c-0.1,0.2,0,0.2,0,0.3l-0.1-0.3l-0.3,0.6l0,0.3
			c-0.1,0-0.4-0.6-0.4-0.7c-0.1-0.4,0.4-0.7,0.3-1.1c-0.2-0.3-0.6-0.4-0.9-0.4l0.3-0.3l0.2,0.1c0.4,0.4,0.8,0.9,0.9,1.4v-2l-0.8,0.3
			l0-0.1l0.3-0.6c0.2,0.1,0.5-0.1,0.7-0.1l0.2-0.6l-0.5-0.5c0.3-0.1,0.3-1.5,0.3-1.9c-0.3,0.5-0.9,1-1.4,1.3l0.3-0.7
			c-0.1-0.4,0.4-0.3,0.4-0.7l0.3-0.6c0.1-0.1,0.1-0.8,0.2-0.8l0,0.2l0.5,0.5l0,0.7l0.5,0.6c-0.1-0.5-0.6-2.1-0.1-2.3
			c-0.1-0.5-0.3-2.4,0.5-2.4l0.5-0.4c-0.1-0.5-0.5-1.4,0.1-1.7h-0.1c-0.3,0-0.4-0.4-0.4-0.6c0.1-0.5,0.5-0.9,1-1.1l0-1.6l0.5-0.4
			l-0.3-1.2l0.4-0.7l-0.3-1.4c0.4-0.2,0.4,0,0.8,0.1c-0.1-0.6,0.2-1.2,0.5-1.6c-0.2-0.3-0.2-0.7,0-1.1c0.4-0.3,0-1.3,0.4-1.4l-0.2-1
			l0.5-1c-0.1-0.1-0.2-0.3-0.3-0.4c-0.8-3.8,3.1-7.5,2.4-11.1l-0.6-0.7c-0.2,0.2-0.3,0.6,0,0.9c-0.1,0.4-0.6,1.4-0.4,1.9l-0.8,2
			c0.1,0.1,0.4,0.3,0.4,0.3c0,0.1-0.1,0-0.2-0.1h-0.1c-0.5,0-0.4,0.5-0.3,0.7l-0.3,1l-0.1-0.6c-0.4-1.9,0-2.8,0.8-4.5
			c-0.1-0.2-0.4-0.3-0.4-0.4c0-0.2,0.1-0.5,0.2-0.7c0.6-1.2,0.5-2.5,1-3.5c0.1-0.2,0.8-1.1,0.3-1.2c0.1-0.3,0.4-0.7,0.2-1.1
			c0.1-0.2,0-0.5-0.3-0.6c0.6-1.1,0.6-2.5,1.1-3.8l-0.2-0.3l-0.2,0.1c-0.1,0,0-0.4,0-0.5l-0.5,0.1l-0.7,0.4c-0.2,0.5,0.3,1,0.4,1.5
			l0,0.2h-0.2c-0.3,0-0.8,0-0.1,0.3l-0.3,0.6l-0.5,0.1l0.2,0.3c0,0.2-0.2,0.1-0.3,0.1l-0.1,0.6c-0.3,0.1,0,0.2,0.2,0.3l-0.8,1.5
			l-0.4,0.1l0.1,0.7c-0.2,0.7-0.8-0.1-0.6,1.2c0.1,0.3-0.4,0.6-0.8,0.7l-0.2,0.6c0.2,0,0.3,0.1,0.4,0.3l-0.1,0.2
			c-0.4,0.1-0.5,0.3-0.7,0.6h-0.1c-1.2,0-1.5,3.7-2.4,3.7c-0.2,0-0.4-0.1-0.6-0.2l0.4-0.8c0.1,0,0.7-0.1,0.3-0.2l0.2-1
			c-0.6-0.3-0.4-0.7,0.1-0.5c0.2-0.4-0.2-0.3-0.2-0.5c-0.1-0.6,1.3-1.7,1.1-2.6c0-0.2-0.1-0.3-0.2-0.4c0,0,0.1-0.2,0-0.2
			c-0.2,0-0.3,0-0.5,0.1c-0.6,0.6-0.6,0.5-0.5,1.2c0,0.1,0,0.2,0,0.2l-0.2-0.1c-0.7,0,0.1,2.7-1,2c-0.1,0.3,0.2,0.5,0.1,0.9
			c0.3,0.1,0.4,0.3,0.5,0.5l0,0.2c-0.1-0.1-0.2-0.1-0.3-0.1c-0.5,0,0.4,1.7-0.6,1.4c-0.6,0.6-1.1,1.4-1.5,2.1l-0.8-0.1
			c0.7-1.1,1.4-1.6,1.9-3c-0.1-0.1-0.2-0.3-0.2-0.3c-0.1-0.4,0.4-1.1,0.5-1.4l-0.2-0.3c0.1-0.3,0.9-1.8,0.9-2c0-0.1,0-0.2-0.1-0.2
			c-0.5,0-1.1,1.7-1.2,2l-1.7,0.3c-0.3,1.1-1.5,4.7-1.9,4.9c-0.3,0-0.6,0-0.8,0.1c-0.1,0.1-0.1,0.2,0,0.2l0.2,0.3l-0.1,0.5
			c-0.5,0-0.6-0.4-0.6-0.8c-0.5,0-0.7-0.3-0.4-0.6l-1.4-0.1c0.1-0.5,0.9-2.6,0.8-2.8c0,0,0-0.1-0.1-0.1c-0.2,0-0.5,0.2-0.6,0.3
			c-0.1,0.3-0.6,1.7-1.1,1.5l-0.5,0.7l-0.1-0.1l-1.9-0.7l-0.7,0c-0.4,0-0.8,0.1-0.7,0.4l0.4,0.4c-0.5,0.1-2.2,0.2-2.1,0.8
			c0,0.2-0.2,0.2-0.4,0.2l-0.2,0.3l-0.9,0l-0.7,0.6c0.1,0.4-0.4,0.5-0.8,0.4c0.1,0.7-1.9-0.1-1.7,0.8c0.1,0.7-1.4,0.8-2,0.8l0.1,0.3
			c0.2,0.8,0.2,1.2-1,1.2l-0.9,1.2c-0.7,0-1.2,0.9-1.5,1.3c-1.1,0-2.4,1.6-2.9,2.2c0.2,0.9-1.1,0-0.9,1c0,0.2-0.4,0.2-0.5,0.1
			c0.1,0.3-0.3,0.6-0.7,0.7c0.1,0.6-0.4,0.2-0.6,0c0,0.2-0.5,0.3-0.8,0.3l0.4,0.7c0.1-0.1,0.1-0.3,0.2-0.3c0.2,0,0.2,0.3,0.3,0.3
			l-0.6,0.6l-0.8,0.3l0.1,1c-0.4,0-0.7,0.1-0.9,0.3c-0.3,0-0.2,0.2-0.1,0.4c0,0.2-0.1,0.3-0.4,0.3c0.1,0.3-0.2,0.2-0.5,0.2
			c-0.2,0-0.2,0.2-0.1,0.3c0.1,0.3-0.4,0.2-0.3,0.6c-0.7,0.7-1.6,1.3-2,2.2c0.1,0.4-0.3,0.6-0.8,0.5c0.2,0.9-1.4,1.2-1.2,2.1
			c-0.5,0.4-0.9,0.8-1.3,1.3c0.1,0.3-0.3,0.3-0.3,0.7c-0.9,0.5-1.8,1.5-2.2,2.4c-0.6,0,0.1,1.7-0.7,1.6c-0.9,0-0.8,0.5-1.3,0.5
			l-0.2,0.4l-0.4,0.2l-0.3,0.6c0,0.2,0.1,0.7-0.2,0.7c0,0.3-0.4,0.6-0.8,0.6l-0.2,0.8c0,0.2,0,0.6-0.3,0.7l-0.5,0.6
			c-1,0-0.2,1.3-1.2,1.3c0,0.4-0.2,1.6-0.8,1.5c-0.2,0.3-1.1,1.8-1.6,1.9l-0.2,0.4c-0.1-0.2-0.2-0.3-0.3-0.5
			c0.4-0.5,0.7-1.2,0.5-1.9c-0.1-0.4-1-0.4-1.4-0.4l-0.5,0c0.2,1-0.8,1.8-1,2.7c0,0,0.1,0.2,0,0.2c0,0-0.4-0.6-0.5-0.6
			c0.5,0,0.6-0.9,0.6-1.2c0.3-0.6,0.7-1.3,1.1-1.9c-0.2-0.6,0.5-0.9,0.3-1.5l0.8,0.3l-0.3,0.5l0.6,0.7c-0.2,0.2-0.5,0.5,0.1,0.6
			c0,0,0,0.2,0.1,0.2c0.1,0,0.3-0.8,0.3-1l0.3-0.1l0.1,0.4c1,0,0.3-0.6,0.9-0.6l-0.1-0.6l-0.4-0.6l0.1-0.3l0.3-0.2l-0.2-0.2l0.3-1.1
			l0.5,0.2l-0.2-0.9c0.6,0,0.6-0.1,0.5-0.5c0.4,0,0.3-0.2,0.3-0.5c-0.1-0.3,0.3-0.5,0.2-0.8h-0.1l0.1-0.6c-0.1-0.3,0.3-0.5,0.2-0.8
			c0.1-0.5,0.4-1.7,1-2.1l-0.3-1.1l0.5-0.1l0.5-0.7c0.1,0.1,0.3,0.3,0.3,0.4c-0.2,0.5-0.3,1-0.2,1.5c-0.1,0-0.7,0-0.7,0.1
			c0,0.1,0.2,0.2,0.4,0.2l-0.1,0.8l0.7,0.6c0.3-0.4,0.3-1.2,0.2-1.7c0.2,0.2,0.5,0.3,0.8,0.3s-0.6-1.1-0.6-1.3
			c0.4-0.6,0.8-1.2,0.6-2.1l-0.8-0.6l0.2-0.3l0.4,0.1c0,0,0.1,0.2,0.2,0.2c0.3,0,0.5-0.9,0.4-1.2c1,0,1.2-2.7,1.3-3.1l-0.8-0.8
			c0.1-0.2,0-0.3,0-0.5c0.4,0.4,1,0.7,1.5,1l-0.2-0.9c0.7,0,0.7-0.1,0.5-0.6c0.2,0,0.5-1.1,0.5-1.3c-0.2-0.2-0.6-0.4-0.6-0.6
			c0-0.2,0.2-0.2,0.3-0.1c0.3-0.1-0.2-0.6-0.4-0.3c0-0.1-0.3-0.7-0.1-0.8l0.4-1.4h0.1l0.5-1.4l-0.1-0.8l0.7-0.2
			c0,0.2,0.1,0.9,0.5,0.9c0.2,0,0.2-0.2,0.2-0.4c0.4-0.5,0.6-1.1,0.8-1.6c-0.1-0.3,0.2-0.4,0.1-0.7c0.6-0.4,0.8-1.6,0.8-2.2
			c0.2,0,0.2-0.2,0.1-0.2c-0.1-0.2-0.5-1-0.9-1v-0.1c0.1-0.2-0.1-0.3-0.5-0.3c-0.2-0.1-0.4-0.1-0.5-0.1c0-0.5,0.1-1,0.1-1.2l0.3-0.5
			l0.6,0.2l0.5,2.2c0.9,0,0.2-1.2,0.9-1.2l0.6-1.3c-0.2-0.6,0.5-0.8,0.4-1.3l0.5-0.4l0.2-0.8l0.7-0.5l-0.2-0.9
			c0.2-0.5,0.4-1.1,0.3-1.6l0.3-0.2l0.6-1.5l-0.1-0.9h0.3c0.4,0,0.4-0.2,0.4-0.4c0.2-0.1,0.3-0.3,0.3-0.5c0-0.1-0.1-0.1-0.2-0.1
			l-0.8-0.7c-0.1-0.6,0.1-1,0-1.6c0.2,0,0.4-0.1,0.4-0.3h0.2c0.2-0.1,0.2-0.1,0-0.2h-0.1c0-0.3-0.1-0.6-0.1-0.9
			c0.2,0,0.5-0.9,0.7-1.3c0.2,0,0.4,0,0.5,0c0.4-0.1,0.7,0,1-0.1c1.1,0.3,2.8,0.1,3.7-0.1c0.2,0.1,0.3,0.1,0.4,0
			c0.3-0.1,1-0.7,0.7-0.9c-0.1-0.1-0.4,0-0.4,0.1l-1.1,0c-0.4,0.1-0.7,0.2-1.2,0.1c-0.6,0.3-1.5,0.4-2.4,0.2l-0.3-1.2l0.1,0
			c0.1,0,0.6,0.3,0.6,0.3c0.4,0.4,0.8-0.1,0.8-0.3l0.4,0c0.7,0.7,0.7,0.8,1.6,0.5c0.6-0.3,2.9-0.6,3.7-0.7l0.9,0l0.3,0.5l-2.7,0.9
			c0.7,0.6,1.9-0.2,2.4,0.2h2.2c0.7-0.3,1.4,0.1,2.1-0.1l0.9,0.2l1.2-0.1l1.2,0.3l1.1-0.4c0.8,0,1.8,0,2.4-0.2l0.6,0.2h2.5l1.1-0.3
			l0.2,0.2c0.3,0.3,0.6,0.2,0.9,0.1c0.2,0.1,0.7,0.1,0.8,0.1c0.1,0,0-0.1-0.1-0.2l0.3-0.7c0.6-0.3,1.5-0.2,2.1-0.4
			c0.2,0.1,0.4,0.2,0.7,0.2l0.2,0.1c0.2,0.1,0.3,0.1,0.4,0l-0.1-0.1c0.4-0.1,0.8-0.2,1.1-0.3c0.2,0.1,2.1,0,2.6,0.1
			c1-0.4,2.1,0.1,3-0.2l1.4,0l0.3-0.1l0.2,0.1c1,0.2,2.4,0,3.7,0.3l1.2-0.1c-0.2,0.1-0.3,0.2-0.5,0.2c0.2,0.1,0.2,0.2,0.3,0.3
			c0.1,0.3-1.1,2.6-1.1,2.8l0.1,0.7l-0.5,1.1l-0.5,0.1l-0.1,0.2c0,0.2,0.4,0.3,0.6,0.4c0.2-0.1,1.4-0.4,0.7-0.7l0.5-0.1
			c0-0.2-0.1-0.4-0.1-0.7c0-0.2,0.6-1.5,0.7-1.8c-0.1-0.2-0.2-0.3-0.2-0.5c-0.2-0.7,0.8-1.5,0.7-2l0.2-0.5l-0.5-0.3l1.2-0.3
			l-0.3-0.7c-0.6,0.3-1.6,0.1-2.3,0c0.4,0,0.7-0.1,0.9-0.2l0.9,0c0.2-0.5,2.3,0.3,2.4-0.2c0.2-0.1,0.6,0,0.7-0.1
			c-0.1-0.1-0.3-0.2-0.6-0.2l-1,0l-0.5-0.1l0.8-0.3l1,0.1c0.2,0.1,0.7,0.1,1,0c0.5,0.1,1.7,0.3,1.8,0.1c-0.1-0.2-0.4-0.4-0.6-0.7
			c0.4,0,1,0.1,1.4-0.1c0.2-0.1,0.2-0.2,0-0.3l0-0.4c0.4,0,0.7-0.1,1.2,0l-0.6-0.8c-0.4,0.1-0.8,0.1-1.2,0c-0.1,0.2-0.1,0.5,0.1,0.7
			c-0.4,0.1-0.9,0.3-1.2,0.2c-0.3,0.1-0.6,0-1,0c0-0.2,0.1-0.4-0.3-0.6l-0.4-0.1l0.2,0.6c-0.3-0.2-0.6-0.3-0.7-0.4
			c-0.6-0.5-2.2,0.1-2.7-0.4l0.2-0.2c0.7-0.1,1.4-0.1,2.2-0.1l1.2,0.3c0.1-0.4,4.4-0.4,5-0.4c0.1-0.1,0.4-1,1-0.9
			c0.2,0.1,0.6,0.2,0.6-0.1c1,0.2,3-0.1,3.6-0.2c0.3-0.5,2.1-0.2,2.6-0.1c0.8,0.2,1-0.1,1-0.5c0.1-0.2-0.1-0.3-0.6-0.3
			c-0.4-0.1-0.8-0.2-1,0l-0.4,0.2c-1-0.4-2.2-0.5-3.2-0.3c-1-0.2-2-0.2-3-0.4c0,0.1,0,0.2-0.3,0.2c-0.3-0.1-0.5-0.2-0.6,0l-0.8,0.1
			l-1.9-0.5l-0.4-0.1c0-0.1,0.4-0.1,0.5-0.1c0.3,0.2,0.8,0,0.9-0.4c0.2-0.6-1.2-1.5-1.7-1.9c0.4,0.1,0.8,0.1,1-0.3l0.9,0
			c0.3-0.1,0.9,0,1.4,0c-0.1-0.2,0-0.3,0.4-0.2s0.6,0.2,0.6,0c1.5-0.1,2.6-0.4,4.2-0.5c0.6,0.2,1.9,0.1,2-0.4c0-0.1,0-0.3-0.3-0.4
			c-0.9-0.2-2.8,0.5-3.6,0.3c-1.1-0.3-1.5-0.6-1.6,0.1c-0.8-0.3-1.5-0.1-2.4-0.3c0,0.2-0.4,0.2-0.6,0.3l-0.1-0.1l-1.4,0.5
			c-0.4-0.1-1.5-0.7-1.7-0.1c-0.1,0-0.3-0.1-0.2-0.2c0-0.1,0.4-0.4,0.7-0.4c0.5,0.2,0.8,0,1.4,0l1-0.4l1,0.3l0.5-0.5
			c1,0.2,2.2,0.1,3.1,0c0.9,0.2,1.4-0.1,1.5-0.5l2.3-0.1c0.1-0.2,2.3-0.4,2.9-0.4c0.2-0.5,1,0.2,1.2-0.4c0.5,0.1,0.8,0,0.9-0.4
			l-2-0.5c-0.5,0.4-1.5-0.2-2,0.2l-1,0c0,0.2-0.5,0.2-0.8,0.1l-0.9-0.2l-2.3,0.1c-0.4,0-0.9,0-1.3-0.1c0,0.2-0.3,0.2-0.6,0.1l-1-0.2
			c0-0.2,1-0.1,1.3-0.1c-0.2-0.1,0.1-0.1,0.3-0.2c0.4,0.1,0.6,0.3,0.7,0c1.7-0.3,3.9-0.3,5.4-0.7c0.4,0,0.6,0,0.7-0.4l-0.1-0.1
			c0.7,0.1,4,0.1,4.2-0.2c-0.1-0.2-0.4-0.4-0.8-0.5l-0.9,0c-0.3-0.1-0.8-0.1-1.1,0c-0.8-0.3-1.4,0-2.2-0.2l-8.8-0.2
			c-0.4-0.1-1-0.3-1.1,0c-0.6-0.2-1-0.2-1.4,0c-0.8-0.2-3.1,0-3.5,0.2l-2.4-0.1l-0.6,0.3c-1.8-0.5-3.6,0-5.4-0.2
			c-0.4,0.1-0.9,0-1.1,0l-2.1,0c-0.1,0.1-0.2,0.3-0.6,0.1c-0.6-0.1-1.2-0.4-1.9-0.2c-0.1,0.2-0.6,0.2-1,0.1
			c-0.7,0.3-2.6,0.2-3.5,0.1c0.1,0.2-0.1,0.2-0.3,0.2l-0.6-0.2c-0.1-0.1-0.2-0.1-0.1-0.2c-0.7,0.2-2.1,0.4-3.7,0.6
			c-0.8-0.1-1.6,0-2.3,0.2h-0.8l-1.1,0c-0.4,0.1-0.8-0.1-1.2,0.1h-1.7l-0.6-0.2l-1,0c-0.3-0.3-0.4-0.2-0.7-0.1
			c-0.3,0.1-0.5-0.1-0.6-0.2c-0.2,0.1-0.6,0.3-1.1,0.3l-1,0.1c-0.2,0-0.3-0.1-0.4,0l-0.1-0.1c-0.1,0-0.4,0-0.4,0.1
			c-0.1,0-0.3,0-0.3-0.1c-0.3,0.1-0.5,0.2-0.8,0.2c-0.1,0-0.3,0-0.4,0l-0.6-0.2c-0.8,0-1.5-0.1-2.2,0.2c-0.1-0.1-2.1,0-2.3,0.1
			c-1,0.1-1.9,0.2-2.9,0.2L308.2,151.3z"/>
	</g>
	<g>
		<path class="st2" d="M329.4,414.3l-116.1-43.1c-4.1-1.5-6.2-6.2-4.7-10.3l1-2.6c1.5-4.1,6.2-6.2,10.3-4.7L336,396.8
			c4.1,1.5,6.2,6.2,4.7,10.3l-1,2.6C338.2,413.8,333.6,415.9,329.4,414.3z"/>
		<path class="st2" d="M335.7,414.3l116.1-43.1c4.1-1.5,6.2-6.2,4.7-10.3l-1-2.6c-1.5-4.1-6.2-6.2-10.3-4.7l-116.1,43.1
			c-4.1,1.5-6.2,6.2-4.7,10.3l1,2.6C326.9,413.8,331.5,415.9,335.7,414.3z"/>
	</g>
</g>
</svg>
