<?xml version="1.0" encoding="UTF-8"?><svg id="Layer_1" xmlns="http://www.w3.org/2000/svg" viewBox="0 0 617.9 617.9"><defs><style>.cls-1{fill:#fafafa;}</style></defs><path class="cls-1" d="m447.4,0H170.5C76.5,0,0,76.5,0,170.5v276.9c0,94,76.5,170.5,170.5,170.5h276.9c94,0,170.5-76.5,170.5-170.5V170.5c.1-94-76.4-170.5-170.5-170.5Zm115.8,447.5c0,63.8-51.9,115.7-115.7,115.7H170.5c-63.8,0-115.7-51.9-115.7-115.7V170.5c0-63.8,51.9-115.7,115.7-115.7h276.9c63.8,0,115.7,51.9,115.7,115.7l.1,277h0Z"/><path class="cls-1" d="m309,149.8c-87.8,0-159.2,71.4-159.2,159.2s71.4,159.2,159.2,159.2,159.2-71.4,159.2-159.2-71.4-159.2-159.2-159.2Zm0,263.6c-57.6,0-104.4-46.8-104.4-104.4s46.8-104.4,104.4-104.4,104.4,46.8,104.4,104.4-46.8,104.4-104.4,104.4Z"/><path class="cls-1" d="m474.9,103.3c-10.6,0-20.9,4.3-28.4,11.8s-11.8,17.8-11.8,28.4,4.3,20.9,11.8,28.4,17.8,11.8,28.4,11.8,20.9-4.3,28.4-11.8,11.8-17.9,11.8-28.4-4.3-21-11.8-28.4c-7.4-7.6-17.8-11.8-28.4-11.8Z"/></svg>