<?xml version="1.0" encoding="utf-8"?>
<!-- Generator: Adobe Illustrator 27.7.0, SVG Export Plug-In . SVG Version: 6.00 Build 0)  -->
<svg version="1.1" id="Layer_1" xmlns="http://www.w3.org/2000/svg" xmlns:xlink="http://www.w3.org/1999/xlink" x="0px" y="0px"
	 viewBox="0 0 800 800" style="enable-background:new 0 0 800 800;" xml:space="preserve">
<style type="text/css">
	.st0{fill:url(#SVGID_1_);}
	.st1{fill:#FAFAFA;}
</style>
<g>
	<linearGradient id="SVGID_1_" gradientUnits="userSpaceOnUse" x1="62.8321" y1="654.1083" x2="725.4759" y2="158.5021">
		<stop  offset="0" style="stop-color:#F32735"/>
		<stop  offset="2.876395e-02" style="stop-color:#E72634"/>
		<stop  offset="0.1689" style="stop-color:#B2242D"/>
		<stop  offset="0.3109" style="stop-color:#842228"/>
		<stop  offset="0.452" style="stop-color:#5F2023"/>
		<stop  offset="0.592" style="stop-color:#421F20"/>
		<stop  offset="0.7307" style="stop-color:#2E1E1D"/>
		<stop  offset="0.8674" style="stop-color:#211D1C"/>
		<stop  offset="1" style="stop-color:#1D1D1B"/>
	</linearGradient>
	<path class="st0" d="M588.5,783.8H216c-108.5,0-197.2-88.8-197.2-197.2V214c0-108.5,88.8-197.2,197.2-197.2h372.5
		c108.5,0,197.2,88.8,197.2,197.2v372.5C785.8,695,697,783.8,588.5,783.8z"/>
	<path class="st1" d="M538.4,91H261.5C167.5,91,91,167.5,91,261.5v276.9c0,94,76.5,170.5,170.5,170.5h276.9
		c94,0,170.5-76.5,170.5-170.5V261.5C709,167.5,632.5,91,538.4,91z M654.2,538.5c0,63.8-51.9,115.7-115.7,115.7H261.5
		c-63.8,0-115.7-51.9-115.7-115.7V261.5c0-63.8,51.9-115.7,115.7-115.7h276.9c63.8,0,115.7,51.9,115.7,115.7L654.2,538.5
		L654.2,538.5z"/>
	<path class="st1" d="M400,240.8c-87.8,0-159.2,71.4-159.2,159.2c0,87.8,71.4,159.2,159.2,159.2S559.2,487.8,559.2,400
		C559.2,312.2,487.8,240.8,400,240.8z M400,504.4c-57.6,0-104.4-46.8-104.4-104.4c0-57.6,46.8-104.4,104.4-104.4
		S504.4,342.4,504.4,400C504.4,457.6,457.6,504.4,400,504.4z"/>
	<path class="st1" d="M565.9,194.3c-10.6,0-20.9,4.3-28.4,11.8c-7.5,7.5-11.8,17.8-11.8,28.4c0,10.6,4.3,20.9,11.8,28.4
		c7.5,7.5,17.8,11.8,28.4,11.8c10.6,0,20.9-4.3,28.4-11.8c7.5-7.5,11.8-17.9,11.8-28.4c0-10.6-4.3-21-11.8-28.4
		C586.9,198.5,576.5,194.3,565.9,194.3z"/>
</g>
</svg>
