<?xml version="1.0" encoding="UTF-8"?><svg id="Capa_1" xmlns="http://www.w3.org/2000/svg" viewBox="0 0 340.16 186.23"><defs><style>.cls-1{fill:#fbfbfb;}.cls-2{fill:#f32735;}</style></defs><path class="cls-2" d="m245.99,99.82c0-.31.21-.53.53-.53h24.46c.32,0,.53.21.53.53v2.67c0,.18-.07.32-.25.42-2.21,1.26-4.6,2.49-7.12,3.65h9.23c.32,0,.53.21.53.53v2.74c0,.11-.03.21-.1.32-1.97,2-4.25,3.89-6.91,5.61-.17.14-.42.11-.6-.07l-2.31-2.17c-.32-.28-.25-.74.14-.95,1.4-.77,2.74-1.65,4.03-2.56h-5.75v3.37c0,.42-.03.81-.07,1.19-.04.35-.14.63-.25.88-.14.32-.32.49-.53.6-.31.11-.53.21-.7.25v1.61h12.53c.32,0,.53.21.53.53v2.53c0,.32-.21.53-.53.53h-9.09c2.7,2.03,6.07,3.65,10.11,4.81.39.11.56.53.35.88l-1.44,2.49c-.14.21-.35.32-.6.25-4.42-1.44-8.35-3.65-11.86-6.67v6.6c0,.31-.21.53-.53.53h-3.72c-.32,0-.53-.21-.53-.53v-6.6c-3.51,3.02-7.44,5.23-11.86,6.67-.25.07-.45-.03-.59-.25l-1.44-2.49c-.21-.39-.03-.77.35-.88,4.03-1.16,7.4-2.77,10.11-4.81h-9.09c-.31,0-.53-.21-.53-.53v-2.53c0-.31.21-.53.53-.53h12.53v-1.33c-.63,0-1.93-.03-3.79-.07-.28,0-.49-.21-.53-.49l-.14-1.89c-1.86.91-3.93,1.72-6.14,2.49-.21.11-.42.04-.56-.17l-1.68-2.42c-.25-.35-.07-.81.35-.91,3.33-.91,6.32-1.93,8.91-3.09h-8.6c-.32,0-.53-.21-.53-.53v-2.39c0-.31.21-.53.53-.53h9.4c-1.44-.74-2.63-1.33-3.54-1.75-.42-.21-.49-.74-.11-1.05l1.16-.98h-4.28c-.32,0-.53-.21-.53-.53v-2.42Zm11.83,10.46c-1.27.98-2.77,1.97-4.56,2.95.67.03,1.61.03,2.84.03.88,0,1.4-.03,1.51-.14.14-.11.21-.42.21-.95v-1.89Zm6-7.51h-10.18c.98.49,2.56,1.33,4.77,2.49,1.86-.77,3.69-1.61,5.41-2.49Z"/><path class="cls-2" d="m300.2,99.91c.3,0,.51.2.51.51v.91l2.19-1.25c.24-.13.51-.07.68.17.88,1.32,1.65,2.53,2.29,3.64v-2.73c0-.3.2-.51.51-.51h7.39c.3,0,.51.2.51.51v2.8c0,.3-.2.51-.51.51h-7.55s.13.27.4.74c.13.3.07.61-.2.74l-.88.44v1.92h8.66c.3,0,.51.2.51.51v2.8c0,.3-.2.51-.51.51h-1.75v12.24c0,1.08,0,1.79-.04,2.16-.03.44-.1.94-.27,1.48-.13.44-.3.74-.44.98l-.07.07c-.17.17-.44.34-.84.51-.34.13-.77.24-1.35.27-.64.04-1.28.07-1.92.07-.57,0-1.69-.03-3.27-.13-.27,0-.51-.2-.51-.47l-.13-2.8c0-.34.24-.61.57-.57,1.35.07,2.22.13,2.6.13.71,0,1.11-.07,1.25-.2.1-.1.17-.57.17-1.35v-12.37h-3.27c.81,3.34,1.48,7.15,2.06,11.36.04.27-.13.51-.4.57l-2.73.51c-.3.07-.57-.13-.61-.47-.51-4.05-1.21-7.89-2.16-11.5-.07-.3.07-.57.37-.64l3.24-.81v-1.32h-3.98v19.72c0,.3-.2.51-.51.51h-3.27c-.3,0-.51-.2-.51-.51v-19.72h-4.08c-.94,1.72-1.95,3.2-3,4.52v15.41c0,.3-.2.51-.51.51h-3.14c-.3,0-.51-.2-.51-.51v-11.87c-.51.61-1.01,1.11-1.45,1.55-.37.34-.88.13-.98-.34l-.71-3.27c-.03-.17.04-.34.17-.44,1.48-1.18,2.8-2.39,3.91-3.64,1.01-1.15,2.09-2.6,3.17-4.35.17-.23.47-.3.71-.17l1.69,1.08v-1.65c0-.3.2-.51.51-.51h4.21v-5.73c0-.3.2-.51.51-.51h3.27Zm-17.63,6c-.07-.24,0-.44.2-.57,2.39-1.52,4.52-3.44,6.41-5.73.17-.23.47-.27.71-.1l2.19,1.69c.24.17.27.47.1.71-1.21,1.58-2.46,2.97-3.78,4.18-1.04.98-2.39,1.99-4.05,2.97-.3.2-.71.07-.81-.27l-.98-2.87Zm7.62,20.23c-.27-.07-.44-.34-.37-.61.94-4.35,1.62-8.87,2.06-13.52,0-.3.27-.51.57-.47l2.7.27c.3.04.51.27.47.57-.37,4.96-1.01,9.64-2.02,14.09-.07.3-.37.47-.64.4l-2.76-.74Zm13.05-19.99c-.84-1.55-1.69-2.97-2.53-4.21v4.21h2.53Z"/><polygon class="cls-1" points="32.72 118.8 44.93 118.8 44.93 112.01 32.72 112.01 32.72 108.68 45.87 108.68 45.87 101.22 23.99 101.22 23.99 127.35 32.72 127.35 32.72 118.8"/><polygon class="cls-1" points="73.38 120.18 59.5 120.18 59.5 117.35 72.27 117.35 72.27 111.04 59.5 111.04 59.5 108.39 73.2 108.39 73.2 101.22 50.91 101.22 50.91 127.35 73.38 127.35 73.38 120.18"/><path class="cls-1" d="m80.74,126.51c.8.44,1.69.77,2.69,1.01,1,.24,2.11.36,3.36.36,1.57,0,2.99-.25,4.28-.75,1.28-.5,2.37-1.2,3.27-2.09.97-.97,1.67-2.07,2.09-3.3.42-1.23.63-2.71.63-4.42v-16.09h-8.51v16.24c0,.92-.22,1.66-.67,2.2-.45.55-1.03.82-1.76.82s-1.34-.2-1.87-.6c-.52-.4-1.03-.96-1.53-1.68l-5.71,4.82c.47.72,1.01,1.38,1.62,1.96.61.58,1.31,1.1,2.11,1.53Z"/><path class="cls-1" d="m104.78,126.51c.8.44,1.69.77,2.69,1.01,1,.24,2.12.36,3.36.36,1.57,0,2.99-.25,4.28-.75,1.28-.5,2.37-1.2,3.27-2.09.97-.97,1.67-2.07,2.09-3.3.42-1.23.64-2.71.64-4.42v-16.09h-8.51v16.24c0,.92-.22,1.66-.67,2.2s-1.03.82-1.75.82-1.34-.2-1.87-.6c-.52-.4-1.03-.96-1.53-1.68l-5.71,4.82c.47.72,1.02,1.38,1.62,1.96s1.31,1.1,2.11,1.53Z"/><polygon class="cls-1" points="134.58 127.35 143.32 127.35 143.32 117.98 153.17 101.22 143.5 101.22 138.99 109.8 134.51 101.22 124.72 101.22 134.58 118.09 134.58 127.35"/><path class="cls-1" d="m173.69,126.38c1.98-.65,3.63-1.56,4.97-2.73s2.33-2.56,2.99-4.18.99-3.4.99-5.34v-.07c0-1.94-.32-3.7-.97-5.28-.65-1.58-1.62-2.93-2.91-4.05-1.3-1.12-2.92-1.99-4.87-2.6-1.95-.61-4.22-.91-6.81-.91h-10.01v26.14h9.71c2.64,0,4.95-.32,6.93-.97Zm-7.9-17.55h1.45c2.02,0,3.62.43,4.8,1.29,1.18.86,1.77,2.23,1.77,4.13v.07c0,1.89-.59,3.27-1.77,4.13-1.18.86-2.78,1.29-4.8,1.29h-1.45v-10.9Z"/><path class="cls-1" d="m194.92,123.84h9.15l1.38,3.51h9.49l-11.02-26.32h-8.66l-11.02,26.32h9.33l1.35-3.51Zm4.59-12.54l2.39,6.35h-4.78l2.39-6.35Z"/><path class="cls-1" d="m332.69,81.64H7.47v66.37h325.22v-66.37Zm-108.61,60.39H13.45v-54.42h210.63v54.42Zm102.63,0h-96.66v-54.42h96.66v54.42Z"/><path class="cls-1" d="m305.98,74.17C297.23,31.83,259.73,0,214.8,0s-82.43,31.83-91.18,74.17H0v81.31h145.67c17.04,18.88,41.7,30.75,69.13,30.75s52.09-11.87,69.13-30.75h56.23v-81.31h-34.18Zm31.19,78.32H2.99v-75.33h334.18v75.33Z"/></svg>