<?xml version="1.0" encoding="UTF-8"?><svg id="Capa_1" xmlns="http://www.w3.org/2000/svg" viewBox="0 0 670.1 428.45"><defs><style>.cls-1{fill:#fff;}.cls-1,.cls-2{fill-rule:evenodd;}.cls-3{fill:#e72f39;}.cls-2{fill:#1d1e1b;}</style></defs><path class="cls-2" d="m345.64,6.02c62.25,0,118.11,27.33,156.26,70.62l51.35.25c.11,0,.22,0,.34,0l69.77.45c3.23.02,5.85,2.66,5.85,5.89v95.33c5.93,1.26,10.75,4.23,14.5,9.87,4.25,6.39,4.89,12.99,2.77,20.27-.58,1.99-1.4,3.89-2.47,5.66.4,6.6-1.92,12.6-6.18,17.17,1.39.83,2.75,1.74,4.07,2.82,3.66,1.87,6.56,4.55,8.82,8.04l.95,1.46c.86,1.32,1.59,2.71,2.17,4.17.48.57.92,1.16,1.34,1.77.44.44.86.88,1.28,1.34,3.18,3.51,5.24,7.84,5.9,12.52.79,2.65,1.09,5.41.9,8.17.27,1.14.45,2.29.55,3.46.51,5.64.39,11.9-1.54,17.28-1.94,5.86-3.55,7.57-7.65,11.93-1.79,1.9-3.85,3.51-6.14,4.73-.78,1.32-1.42,2.38-2.67,3.71-2.77,2.94-6.41,4.93-10.16,6.33-1.24.47-2.51.84-3.81,1.1-.61.5-1.24.96-1.9,1.4l-2.11,1.99c-.08.07-.15.13-.23.2-2.36,2.01-4.92,3.47-7.81,4.41-1.78,1.38-3.76,2.47-5.88,3.27l-1.12.42c-1.14.43-2.3.77-3.48,1.01-.54.43-1.1.84-1.67,1.23l-1.92,1.81c-.08.07-.15.13-.23.2-4.28,3.64-7.55,4.39-12.84,5.36-.52.1-1.04.17-1.57.23-3.23,3.72-7.6,6.27-12.5,7.23-3.16.62-6.15.49-9.2-.14l-2.82.82c-2.58.96-4.22,1.51-6.94,1.98l-1.38.42c-3.01,1.25-5.17,1.59-8.44,1.68-.54.02-1.02.04-1.55.19-1.74.51-3.14,1.12-4.99,1.55-.61.15-1.03.32-1.61.56-2.1.9-4.14,1.24-6.39,1.51-3.47.58-6.65,1.05-10.16,1.21-1.36.3-2.75.47-4.14.51-2.32.48-4.7.67-7.06.55-.04,0-.07,0-.1,0l-6.98-.47c-1.83.31-3.7.41-5.55.32-1.98-.1-3.92-.48-5.81-1.04-37.87,39.25-91,63.67-149.85,63.67s-106.61-22.01-144-57.83c-3.9,4.89-9.86,8.12-16.73,8.3-8.63.22-15.32-3.44-19.98-10.19-6.16-1.69-11.14-5.94-14.54-11.36-5.96-2.84-10.41-8.06-12.3-14.4-1.86-1.91-3.37-4.12-4.5-6.54-.46-.97-.88-1.96-1.26-2.96-1.12.71-2.31,1.35-3.56,1.95-1.76,2.14-3.91,3.92-6.34,5.26-4.3,3-9.33,4.25-14.56,3.77-5.23-.49-10.05-2.44-13.91-6.04-1.62-1.51-2.72-2.94-3.79-4.64-1.12-.54-2.19-1.17-3.21-1.88-4.63-.78-8.96-2.83-12.45-5.95-4.17.13-8.3-.96-11.92-3.09l-.41-.17c-1.97-.56-3.86-1.38-5.6-2.45-4.16-.74-7.96-2.63-11.03-5.52-4.31-1.55-8.09-4.37-10.76-8.1-.38-.21-.76-.43-1.12-.65-4.47-.78-8.57-2.81-11.86-5.93-10.25-3.62-16.84-13.59-15.63-24.66,1.15-10.6,9.33-19.29,19.92-20.9l6.62-1c3.41-.7,7.06-1.13,10.56-1.21,1.42-.33,2.87-.54,4.33-.61l8.04-1.1c1.09-.17,2.19-.27,3.3-.3.83-.13,1.66-.23,2.49-.28,1.87-.18,4.2-.13,5.97-.49.81-.22,1.63-.39,2.45-.52,2.15-1.24,4.49-2.11,6.94-2.6,1.32-.57,2.69-1.03,4.08-1.38l-17.03-16.75c-1.17-1.15-1.76-2.56-1.76-4.2V83.38c0-3.23,2.62-5.87,5.85-5.89l74.41-.53c10.62-.08,20.73,1.32,29.35,6.77l1.18-3.14c.88-2.34,3-3.81,5.49-3.82l10.95-.04C227.46,33.38,283.35,6.02,345.64,6.02"/><path class="cls-1" d="m536.07,242.39c-.12.22-.24.44-.38.65-.69,1.89-1.99,3.44-3.63,4.45-.91.99-1.94,1.8-3.09,2.37-2.64,2.29-5.52,4.67-8.76,5.91-.61.52-1.3.94-2.07,1.28-.06.08-.12.15-.18.22,1.69.65,2.4.47,4.3,2.05l.43.2c1.14.1,2.24.44,3.31,1.02.41.13,1.96.18,3.42.71l.53.19c1.36.15,2.65.6,3.78,1.3,1.13.27,2.18.7,3.12,1.31.82.21,1.62.5,2.48.82,1.75.09,3.38.59,4.76,1.51l1.69.41,4.63,1.39c1.39.08,2.7.44,3.92,1.07,1.96,0,3.79.65,5.37,1.91,1.5.08,2.89.5,4.28,1.18,2.89,1.04,4.31,1.35,7.54,2.79,2.24,1,1.81.55,3.76,1.17l.81-.48c1.07-.98,2.39-1.69,3.88-2.05.81-.8,1.76-1.42,2.85-1.85.3-.24.62-.46.95-.66.82-.84,1.79-1.49,2.85-1.94.29-.68.66-1.31,1.11-1.9-3.6-1.54-7.22-2.76-10.77-4.51-.96-.1-1.82-.33-2.7-.74-2.88-1.03-1.37-.13-4.12-2.1l-2.22-1.18c-1.07-.23-2.06-.62-3.09-.93-1.51-.17-2.95-.74-4.2-1.68-1.64-.6-2.92-1.37-4.49-2.09-.77-.35-1.46-.79-2.07-1.3-.98-.17-1.94-.51-2.86-1.02-.38-.21-.75-.45-1.12-.67-1.55-.14-3.07-.7-4.42-1.68l-3.22-2.22c-2.39-1.94-3.84-1.77-6.38-4.9m-127.32-4.67c-.14-.11-.28-.23-.4-.34l-1.42.93c-.78,1.08-1.79,1.95-2.95,2.56l-1.08,1.11c-2.62,3.69-2.68,2.4-3.77,3.83-1.05,1.75-2.53,3.11-4.41,3.91-.38,1.24-1.01,2.34-1.82,3.26-.27.86-.55,2.02-.67,2.83.17.96.18,1.91.02,2.84.08,11.37,6.64,5.76,10.13,6.28.79-.33,1.64-.58,2.54-.83.93-.74,2.03-1.27,3.26-1.6.44-.11.87-.2,1.3-.25.56-.25.81-1.22,4.9-2.37-1.99-2.13-2.74-5.33-2.3-8.18-4.71-3.11-6.27-9.64-3.33-13.97Zm-37.8-111.46v17.15c3.22.04,11.66.68,13.64-1.39,2.33-2.44,2.35-11.39-.07-13.99-2.13-2.28-10.14-1.75-13.57-1.76Zm83.45,10.17c0,7.63,1.57,12.44,9.86,13,2.15.14,4.91.07,6.53-1.58,2.84-2.88,3.04-16.75-.29-20.47-2.93-3.28-11-3.36-13.85-.43-1.97,2.03-2.26,6.87-2.26,9.47Zm160.13,55.33l4.62.6c4.45.39,9.12-.66,12.34,4.18,3.09,4.65.94,11.51-3.96,13.66,3.07,3.93,2.35,10.03-2.34,12.91-3.95,2.42-5.74,1.67-6.55,1.94-.27.09-2.1,1.76-4.88,2.11-1.83.23-3.73.29-5.59.23-1.7.69-2.85,1.28-4.38,1.56-.19.1-.39.18-.59.26l1.65,1.19c1.75.21,3.31.88,4.57,1.93,1.18.3,2.24.85,3.19,1.62.96.28,1.84.72,2.66,1.32,1.73.4,3.25,1.33,4.49,2.74.22.25,1.45.55,2.58,1.32,3.94,2.67,8.08,3.99,11.35,7.39.49.33,2.83.67,4.75,3.62l.95,1.46c1.03,1.59,1.26,3.65,1.79,4.29,1.04.78,1.87,1.77,2.46,2.92.69.62,1.36,1.26,1.98,1.94,1.51,1.67,2.29,3.74,2.3,5.84.74,1.65.94,3.51.54,5.38-.18,1.81.58,2.18.78,4.38.27,2.96.21,5.39-.08,8.33-.1,1.03-.35,1.98-.76,2.85-.31,1.57-1.05,3.08-2.22,4.33-2.46,2.62-4.2,4.97-8.2,5.11-.18.23-.38.45-.58.65-.35,3.26-2.46,6.02-5.64,7.22-4.09,1.53-4.17.84-4.89,1-.8.47-1.64.8-2.49,1-.99,1.43-2.3,2.48-3.78,3.11-.46.73-1.04,1.4-1.73,1.98-2.95,2.51-3.77,2.36-7.55,3.06-.71.13-1.42.18-2.11.14-1.5.59-3.09.75-4.61.5l-1.66.72c-.8,3.3-3.41,6.04-7.04,6.75-3.62.72-7.39-1.41-8.26-1.12-1.16.78-2.49,1.26-3.98,1.41-2.4.52-4.99,2.18-8.12,2.5-2.07.33-2.52.54-4.39,1.35-2.7,1.17-3.88.39-6.99.96-.65.21-1.31.36-1.98.45-1.06.61-2.24.99-3.48,1.18l-3.55.81c-1.61,1.04-3.58,1.59-5.64,1.57-1.07.39-2.16.55-3.37.49h-.14c-1.1.38-2.17.54-3.31.48-.84.22-1.67.3-2.59.25-1.94-.1-2.33.66-4.86.53-1-.05-2.39.78-5.67.62-2.91-.14-5.82-.43-8.73-.76-.89.07-2.34.73-4.96.6-1.53-.08-2.98-.48-4.26-1.16-1.46-.25-2.82-.81-3.99-1.71-.62-.21-1.85.58-3.99.58h-7.97c-.95.28-1.97.42-3.06.36-3.74-.18-7.31-2.71-8.85-6.1-2.41-5.31.67-10.91,5.7-12.4.35-2.27,1.32-3.58,2.84-5.22,1.59-1.72,1.44-.77,2.06-2.18,1.65-3.98,4.8-4.93,8.52-5.96l2.52-.91c-1.99-.83-1.7-1.27-3.06-1.61-2.42-.59-2.25-.88-3.1-1.19l-6.51-2.36c-4-.93-3.25-1.6-5.3-2.28l-4.28-1.33c-.39,0-.78-.02-1.16-.06-.34.98-.89,1.91-1.65,2.77-.24.49-.52.96-.83,1.41-1.48,2.09-2.12,1.67-2.5,2.84-.14.81-.4,1.58-.77,2.31.05,2.22-.66,4.19-2.09,5.85-.07.1-.14.2-.21.29.29,2.31-.3,4.5-1.68,6.3-.15.36-.32.71-.52,1.06-1.61,2.87-3.3,2.96-3.38,3.77-.41,4.18-2.73,5.91-5.91,7.58-.63.33-1.25.57-1.88.74-.45.3-2.89,4.17-7.59,4.26-.47.93-1.12,1.78-1.93,2.53-2.2,3.32-6.32,4.74-10.15,3.42l-.24-.08c-4.42,12.32-19.69,7.03-18.17-3.06l.82-5.41c.18-2.53.86-5.23,1.91-7.54,0-1.12.2-2.2.61-3.21.94-2.96.65-2.33,1.17-6.03.12-.86.35-1.67.68-2.41.12-1.32.5-2.59,1.1-3.74,1.79-4.12-.01-2.68,1.6-6.86l.72-2.24c-.32.17-.65.32-.99.45-.94.74-1.99,1.26-3.13,1.55-4.01,1.4-2.42.13-5.33,1.14-1.82.63-3.56.49-3.69.52-.81.45-1.64.82-2.49,1.13-1.13.93-2.51,1.59-4.05,1.87-1.6.29-2.62.19-3.49.51-.94.44-1.92.69-2.96.76-.9.31-1.87.49-2.88.52-2.01.07-4.07-.2-5.92-.97-1.48.37-2.83.37-4.31,0-.03,0-.05,0-.08,0-3.1.18-5.49-.35-6.32-.34-1.65.26-3.37.08-5.24-.33-1.28.02-2.44-.21-3.55-.7-1.54-.47-2.95-1.02-4.34-1.82-1.72-.21-3.32-.91-4.64-1.97-.45-.25-.86-.52-1.25-.83-2.32-1.14-4.62-2.76-6.35-4.7-.87-.58-1.6-1.26-2.22-2.07-.12.07-.24.13-.37.2.3,2.87-.85,4.64-.9,5.32.43,2.69-.25,5.22-1.69,7.14,1.91,5.21.67,3.29,1.33,6.55.65,3.23-.57,4.62-.36,5.66.67,3.34-.68,4.52-.85,7.28-.07,1.06.82,4.57.78,7.15-.07,5.5-1.14-.14.26,7.7.37,2.09-.24,2.43.55,5.84.69,2.97,1.47,5.31-.9,8.7-1.98,2.83-5.06,3.94-8.38,3.82-5.41-.2-7.68-4.32-9.54-8.53-4.39.22-8.19-2.73-9.05-7.04-.1-.51-.36-1.85-.81-2.24-1.78-.71-3.27-2-4.29-3.77-.91-1.58-1.62-3.14-2.23-4.75-.62-.57-1.16-1.24-1.59-1.99-.54-.67-.98-1.39-1.35-2.23-.46-1.04-.71-2.1-.76-3.16-1.17-2.42-1.87-5.18-2.35-7.59-.86-4.27-.31-12.77-.68-17.98-.08,0-.17.01-.25.02-1.43.58-2.96.74-4.62.7-1.26.28-.64.85-4.83.95-2.89.07-1.35.37-3.79.67-.61,1.17-1.47,2.22-2.57,3.03-.59,1.96-1.82,3.66-3.46,4.85-.8.95-1.81,1.73-2.96,2.27-.46.67-.99,1.28-1.59,1.83-.51,1.34-1.29,2.51-2.29,3.45-3.15,3.36-5.84,3.66-5.97,3.75-.27.43-.58.85-.92,1.23-.75,1.73-2.06,3.21-3.78,4.16-1.71,1.59-3.84,2.37-6.24,2.28-4.7-.17-8.59-2.97-9.53-7.68-4.84-.29-9.2-3.01-10.17-7.84-.87-4.37.91-5.46,1.63-8.39-5.74.87-11.34-3.77-10.52-9.94l3.15-23.85c-.19-.02-.38-.06-.56-.09-.81,3.54-1.32,5.83-2.47,8.02l-1.28,2.8c-.61,3.37-1.67,5.63-1.87,6.7-.56,5.48-2.82,5.23-3.32,7.36l-.59,2.22c.12,4.15-1.62,5.17-1.82,6.11-.73,3.42-1.47,3.27-2.07,4.92l-1.57,3.59c-.17,1.05-.55,2.08-1.13,3.06l-.91,2.75c-1.01,2.75-.17,1.25-1.94,4.08-1.71,3.03-3.8,8.52-5.93,10.51-3.53,3.3-9.36,3.52-12.95.16-1.92-1.79-5.2-3.03-6.05-7.77-6.65.3-12.36-7.04-9.37-13.53-.48-.69-.86-1.47-1.13-2.31-1.57-1.92-2.14-4.15-1.92-6.34-2.31-2.81-2.09-5.34-1.54-8.49.58-3.32,2.81-4.41,3.38-7.48.27-1.45-.64-2.47-.13-5.17-1.33.71-2.71,1.05-4.11,1.13-.02,2.96-1.42,4.61-1.54,5.38.23,2.93-.77,5.58-2.59,7.42.07,1.15.37,1.45.64,2.72.5,2.33-.11,2.38.15,4.85.38,3.62-1.15,4.52-.98,6.09.22,2.12-.26,4.03-1.23,5.59-.07.71-.23,1.39-.46,2.04-.18,1.11.41,5.12.12,7.84-.05,1.24-.36,2.43-.93,3.53l.41,4.95c.09,1.03,0,2.04-.24,2.98l.51,4.89c1.06,5.94-3.65,10.94-10.41,10.31-5.65-.53-7.69-5.22-9.21-9.82-4.64.15-8.56-3.22-9.04-7.86-.06-.6-.24-2.2-.71-2.69-1.85-.83-3.33-2.3-4.25-4.26-.84-1.79-1.45-3.52-1.94-5.31-.62-.65-1.13-1.39-1.52-2.21-.51-.75-.92-1.54-1.23-2.47-.38-1.14-.54-2.28-.47-3.39-1.04-2.7-1.51-5.74-1.78-8.34-.4-3.86.64-11.74.94-15.89l-1.51-.09-5.89.45c-1.91.56-9.42.93-11.95.97-.75,2.1-2.22,3.84-4.13,4.93-.92.93-2.05,1.66-3.31,2.1-.63.83-1.38,1.56-2.22,2.18-.63,1.4-1.55,2.58-2.7,3.47-1.86,1.68-4.15,3.11-6.74,3.42-.41.61-.88,1.17-1.42,1.66-.89,1.73-2.35,3.14-4.2,3.97-1.81,1.48-3.96,2.13-6.33,1.91-4.98-.46-8.87-3.81-9.23-8.85-6.82-.66-11.4-5.73-10.12-11.9l-3.05.26c-.41.17-.83.33-1.3.46-1.33.39-2.66.46-3.93.26-.46.04-.91.05-1.37.04-1.24-.02-2.43-.3-3.49-.78l-3.01-.09c-3.55.84-5.01.63-8.27-1.4-1.54-.96-.02-.28-1.91-.78-2.13-.57-3.62-1.12-5.15-2.82-.72-.02-1.43-.13-2.11-.32-3.28-.13-6.04-1.93-7.5-4.89-7.56.15-11.86-7.79-7.59-14.05,2.87-4.21,6.45-3.63,9.75-4.26,1.01-.3,2.03-.47,3.03-.51,3.01-.65,6.88-1.09,9.85-1.01.59-.05,1.27-.42,3.6-.61l3.47-.28,5.76-.98,2.59-.17c3.11-.51,3.56-.57,6.83-.5,1.76-.08,3.7-.91,6.22-1.02.56-.03,1.47.03,1.93-.32,3.28-2.88,4.24-1.92,6.12-2.71,2.02-1.11,4.4-1.65,6.69-1.45.39-.08,2.82-1.54,5.86-1.25,5.83.55,3.61.02,6.45-2.28l.24-.2c.69-1.13,1.62-2.07,2.7-2.77l2.33-2.34c.48-1.05,1.15-1.99,1.97-2.76.42-.6.89-1.15,1.41-1.63.51-1.17,1.24-2.19,2.12-3.01.87-1.13.07-.74,2.22-2.79.57-.63,1.21-1.16,1.91-1.59.36-.56.77-1.07,1.24-1.53.83-1.02,1.81-1.97,2.86-2.8.28-.38.59-.75.93-1.1l2.45-2.55c1.93-2.53.76-1.33,3.13-3.17.49-.48,1.02-.91,1.61-1.39.68-1.15,1.61-2.14,2.72-2.89.46-.39.47-1.18,1.36-2.51,1.31-1.96,3.2-3.25,5.37-3.72.52-.43,1.08-.81,1.69-1.12,1.55-1.45,3.18-2.73,5.03-3.53,1.97-1.19,1.53-1.8,3.13-3.42,1.27-1.29,2.78-2.11,4.44-2.44,1.3-.87,2.73-1.31,4.29-1.47l.07-.05c1.64-1.13,2.98-1.26,4.02-1.88,1.97-1.65,4.64-2.51,7.44-2.25l1.65-.85c1.59-.8,3.31-1.23,5.1-1.1.78-.6,1.66-1.07,2.62-1.38.34-.23.2-1.12.67-2.46-14.31,1.87-28.36,4.16-42.58,6.52-4.36-10.75-3.88-8.84-4.52-20.83l-.24-5.06c-2.86.37-5.73.74-8.59,1.12v27.2l-44.61,9.47v-115l65.69-.46c13.49-.09,24.22,2.23,30.8,15.42,1.19,2.38,2.07,4.87,2.66,7.41l8.58-23.06,95-.29,14.37,20.57v-20.59l94-.03c11.63,0,23.95,2.36,32.69,10.59,6.73-6.67,16.89-10.8,26.19-12.03,10.59-1.4,23.45-1.42,34.04.05,6.13.85,11.94,2.94,17.33,5.95v-4.35l53.91.26,4.37,19.1,4.22-19.05,53.95.35v99.82Zm-113.27-4.82c.78,2.24.7,4.69-.38,6.91.98,1.36,1.04,2.14,1.28,2.58,1.61,1.98,2.14,4.26,1.87,6.48,1.39,1.68,2.08,3.76,1.95,5.97.21-.04.42-.08.63-.1,1.12-.56,2.36-.86,3.68-.89.52-.29,1.08-.53,1.65-.72,4.12-1.67,5.1-1.46,9.43-.95,4.24.5,7.45,3.87,7.73,8.13l.09,1.29c.18-.36.38-.7.61-1.03.51-2.3,1.93-4.29,4.01-5.54.93-1.48,2.13-2.7,3.61-3.54.87-.81,1.86-1.5,2.95-2.09l6.17-3.96c1.69-.94,2.59-.77,3.81-1.4,3.64-2.21,4.2-.9,8.18-2.61l-19.71-3.33v-.02s-37.56-5.19-37.56-5.19Zm-109.62,7.61l.81-.2c1.3-1.01,2.85-1.61,4.57-1.76,2.51-1.28,5.51-1.79,8.34-1.89.63-.02,1.22.02,1.8.12,1.13-.86,2.44-1.41,3.9-1.63.91-.35,1.9-.55,2.95-.59l.44-.25c2.55-1.39,5.46-1.44,7.95-.25.64.08,1.41.11,2.19.12l7.44-9.92c-4.72-2.4-8.38-4.92-12.01-8.82-7.08,6.32-16.31,8.85-25.61,9.41.26.47.48.97.65,1.49.73,2.2.61,4.36-.35,6.43-.07.5-.19.99-.35,1.49-.61,1.91-1.61,3.44-2.89,4.55.11.55.17,1.11.17,1.69Z"/><path class="cls-3" d="m185,235.06c.4,0,.82.08,1.25.12-1.03.8-1.64.64-2.31,1l.49.6,1.27.67c.01-.13-.03-.48.05-.52.17-.09.38.17.45.25l2.16-.3c.7.12,1.39.23,2.08.48.72-.14,1.5-.07,2.09-.39.72-.14,2.23-.22,3.07.07l1.96-.69.77.2-.14.57-.26.27-1.84.25c-.07-.09-.42-.51-.59-.42-.08.05-.03.26-.04.39l-.96.15-.23.74c.78.07,1.52-.2,2.02-.47l.32.69c.42-.22.46-.62.88-.84.93.11,2.04.13,2.79-.27.42-.22-.21-.99-.49-1.34l-.35-.43c-1.15.5-2.76,0-4.11.12,0,0-.25.13-.32.05,0,0,.37-.57.46-.62.35.43,1.56.14,1.97.05,1.02.07,2.12.09,3.21.24.67-.36,1.49.06,2.08-.26l.24.73-.86-.03-.47.75c-.31-.08-1-.2-.58.32,0,0-.17.09-.1.18.07.09,1.27-.07,1.51-.07l.29.21-.42.23c.7.86,1.02.07,1.44.58l.74-.28.37-.57h.47s.53.2.53.2l.03-.26,1.59-.12.18.52.92-.5c.42.51.5.47,1,.2.28.34.53.21.78.07.33-.18.78.07,1.11-.11l-.07-.09.88-.1c.33-.18.78.07,1.11-.11.72-.14,2.4-.31,3.3.07l.48-.26c-.03.19-.08.44-.15.69-.15-.15-.34-.31-.44-.26-.08.04-.03.26-.04.39l-1.04.19-.05.13.02-.12-.83-.81c-.38.48-.38,1.45-.21,2.14-.3-.21-.6-.41-.98-.42-.38-.01.72,1.39.77,1.59-.56.76-.98,1.53-.71,2.61l1.05.72-.28.38-.53-.12s-.07-.3-.2-.3c-.38-.01-.58,1.15-.51,1.45-1.25-.04-1.52,3.37-1.65,3.85l1,1.01c-.08.19-.03.39.02.59-.5-.51-1.23-.92-1.93-1.24l.27,1.08c-.88-.03-.85.07-.68.76-.25,0-.66,1.35-.58,1.64.3.21.75.51.8.71.05.2-.2.19-.33.18-.35.09.3.69.48.41.02.08.25.65.19.89l-1.48.04c-.77-.04-1.56-.1-2.37-.17-.46-.04-.9.08-1.26.23-.17,0-.34,0-.54.04-3.73-.53-7.52-.45-11.18-.47.07.68-4.87-.12-5.69-.2-1.36-.13-.82,1.16-2.19,1.03l-4.24-.51-.31-2.95c1.64.15.87-3.29.8-3.97l-.41-.04c-.23.43-.45.86-.54,1.3l-.04-.34-.1.33h.14c-.11.23-.1.34-.09.45l-.05-.45-.46.74-.09.44c-.14-.01-.49-.83-.5-.95-.06-.57.57-.96.52-1.53-.18-.47-.74-.63-1.15-.67l.5-.4.28.14c.47.61.94,1.21,1.01,1.89l.26-2.68-1.18.34v-.11s.45-.74.45-.74c.28.14.67-.05.93-.14l.33-.76-.62-.73c.4-.08.6-1.97.68-2.52-.47.63-1.36,1.22-2.13,1.6l.44-.97c-.06-.57.63-.39.57-.96l.45-.86c.12-.1.29-1.1.43-1.08l.02.23.62.73-.04.9.63.85c-.07-.68-.57-2.87.21-3.13-.03-.24-.04-.72,0-1.23.12,0,.25.02.39.2l.74-.27.3-.66c-.39.21-.89.19-1.37.2.12-.76.39-1.45.96-1.4l.76-.49c-.01-.11-.03-.24-.05-.37m57.72-19.91c-.6.04-1.2.06-1.8.05,0-.61-.11-1.33-.64-1.35l.18-.78c.33-.18.5-.47.68-.76l-.22-.89.75-.46-.25-.99.38-.48-.5-.02.25-.97c-1.25-.53.4-.38.78-.36.38.01.45-.18.38-.48.18-.16.2-.47.19-.8.19-.18.35-.36.68-.5,1.27.11,2.77.14,3.81-.27.57-.23-.27-.99-.64-1.34l-.47-.43c-1.59.5-3.76,0-5.61.12,0,0-.34.14-.44.05,0,0,.52-.57.64-.62.47.43,2.13.14,2.68.05,1.39.07,2.89.09,4.37.24.92-.36,2.03.06,2.84-.26l.31.73-1.18-.03-.66.75c-.42-.08-1.36-.2-.8.32,0,0-.23.09-.14.18.09.09,1.73-.07,2.05-.07l.1.05c-.02.09-.03.19-.02.28l-.26.1c.05.05.1.09.15.12l-.29.19.2.79c-.33.18-.33.67-.25.97l-.78.36c.1.39.1.88-.23,1.07.12.49-.83,1.14-1.26,1.42l.07.3c-.13,0-.53-.6-.55-.7l.18-.78c-.1-.39-.15-.59-.65-.61h-.38s.27,1.07.27,1.07c-.88-.03-1.21.64-2.09.61-.51,1.94.19,2.74-1.97,3.55l.13.53Zm-13.19.35s-.08.06-.12.09l-.8.15c-.16-.75.04-1.11-.11-1.71l-.88-.03-1.23.54c.15.1.58.31.6.41.05.2-.33.18-.45.18l-.13.65c-.11-.04-.21-.08-.32-.12l-.96.15c.07.09.21.26.04.35-.08.04-.46-.12-.61-.16-1.34.72-3.96.16-5.48.36-.42-.51-.78-.07-1.11.11,0,0-2.94.23-3.11.32l-1.73-.05c-.58.32-1.07-.28-1.66.03-.25.14-2.1.52-2.41.44l-.79.06c-.35-.43-.75-.33-1.02-.07-.64.1-1.85.38-2.55.27l-.45-.25-.96.15s.21.26.13.3c-.17.09-.46-.12-.61-.16-1.25.68-3.48.15-5,.36-.35-.43-.85-.16-1.03.06-.15-.04-4.71.57-4.96.7-.74-.46-1.31.57-2.05.14.05-.16.12-.27.26-.29l-.14-1.36.81-1.27c-.15-.13-.31-.37-.33-.59-.55-5.23,5.18-9.86,4.66-14.86l-.78-.97c-.24.32-.45.86-.14,1.22-.21.54-1.02,1.82-.82,2.51l-1.35,2.57c.15.13.44.38.46.49.01.11-.14-.01-.28-.14h-.14c-.68-.08-.61.6-.44.96l-.54,1.3-.08-.8c-.27-2.61.41-3.79,1.66-6.03-.16-.24-.44-.38-.47-.61-.04-.34.2-.66.31-.87.91-1.6,1.01-3.28,1.81-4.67.11-.21,1.2-1.46.5-1.64.22-.42.56-.94.39-1.51.3.06.62.1.91.11l-.08.16c.04.34.46.49.74.63.22-.07,1.48-.37,1.26-.73l.89-.35c.51.17,1.18.03,1.52-.11l1.11.42c.46-.18,1.13-.32,1.64-.15.57-.23,2.22.23,2.94.44l.35-.13c.09.09-.41.53-.52.57l-1.2.1c-.46.18-.69.27-.32.61l.28.26,1.26-.5c.65.6,1.83.63,2.49,1.22,3.05-.22,3.59-.92,6.4.3l1.49-.59c.81.29,1.97.45,2.66.18.75.68,2.16-.72,3,.05-.46.18-.2.57-.66.75-.34.14-.9.23-1.29.02-.23.09-1.52.72-1.89.37-.32,0-3.18.39-2.53.99l-1.2.1c-.51-.17-1.04-.2-1.57-.24l-1.03.41-1.23-.37-1.15.45-.95-.12.37.34-1.52.11c.27.99-.83-.16-1.11-.42-.28-.26-.6-.25-.95-.12-.83-.16-2,.42-2.97.43l.4.82,1.6.11c.46-.18,1.06.07,1.23.37.46-.18,1.01-.28,1.64-.15l.92-.36c.83.16,1.48.15,2.17-.12l1.27.11,1.57-.37c.21.04.63.12.81.29.47.43-1.57.37-1.91.5l.84.77.37-.27c.35-.13.74.08.93.25.42.08,1.04.2,1.44.41l1.2-.1,1.05.81.6.25c.37.34.63.12.97-.01.11-.05.32,0,.53.04.21.04,1.08-.06,1.18.03.09.09-.14.18-.14.18-1.03.41-2.49.12-3.41.48-.23.09-.25.22-.06.39l-.55.7,1.34.33c.57-.22,1.06.07,1.75-.2l.37.34c.75.68,1.01-.88,2.22.23.95.12,1.78.28,2.71.53.92-.36,1.96-.16,3.02-.09-1.42.8-2.26.64-3.18,1l.65.6,1.72.67c.02-.13-.03-.48.09-.52.23-.09.51.17.6.25l2.95-.3c.95.12,1.9.23,2.82.48.99-.14,2.05-.07,2.86-.39.99-.14,3.05-.22,4.18.07l.81-.21-.38.61c-.18-.14-.42-.29-.57-.23-.12.05-.04.26-.06.39l-1.31.15-.34.74c.5.03,1,0,1.45-.09.02.29-.05.57-.28.78l.2.79c-.4.38-.55.76-.41,1.35l-.45.67.05,1.17c-.1.09-.3.28-.55.27-.63-.02-.05-1.17-.12-1.47l-1.13-.04.22.4c.07.3-.28.38-.53.37-.2.19-.5.47-.86.56l-.18.78-1.23.06-.45.18c-.5-.02-.3.28-.23.58.02.1-.08.19-.18.29-.1.09-.2.68-.33.67-.13,0-.18-.2-.18-.2-.22-.89.48-1.55.28-2.34-.05-.2-.2-.3-.45-.31l-.7-.81-.73.56c.12.49-.35.57-.2,1.17l-.5-.02c-1-.03.8,1.2-.83,1.14-.38.48-.78.85-1.31,1.23.07.29.05.53-.02.75Zm21.53-.94l.28-.72c-.15-.59.43-.28.21-1.17-.07-.3-.02-.59.35-.57-.17-.69.08-1.17-.09-1.86.74-.85,1.38-2.5,1.63-4.04l.2-.22h.65s.72.2.72.2l.04-.26,2.17-.12.24.52,1.26-.5c.56.51.68.47,1.36.2.37.34.72.21,1.06.07.46-.18,1.06.07,1.52-.11l-.09-.09,1.2-.1c.46-.18,1.06.07,1.52-.11.99-.14,3.28-.31,4.5.07l1.61-.63.58.38,1.69.19c-.02.13-.27.35-.39.4-.97.01-2.05.07-2.74.34-.09-.09-.65-.6-.88-.51-.11.04-.04.26-.06.39l-1.43.19-.45.79c.95.12,2.28-.16,3.09-.48-.04.26-.09.52.19.78.28.26,1.33-.89,1.56-.98,1.17.12,2.29.19,3.33-.04l-.21.52c-.5-.02-.48.08-.4.38.07.3-.3.28-.55.27.05.2.17.69.15,1.08l-.15.87c-.1.09-.2.19-.18.29h-.13c.02.09-.05.29-.03.39.02.1-.08.19-.2.19.07.3.12.49.07.78.02.1-.08.19-.05.29l-.43.28c-.23.58-.61,1.05-.43,1.74-.02,0-.04.03-.07.08h-.02c-.1.18-.19.35-.57.18-.54-.08-1.13-.5-1.79-.27-.11.31-.5.27-.88.1-.67.36-2.4.31-3.25.15.06.22-.11.31-.26.27l-.53-.21c-.07-.09-.14-.17-.13-.3-.65.23-1.95.56-3.38.72-.7-.12-1.42.03-2.08.26h-.71s-1.02-.05-1.02-.05c-.33.18-.78-.07-1.11.11h-1.58s-.53-.22-.53-.22l-.95.02c-.28-.34-.36-.3-.61-.16s-.46-.12-.6-.29c-.17.09-.58.32-.99.41l-.96.15c-.1-.03-.2-.05-.28-.06Zm63.1,51.89c-.29-.22-.46-.43-.52-.74-.02-.1.11-.1.23-.09,1.13.04.08-.82,1.09-.78-.21-1.04,1.13-1.19.99-1.92l1.43-1.6c.75.03-.17-.83.96-.79l.5,1.26c-.13,0-.5-.02-.46.19.04.21.56.33.69.34,1,.04-.81-.96,1.82-.86,1.26.05.17-1.64,1.05-1.61l1.91-1.06c-.02-.1-.1-.52.15-.51.13,0,.4.74.42.84.12.62.69.95.83,1.68-1.26-.05.67,2.09-.59,2.04-.8.38-1.38.57-1.19,1.5,1,.04,1.13.04,1.3.87-1.13-.04-.94.89-.8,1.62.25,0,.52.12.59.43.1.52-.57.91-.88,1.2l-.48,1.94c-.63-.02-10.19.75-10.21,1.27l-1.34-.46c.5.02.8-.38.84-.79l.59-.18c.27-.5.46-1.43,1.03-1.71l-.1-.52,1.84-.76c-.31-.32-.52-.74-.6-1.16-.78.49-1.4,1.08-2.16,1.67.12.62-.92,1-1.38,1.18-.06-.31-.4-.74-.79-.85h.25c.5.03.84-.17.75-.58,1.13.04,1.4-1.08,2.28-1.05Zm-171.38-15.63c-.3-.25-.46-.49-.49-.83-.01-.11.12-.1.26-.09,1.23.11.18-.88,1.27-.78-.12-1.14,1.36-1.22,1.27-2.02l1.72-1.64c.82.08-.1-.91,1.13-.79l.42,1.39c-.14-.01-.55-.05-.52.18.02.23.58.39.72.4,1.09.1-.79-1.09,2.08-.82,1.36.13.35-1.77,1.31-1.68l2.19-1.03c-.01-.11-.06-.57.21-.54.14.01.36.82.37.93.07.68.65,1.07.74,1.87-1.36-.13.51,2.3-.85,2.17-.91.37-1.57.53-1.46,1.55,1.09.1,1.23.12,1.32,1.02-1.23-.12-1.12.91-1.04,1.7.27.03.56.17.59.51.06.57-.71.95-1.08,1.25l-.73,2.07c-.68-.06-11.19.19-11.26.74l-1.41-.58c.55.05.91-.36,1-.81l.66-.16c.35-.53.65-1.51,1.3-1.79l-.06-.57,2.09-.7c-.31-.37-.49-.83-.54-1.29-.89.48-1.64,1.08-2.53,1.68.07.68-1.11,1.02-1.63,1.2-.04-.34-.36-.82-.78-.97l.27.03c.55.05.93-.14.88-.59,1.23.11,1.64-1.08,2.6-.99Zm-30.21-127.56c6.24-.35,12.49-.66,18.78-.99,2.5-.13,4.47.36,5.83,1.45,1.35,1.09,2.08,3.13,2.08,6.15,0,5.32-2.5,8.17-7.49,8.58-6.4.53-12.8,1.07-19.2,1.65v-16.85Zm131.41,49.86c8.64-.59,17.27-1.11,25.91-1.58v-40.13h.21c4.79,6.56,9.57,13.08,14.36,19.57,4.78,6.49,9.57,12.93,14.41,19.37,9.88-.26,19.77-.45,29.65-.6v-69.91c-8.64,0-17.27,0-25.91.02v39.04h-.26c-4.58-6.44-9.16-12.89-13.73-19.37-4.59-6.5-9.16-13.05-13.73-19.63-10.3.02-20.6.04-30.9.07v50.65c-3.38-8.3-6.83-16.63-10.14-25.03-3.34-8.45-6.76-16.97-10.09-25.56-11.08.04-22.16.08-33.19.12-4.11,10.96-8.19,22.04-12.23,33.29-4.08,11.36-8.12,22.91-12.17,34.59-.31-4.6-.62-9.23-.88-13.87-.26-3.38-1.09-6.08-2.5-8.08-1.41-2.01-3.17-3.29-5.31-3.81v-.23c3.64-1.58,6.33-4.16,8.01-7.68,1.7-3.53,2.55-7.36,2.55-11.58s-.87-8.25-2.65-11.82c-1.81-3.62-4.01-6.16-6.66-7.66-1.82-1.05-4.06-1.82-6.56-2.26-2.55-.45-5.77-.67-9.68-.64-18.99.13-37.98.26-56.97.4v95.38c9-1.97,18-3.92,27.05-5.75v-27.69c6.4-.89,12.8-1.71,19.2-2.53,2.34-.3,4.06.36,5.15,1.94,1.09,1.58,1.68,4.03,1.82,7.35.07,1.66.16,3.13.21,4.39.21,3.62.34,6.24.47,7.8.13,1.57.42,2.79.78,3.68,9.83-1.63,19.67-3.11,29.55-4.55,6.82-.9,13.63-1.8,20.45-2.61.94-3.09,1.87-6.17,2.86-9.27,9.36-.94,18.78-1.8,28.2-2.58.94,2.79,1.93,5.57,2.91,8.35,6.61-.58,13.21-1.1,19.82-1.59Zm118.2-55.66c5.15.02,10.35.03,15.56.05,6.03.03,10.42,1.53,13.21,4.53,2.77,2.97,4.16,7.35,4.16,13.08s-1.39,10.06-4.16,12.96c-2.8,2.93-7.18,4.28-13.21,4.19-5.2-.08-10.4-.12-15.56-.17v-34.65Zm83.45,18.97c0-7.15,1.57-12.33,4.73-15.58,3.13-3.23,7.54-4.85,13.32-4.74,5.77.12,10.21,1.89,13.37,5.42,3.14,3.5,4.68,9.04,4.68,16.48s-1.55,12.82-4.68,16c-3.16,3.21-7.6,4.56-13.37,4.17-5.77-.39-10.18-2.32-13.32-5.8-3.16-3.51-4.73-8.8-4.73-15.96Zm61.23,42.38c8.17,1.06,16.39,2.16,24.61,3.37v-58.55c.05,0,.1,0,.16,0,2.39,9.91,4.8,19.91,7.18,29.98,2.4,10.15,4.79,20.44,7.23,30.81,6.82,1.12,13.68,2.32,20.55,3.55,2.39-10.02,4.8-20.17,7.18-30.4,2.4-10.31,4.79-20.75,7.23-31.29h.16v64.51c8.17,1.64,16.39,3.44,24.61,5.23v-95.37c-12.75-.08-25.44-.16-38.13-.24-1.87,8.46-3.74,16.86-5.62,25.2-1.86,8.26-3.75,16.46-5.62,24.6-.05,0-.1,0-.16-.02-1.87-8.46-3.74-16.86-5.62-25.21-1.87-8.29-3.75-16.52-5.62-24.7-12.75-.06-25.44-.12-38.13-.18v18.33c-.31-.72-.63-1.42-.99-2.1-3.12-5.89-7.07-10.2-11.86-12.92-4.78-2.71-9.62-4.37-14.46-5.04-4.89-.68-10.14-1.02-15.87-1.01-5.67,0-10.98.33-15.82.97-4.89.65-9.73,2.23-14.51,4.7-4.78,2.47-8.74,6.35-11.86,11.64-.42.7-.78,1.44-1.14,2.22-1.4-3.56-3.34-6.48-5.77-8.8-5.78-5.49-14.72-8.26-26.74-8.27-17.58-.01-35.17,0-52.7,0v69.87c17.74-.03,35.48.07,53.27.51,11.55.28,20.3-2.16,26.17-7.64,2.35-2.2,4.27-5.03,5.67-8.4.36.89.78,1.72,1.25,2.53,3.12,5.44,7.08,9.54,11.86,12.32,4.79,2.78,9.63,4.64,14.51,5.66,4.84,1.01,10.15,1.74,15.82,2.25,5.72.51,10.98.68,15.87.51,4.84-.17,9.68-1.33,14.46-3.49,4.79-2.16,8.74-5.98,11.86-11.49.36-.64.68-1.29.99-1.98v18.33Zm-291.54-30.37c-5.46.38-10.93.73-16.34,1.11,1.3-4.44,2.7-8.86,4.01-13.27,1.3-4.39,2.71-8.77,4.06-13.12.05-.01.1-.01.21-.01,1.3,4.26,2.7,8.5,4.01,12.72,1.3,4.21,2.71,8.4,4.06,12.57Zm256.45,207.71c-33.54,29.83-77.72,47.96-126.13,47.96s-90.88-17.43-124.17-46.23c6.19.43,12.53-1.62,17.32-6.1,4.11-3.84,5.48-8.14,8.02-12.85.66-1.14,1.32-2.29,1.87-3.48,2.33,2.9,5.42,5.22,9.05,6.86,4.16,5.59,10.72,8.95,17.75,9.21,5.96.22,9.91-1.22,14.63-4.64,2.2-1.42,4.12-3.23,5.68-5.32,2.33-1.37,4.23-2.82,6.19-4.89.77-.78,1.49-1.61,2.14-2.49.35,1.23.75,2.44,1.21,3.62.32,1.71.85,3.38,1.55,4.98.64,1.45,1.42,2.83,2.33,4.12.37.59.77,1.17,1.19,1.72.58,1.3,1.23,2.58,1.94,3.82,1.17,2.03,2.63,3.87,4.35,5.44,2.2,5.38,6.41,9.65,11.76,11.9,4.2,5.51,10.26,9.34,17.38,9.6,7.89.29,15.16-2.96,19.72-9.49,2.64-3.78,4.05-8.12,4.02-12.66,2.54-5.13,3.04-10.85,1.5-16.46-.12-.45-.28-.96-.27-1.43.02-1.59-.07-2.87-.35-4.45-.08-.45-.19-.96-.25-1.42.18-1.19.23-2.29.24-3.52,0-.2,0-.4.01-.59,1.48.43,2.99.69,4.54.79,2.09.38,4.22.54,6.34.43,1.03.12,2.06.21,3.11.23.67.05,1.34.07,2.01.07,1.27.18,2.54.25,3.82.2,2.32.51,4.7.71,7.07.64,1.63-.05,3.26-.28,4.84-.67.61-.09,1.22-.2,1.82-.34-.68,2.19-1.15,4.45-1.38,6.71l-.73,5.01c-1.59,10.86,4.84,21.15,15.33,24.39,8.2,2.53,16.77.53,22.7-5.43,4.72-.98,8.98-3.5,12.15-7.17,2.68-1.22,4.53-2.38,6.94-4.52.67-.49,1.88-1.01,2.84-1.54,2.51,3.5,5.96,6.29,9.91,8.01ZM345.64,24.35c49.43,0,94.45,18.89,128.23,49.85-10.04-.68-20.76-.21-29.08.89-8.18,1.08-17.25,4.11-24.61,8.45-9.87-5.27-21.2-7.14-32.34-7.14-57.69,0-115.37.07-173.06.24,34.06-32.4,80.13-52.29,130.85-52.29Zm0-18.34c62.25,0,118.11,27.33,156.26,70.62l51.35.25c.11,0,.22,0,.34,0l69.77.45c3.23.02,5.85,2.66,5.85,5.89v95.33c5.93,1.26,10.75,4.23,14.5,9.87,4.25,6.39,4.89,12.99,2.77,20.27-.58,1.99-1.4,3.89-2.47,5.66.4,6.6-1.92,12.6-6.18,17.17,1.39.83,2.75,1.74,4.07,2.82,3.66,1.87,6.56,4.55,8.82,8.04l.95,1.46c.86,1.32,1.59,2.71,2.17,4.17.48.57.92,1.16,1.34,1.77.44.44.86.88,1.28,1.34,3.18,3.51,5.24,7.84,5.9,12.52.79,2.65,1.09,5.41.9,8.17.27,1.14.45,2.29.55,3.46.51,5.64.39,11.9-1.54,17.28-1.94,5.86-3.55,7.57-7.65,11.93-1.79,1.9-3.85,3.51-6.14,4.73-.78,1.32-1.42,2.38-2.67,3.71-2.77,2.94-6.41,4.93-10.16,6.33-1.24.47-2.51.84-3.81,1.1-.61.5-1.24.96-1.9,1.4l-2.11,1.99c-.08.07-.15.13-.23.2-2.36,2.01-4.92,3.47-7.81,4.41-1.78,1.38-3.76,2.47-5.88,3.27l-1.12.42c-1.14.43-2.3.77-3.48,1.01-.54.43-1.1.84-1.67,1.23l-1.92,1.81c-.08.07-.15.13-.23.2-4.28,3.64-7.55,4.39-12.84,5.36-.52.1-1.04.17-1.57.23-3.23,3.72-7.6,6.27-12.5,7.23-3.16.62-6.15.49-9.2-.14l-2.82.82c-2.58.96-4.22,1.51-6.94,1.98l-1.38.42c-3.01,1.25-5.17,1.59-8.44,1.68-.54.02-1.02.04-1.55.19-1.74.51-3.14,1.12-4.99,1.55-.61.15-1.03.32-1.61.56-2.1.9-4.14,1.24-6.39,1.51-3.47.58-6.65,1.05-10.16,1.21-1.36.3-2.75.47-4.14.51-2.32.48-4.7.67-7.06.55-.04,0-.07,0-.1,0l-6.98-.47c-1.83.31-3.7.41-5.55.32-1.98-.1-3.92-.48-5.81-1.04-37.87,39.25-91,63.67-149.85,63.67s-106.61-22.01-144-57.83c-3.9,4.89-9.86,8.12-16.73,8.3-8.63.22-15.32-3.44-19.98-10.19-6.16-1.69-11.14-5.94-14.54-11.36-5.96-2.84-10.41-8.06-12.3-14.4-1.86-1.91-3.37-4.12-4.5-6.54-.46-.97-.88-1.96-1.26-2.96-1.12.71-2.31,1.35-3.56,1.95-1.76,2.14-3.91,3.92-6.34,5.26-4.3,3-9.33,4.25-14.56,3.77-5.23-.49-10.05-2.44-13.91-6.04-1.62-1.51-2.72-2.94-3.79-4.64-1.12-.54-2.19-1.17-3.21-1.88-4.63-.78-8.96-2.83-12.45-5.95-4.17.13-8.3-.96-11.92-3.09l-.41-.17c-1.97-.56-3.86-1.38-5.6-2.45-4.16-.74-7.96-2.63-11.03-5.52-4.31-1.55-8.09-4.37-10.76-8.1-.38-.21-.76-.43-1.12-.65-4.47-.78-8.57-2.81-11.86-5.93-10.25-3.62-16.84-13.59-15.63-24.66,1.15-10.6,9.33-19.29,19.92-20.9l6.62-1c3.41-.7,7.06-1.13,10.56-1.21,1.42-.33,2.87-.54,4.33-.61l8.04-1.1c1.09-.17,2.19-.27,3.3-.3.83-.13,1.66-.23,2.49-.28,1.87-.18,4.2-.13,5.97-.49.81-.22,1.63-.39,2.45-.52,2.15-1.24,4.49-2.11,6.94-2.6,1.32-.57,2.69-1.03,4.08-1.38l-17.03-16.75c-1.17-1.15-1.76-2.56-1.76-4.2V83.38c0-3.23,2.62-5.87,5.85-5.89l74.41-.53c10.62-.08,20.73,1.32,29.35,6.77l1.18-3.14c.88-2.34,3-3.81,5.49-3.82l10.95-.04C227.46,33.38,283.35,6.02,345.64,6.02Zm323.7,264.68c.04-2.71-.29-5.42-.99-8.04-.06-.21-.1-.39-.13-.6-.93-5.6-3.47-10.77-7.28-14.98-.42-.46-.84-.91-1.24-1.38-.39-.46-.67-.9-.92-1.45-.58-1.29-1.27-2.49-2.05-3.68-1.92-2.95-3.67-5.52-6.44-7.71-2.15-1.71-2.93-4.48-1.99-7.06,1.03-2.8,1.61-5.73,1.74-8.71.04-.86.22-1.59.58-2.38.65-1.4,1.2-2.86,1.63-4.34,3.91-13.48-1.2-28.02-13.75-34.78-2.08-1.12-3.29-3.15-3.29-5.51v-86.86c0-6.54-5.3-11.87-11.84-11.91l-116.04-.66c-1.79-.01-3.34-.69-4.56-2.01C462.14,24.77,405.47,0,345.64,0s-116.53,24.78-157.18,68.69c-1.23,1.33-2.79,2.01-4.6,2.01-3.76,0-9.52-.23-12.63,2.31-1.72,1.4-3.86,1.79-5.96,1.08-7.37-2.49-15.24-3.19-22.98-3.13l-74.41.53c-6.53.05-11.82,5.37-11.82,11.91v134.62c0,3.25,1.24,6.21,3.56,8.49l1.27,1.25c1.75,1.72,2.33,4.14,1.54,6.46-.79,2.33-2.71,3.9-5.14,4.21l-14.17,1.79c-.2.03-.38.04-.59.05-3.6.11-7.2.55-10.73,1.25-.1.02-.19.04-.29.05l-6.32.96c-13.28,2.02-23.54,12.87-24.99,26.2-1.41,12.9,5.74,25.04,17.62,30.2.55.24,1,.51,1.47.89,2.96,2.42,6.37,4.21,10.04,5.3,1.13.33,2.02.89,2.82,1.75,2.65,2.87,5.88,5.17,9.46,6.75.53.23.95.49,1.4.85,3.14,2.53,6.78,4.33,10.69,5.3.51.13.93.29,1.4.53,1.42.75,2.9,1.37,4.43,1.86.37.12.68.25,1.02.44,3.17,1.7,6.66,2.8,10.24,3.2,1.06.12,1.95.45,2.83,1.05,3.05,2.09,6.46,3.61,10.05,4.49,1.39.34,2.48,1.04,3.37,2.15,5.52,6.86,11.5,10.12,20.31,10.94,6.17.57,12.36-.84,17.59-4.17,1.57-1,3.31-1.25,5.1-.73,1.79.52,3.13,1.66,3.92,3.34,2.45,5.19,6.36,9.55,11.27,12.53.72.44,1.26.93,1.77,1.61,3.35,4.5,7.73,8.16,12.93,10.33.93.39,1.65.91,2.31,1.68,5.89,6.82,13.88,10.15,22.87,9.92,4.58-.12,9.07-1.33,13.07-3.57,2.35-1.32,5.13-1.03,7.16.74,84.03,73,210.39,69.22,290-8.56,1.29-1.26,2.88-1.86,4.69-1.77,2.12.11,4.34-.09,6.46-.2.26-.01.48-.01.74,0l6.26.42c2.93.2,5.39-.24,8.27-.58,6.55-.78,15.61-1.09,21.71-3.41.18-.07.34-.12.53-.17l6.15-1.74c.46-.13.87-.2,1.36-.23,2.54-.14,4.83-.49,7.22-1.41.62-.24,1.21-.48,1.85-.66.21-.06.39-.1.6-.14,2.41-.44,4.67-1.13,6.97-1.97.97-.35,1.87-.46,2.89-.33,2.95.35,5.88.27,8.8-.3,4.87-.96,9.39-3.17,13.12-6.43.87-.76,1.78-1.21,2.91-1.43,5.35-1.05,9.42-2.74,13.6-6.3.49-.42.98-.85,1.46-1.28.68-.6,1.36-1,2.22-1.28.62-.2,1.23-.42,1.83-.65,2.54-.96,4.42-1.84,6.67-3.36.42-.29.82-.49,1.3-.67,3.17-1.19,6.04-2.92,8.62-5.12.61-.52,1.21-1.05,1.81-1.58.69-.61,1.38-1.01,2.26-1.29.74-.24,1.47-.5,2.2-.77,5.92-2.22,10.53-5.01,14.25-10.2.47-.65.96-1.13,1.63-1.57,1.95-1.29,3.75-2.82,5.36-4.52,4.51-4.8,6.82-7.71,8.93-14.04.01-.04.02-.07.04-.1,2.21-6.23,2.41-13.2,1.82-19.73-.09-.94-.21-1.88-.38-2.81-.08-.42-.11-.79-.1-1.22Zm-364.65-87c.07-.42.1-.8.1-.99-.65-.61.31-1.75.61-2.03.5-.47.18-.78-.42-1.19-.33-.3-.55-.21-.7.17-.33.18-.5.47-.3.77l.25.5c-.91.36-1.44,1.22-1.46,2.1-.21.19-.38.41-.53.63l-.27-.02c-.23.09-.34.14-.67.14l-.53-.04q-.02.13-.14.18c-.44.05-.86-.03-1.14-.29-.57.22-1.25-.24-1.82-.02l-1.29.02s-.08.03-.12.04c.09-.2.26-.4.44-.56-.28-.11-.45-.31-.25-.5.2-.19.43-.28.13-.48.33-1.16.31-2.24.62-3.5.43-.28.81-1.24.06-1.76-.15-.1-.43-.21-.65-.12-.63.47-.11,2.54-.64,2.91-.73.56-1.36.54-.31,1.26-.65.37-.61,1.05-1.24,1.52.3.21.25.5.17.69h-.13s.12.47.12.47c-.19,0-.39.02-.59.1-.02,0-.07.02-.13.03l-.21-.83.76-.46-.58-.8c.6-.57.86-1.53.91-2.31.63-.47.36-1.06-.27-1.57l.53-1.84c-.33-.3.11-2.05.39-2.43-.63-.51.6-.57-.17-1.18q.53-.37-.25-.99l-1.36,1.03c.42.7-.76.95-.33,1.65l-.3.77c.3.21.12.49-.08.68l-.63.47-.56,1.74c-.05.29-.33.67-.53.86.3.21.22.4.02.59l-.6.57c-.3-.21.18-.78.23-1.07-.25,0-.17-.2-.22-.4.33-.18.58-.18.25-.48.13-1.46.84-3.1.72-4.57.18-.29.13-.48-.32-.79h-.13c.4-.38,1.39-2.89,1.07-3.19-.28-.11-.75-.03-.95.16l-.33.67c-.2.19-.35.57-.28.87-.65.37-.51.96-1.01,1.43l-3.04,6.25c-.33.18-.75.46-.28.87-.43.28-.6.57-.51.96-.5.47-.91,2.31-.81,2.71l-.78,1.32c-.36-.06-.73-.15-1.05-.25l-1.31.15c.09.09.28.26.05.35-.11.05-.62-.12-.83-.16-1.84.72-5.4.16-7.48.36-.56-.51-1.06-.07-1.52.11,0,0-4.02.23-4.25.32l-2.36-.05c-.8.32-1.46-.28-2.26.03-.35.13-2.88.52-3.3.44l-1.09.06c-.47-.43-1.02-.33-1.39-.07-.88.1-2.54.38-3.48.27l-.6-.25-1.31.15s.28.26.17.3c-.23.09-.63-.12-.83-.16-1.72.68-4.76.15-6.83.36-.47-.43-1.16-.16-1.41.06-.21-.04-6.44.57-6.78.7-1-.46-1.82.59-2.82.13-.8.32-3.21-.09-4.02.23l-.74-.08c-1.49.59-2.95.3-4.45.89l-1.08.06c-.28-.26-3.51-.21-3.97-.03-.47-.43-1.5-.02-1.75.2-.42-.08-1.09.06-1.43.19l-.85-.03-.72-.21-4.4.63-.48.31c-.35.13-.78.18-1.18-.03l-1.62.02c-.69.27-.72-.21-1.75.2-.34.14-.78.18-1.06-.07-.8.32-1.66.28-2.46.6-.77-.11-1.75-.17-2.79-.17.29-.52.62-1.04.74-1.2-.16-.24-.18-.47-.21-.69-.11-1.02,1.29-1.9,1.2-2.7-.55-.05-1.06.24-1.44.43.28.14.3.25.32.48.05.45-1.8,3.43-1.91,3.65v.07c-.69.03-1.4.07-2.09.14.48-1.22.77-2.57,1.45-3.76l-.31-.37-.26.09c-.14-.01.08-.55.06-.67l-.67.05-1.03.47c-.34.64.28,1.38.35,2.06l.02.23-.27-.03c-.41-.04-1.08.01-.23.43l-.45.86-.66.16.17.35c.02.23-.26.09-.4.08l-.09.38c-.6.12-1.12.26-1.52.42-.56-.51-1.29.02-1.75.2l-1.41.06c-.35.14-.9.23-1.32.15l-1.43.19.17.3c.19.17.51.17.74.08.83.16,2.01.19,2.7-.08.51.17.97-.01,1.32-.15.62.16,1.41.25,2.18.31l-.86,1.28-.53.06.1.91c-.3.98-1.1-.22-.91,1.6.05.45-.59.85-1.12.91l-.33.76c.27.03.42.15.45.38l-.11.21c-.53.06-.77.38-1.01.69h-.14c-1.64-.17-2.45,4.93-3.68,4.82-.27-.03-.56-.16-.84-.3l.7-1.06c.14.01.94-.02.39-.19l.4-1.31c-.72-.4-.5-.95.2-.66.35-.53-.17-.35-.21-.69-.08-.8,1.93-2.18,1.8-3.43-.02-.23-.05-.45-.2-.58,0,0,.11-.21-.02-.23-.27-.03-.41-.04-.67.05-.86.82-.88.59-.78,1.61.01.11.02.23-.1.33l-.29-.14c-.95-.09-.15,3.7-1.61,2.66-.23.43.21.69,0,1.24.42.15.58.39.62.73l-.1.33c-.15-.13-.28-.14-.42-.15-.68-.06.25,2.39-1.03,1.82-.86.82-1.71,1.75-2.28,2.71l-1.1-.22c1.06-1.48,2.08-2.05,2.97-3.88-.15-.13-.17-.35-.18-.47-.06-.57.66-1.4.89-1.83l-.31-.37c.23-.43,1.51-2.33,1.48-2.67-.01-.11-.02-.23-.16-.24-.68-.06-1.66,2.21-1.88,2.64l-2.41.22c-.52,1.53-2.72,6.27-3.24,6.45-.41-.04-.82-.08-1.08.01-.12.1-.11.21.02.23l.17.35-.2.66c-.68-.06-.74-.63-.65-1.07-.68-.06-.85-.42-.49-.83l-1.91-.18c.2-.66,1.53-3.46,1.5-3.68,0,0-.01-.11-.15-.13-.27-.03-.65.28-.91.37-.22.43-.98,2.27-1.68,1.98l-.71.95-.15-.13-2.55-1.14-.95-.09c-.55-.05-1.08.01-1.03.47l.47.61c-.66.16-3.09.16-3.01.96.02.23-.24.32-.51.29l-.36.42-1.23-.12-1.01.69c.06.57-.61.62-1.17.45.1.91-2.59-.24-2.47.89.09.91-2.06.93-2.88.85l.05.45c.12,1.14.04,1.69-1.46,1.55l-1.32,1.56c-.95-.09-1.77,1.18-2.26,1.59-1.5-.14-3.43,2.04-4.17,2.76.13,1.25-1.5-.14-1.36,1.22.02.23-.52.18-.66.16.05.45-.45.86-.98.92.08.8-.51.29-.82-.08-.1.33-.77.38-1.18.34l.5.95c.12-.1.23-.43.36-.42.27.03.31.37.32.48l-.87.71-1.18.34v1.35c-.54-.05-.94.02-1.31.33-.41-.04-.24.32-.21.54.04.34-.23.43-.63.39.05.45-.24.31-.65.28-.27-.03-.25.2-.23.43.05.45-.51.29-.46.74-.98.92-2.4,1.57-2.95,2.76.06.57-.45.86-1.16.57.13,1.25-2,1.5-1.87,2.75-.76.49-1.38,1-1.99,1.61.05.45-.5.4-.44.97-1.28.67-2.64,1.89-3.33,3.06-.82-.08-.03,2.25-1.13,2.14-1.23-.11-1.14.68-1.83.62l-.35.53-.51.29-.45.86c.02.23.1.91-.31.87-.09.44-.59.84-1.13.79l-.43,1.08c.04.34-.05.78-.44.97l-.72.83c-1.36-.13-.49,1.75-1.86,1.63-.08.55-.46,2.09-1.27,2.02-.36.42-1.78,2.31-2.44,2.47l-.59.85c-.68-.06-.04.9-1.27.78l-.31.87-1.87,1.51-.4,1.31c.15.13.43.27.44.38.01.11-.53.06-.53.06-.82-.08-1.99.38-1.91,1.06.05.45-.47.63-.41,1.2l-1.97.49-2.45-.23c.04.34-3.3.7-3.36.14l-2.18-.2c-.1.33-.63.39-1.04.35l.04.34c.06.57-2.63.65-3.29.82l-1.51-.25c-.55-.05-1.2.11-1.71.4.12,1.14-2.29.01-2.16,1.26l-2.02.04-.7,1.06c-.92-.09-1.76.57-1.75,1.33-.53.14-1.03.25-1.22.08-1.08.31-2.83.07-3.91.38l-.59-.04c-2,.58-3.02.4-5.02.98l-1.05.1c.02-.21-2.97-.03-3.59.15.04-.36-1.34.05-1.81.25-.29-.05-1.05.1-1.51.23h-.75s-.43-.14-.43-.14l-4.69.75-.78.3c-.46.13-.91.2-1.04.03l-1.5.09c-.92.27-.43-.15-1.81.25-.46.13-.91.2-.89-.02-1.08.31-1.82.32-2.9.64-2.06-.23-7.17.29-9.94,1.1.05-.43-1.2.07-1.81.25l-1.35.12c-.46.13-1.07.24-1.36.19l-1.51.23-.18.26c-.02.14.28.12.59.04.58.11,1.63.08,2.55-.19.28.12.9-.05,1.36-.19.72.21,2.21.19,3.1.2.58.18,1.46.27,2.38,0l.43.15,1.23-.36c.28.13,1.04-.03,1.51-.16l.56.32c.61-.18,1.38-.33,1.66-.21.77-.22,1.77.11,2.2.26l.46-.13c0,.07-.95.48-1.1.53l-1.21.14c-.61.18-.92.27-.95.56l-.02.22,1.69-.49c-.05.5.99.47.94.98,3.01-.33,4.27-.97,5.51-.01l2-.58c.42.22,1.31.31,2.23.04-.06.57,2.76-.74,2.69-.09-.61.18-.8.51-1.41.69-.46.13-1.07.24-1.2.07-.31.09-2.16.7-2.13.41-.3.02-3.33.49-3.38.99l-1.21.14c-.28-.13-.73-.13-1.17-.14l-1.38.4-.71-.28-1.54.45-.74-.06-.03.29-1.51.16c-.84.87-.58-.11-.56-.32.02-.22-.28-.2-.74-.06-.58-.11-2.28.46-3.18.51l-.52.71,1.34.03c.62-.18.89.02.71.28.61-.18,1.22-.29,1.66-.21l1.23-.36c.58.11,1.18.07,2.11-.2l1.04.04,1.83-.4c.15.03.44.08.42.22-.04.36-1.83.4-2.29.53l-.07.64.62-.25c.46-.13.59.04.58.18.29.05.73.13.86.3l1.21-.14.08.67.28.2c-.03.29.44.08.9-.05.15-.04.3-.02.45,0,.15.03,1.05-.1,1.04-.03,0,.07-.32.16-.32.16-1.38.4-2.4.22-3.63.58-.31.09-.47.21-.48.35l-1.26.65.87.23c.77-.22.89.02,1.81-.25l-.03.29c-.06.57,1.88-.83,1.77.11.74.06,1.32.17,1.9.35,1.23-.36,1.96-.23,2.85-.21-2.17.77-2.75.67-3.98,1.02l-.05.5.84.52c.16-.12.49-.42.65-.47.31-.09.28.12.28.2l3.02-.4c.74.06,1.47.12,2.05.3,1.06-.17,1.95-.15,3.03-.47,1.06-.17,3.01-.33,3.73-.12l3.2-.73.73.13-.8.51-.62.25-2.57.33c0-.07.05-.43-.26-.34-.15.04-.32.23-.48.35l-1.36.19-1.12.67c.89.02,2.11-.27,3.04-.54l-.36.59c.77-.22,1.25-.57,2.02-.8,1.04.04,2.38,0,3.76-.41.77-.22.84-.87.87-1.16l.04-.36c-1.99.51-3.44.17-5.25.35,0,0-.46.13-.45.06,0,0,1.1-.53,1.25-.57-.04.36,1.78.03,2.39-.07,1.19,0,2.53-.05,3.72.02,1.23-.36,1.79-.04,2.87-.35l-.52.64-1.04.03-1.41.69c-.29-.05-1.03-.12-1.08.31,0,0-.31.09-.32.16,0,.07,1.65-.14,1.95-.15l.13.17-.77.22c-.08.72,1.19,0,1.14.43l1.22-.29,1.1-.53.6-.04.43.15.32-.23,2.1-.2-.35.45,1.69-.49c-.05.43.11.38,1.03.12-.03.29.43.15.89.02.61-.18.89.02,1.51-.16v-.07s1.21-.14,1.21-.14c.47-.14.74-.05,1.12-.09-.28.53-.93.91-.85,1.68-.24.31-.47.63-.87.71-1.35,1.34-1.39,3.47-2.86,4.91.04.34-.62,1.85-.74,1.96.07.68-1.57,1.77-1.45,2.9.49.83,1.58.94,2.4,1.01.55.05.94-.02.88-.59l.9-.48c1.64.15,1.48-1.32,2.63-2-.01-.11-.05-.45.23-.43.41.04.87.53,1.41.58v.11c.06.45-.18.77-.72.72l.09,2.15c.02.23.18.47.46.49,1.09.1,2.19-1.03,2.09-1.94.55.05,1.08-.01,1.45-.31.07-.67.5-1.64,1.46-1.55.14.01.82.08.79-.15-.05-.45-1.39-.35-1.41-.58-.04-.34.34-.64.59-.85-.08-.8,1.83-.62,1.71-1.75l.4-.08c.27.03.56.16.59.51l.44.38c-.19.77-.8,1.39-.72,2.18-.55-.05-.51.29-.47.63.01.11-.11.21-.25.2l.23.92-.59.85c-1.23-.11-.56,2.42-.5,2.99.04.34-.22.43-.63.39.1.91-.96,1.15-.85,2.17-.55-.05-.5.4-.33.76-.71.95-1.42,1.89-2,2.85.05.45.6.62,1.01.66l.27.03.98-.92.92-.25-.06-.57c-.02-.23-.08-.8.46-.74l.45-.86c-.05-.45.37-.3.78-.26.55.05.36-.42.34-.64-.05-.45.2-.66.61-.62l.04-.9c-.14-.01-.27-.03-.28-.14-.04-.34.49-.52.53-.06l2.03-1.27c-.06-.57.46-.74.4-1.31l1.13.44c.68.06.87.53,1.55.59.55.05.92-.25.87-.71.96.09.93-.14.86-.82,1.5.14.87-.71,1.31-1.68-.27-.03-.41-.04-.43-.27-.04-.34,1.35-1.34,1.47-1.44,1.36.13,2.21-.81,2.23-1.93l1.83-1.85c-.02-.23-.07-.68.2-.66.68.06,1.01.66,1.56.71.27.03.24-.32.23-.43l1.12-.91c.68.06.92-.25.87-.71-.1-.91.49-1.75.4-2.66,1.5.14.49-1.75,1.58-1.65-.08-.8.93-.14,1.48-.09.95.09.72-.83,0-1.24-.02-.2.12-.35.33-.49l1.02-.09v.07s2.69-.16,2.69-.16l1.53-.38.4.44c-.31.09-1.68.42-1.71.71-.02.14.44.08.74,0,.88.09,2.08.02,3.13-.08.61-.18.74,0,1.36-.19.87.23,3.13-.08,4.35-.3-.02.14.29.05.44,0,.46-.13,2.02-.8,2.05-1.09,0-.07-.45.06-.61.11l-1.35.12c-.61.18-1.07.24-1.51.16-1.08.31-2.29.53-3.02.4l1.34-1.36.15-.04c.15-.04.27.27.26.34-.05.43,1.06-.17,1.38-.4l.45-.06c-.08.72-.24.83,1.14.43,1.08-.31,4.1-.78,5.16-.95l1.04-.03-.35.52-4.3,1.19c-.07.64,2.42-.36,2.37.14l2.54-.12c1.23-.36,1.48.05,2.56-.26l.72.21,1.51-.16,1.01.26,1.84-.54c.9-.05,2.1-.13,3.02-.4l.43.15.81-.04-.06.05c.77,7.38-.81,15.45-1.01,22.63.43.27.62.73.65,1.07-.55-.05-.63.39-.6.73.12,1.14,1.07,7.64,2.3,7.75v1.35s-.46.74-.46.74c.2.58.77.86.82,1.43l1.24.23c.53,2.52,1.04,4.82,2.26,7.41.95.09-.4-3.86-.46-4.43-.01-.11-.07-.68.2-.66.27.03.78.97.94,1.21v.11c.05.34.36.71.9.76l.02.23c.04.34.33.59.75.75l2.04,6.6c.89.76,1.27,4.39,1.35,5.19.55.05-.31-2.95-.38-3.64-.17-1.59,1.07-.12.83-2.4-.19-1.82-.79-3.67-.98-5.49-.04-.34.65-.28.92-.25l-1.06-6.29s-.04-.34.1-.33c.14.01.32.48.33.59.02.23.59,5.68,2.23,5.83l.53-.06-.31-1.72s-.04-.34.1-.33c0,0,.5.95.53,1.17l2.11,12.46c.01.11.02.23.16.24.27.03.7-1.06.81-1.27l-.36-2.17c-.01-.11-.02-.23.11-.21.41.04.69.18.99.43.9,2.11.58,5.57,2.1,7.17-.37.3-.47.63-.43,1.09.11,1.02,1.74,5,2.01,5.03l.94-.02-.33-1.83c-.23-2.16-.17-4.18-.55-6.58l.51-.29-.52-6.24c-.11-1.02-.65-3.66.99-3.39l-.27-1.26.41.04c-.31-2.95-.06-5.74-.38-8.81l.63-.39c-.1-.91.22-1.78.26-2.68h.14s.05-.77.05-.77c.27.03.82.08.78-.26l-.05-.45-1.11-.33-.2-1.93c-.1-.91.23-1.67.14-2.57l.94-.02.04.34c.04.34.2.58.61.62-.04-.34.04-.9.43-1.09-.04-.34.23-.43.2-.66l-.02-.23-.73-.52-.32-.48h-.14s-.04-.35-.04-.35h1.08s-.68-1.31-.68-1.31c.09-.44.45-.86.84-1.05-.27-1.26-.97-2.79-.81-3.9-.43-.27-.63-.85-.68-1.3.41.04.76-3.08.71-3.53.37-.3.46-.74.41-1.2l1.09.1.04-.9.55.05c.55.05.52-.18.47-.63l-1.93-.41c-.12-1.14.72-4.77,1.94-4.65l.04.34c.04.34.2.58.6.62-.05-.45.04-.9.41-1.2-.05-.45.5-.4.45-.86-.04-.34-.59-.51-.87-.53l-.32-.48-.42-.15c-.82-.08-.49,1.75-1.04,1.7l-.02-.23v-1.35s.83-1.05.83-1.05l.05.45,1.64.15-.54-1.29.33-.76.51-.29c-.07-.63-.06-1.64-.64-2.29l.27-.17-.11-.31,1.68-.35.52-.71c-.97.28-1.78.24-2.48.18v-.05c.38-.05.74-.11.99-.18l1.04-.03c.8-.51,2.21.19,3.01-.33.31-.09.75-.08.91-.13,0-.07-.13-.17-.43-.15l-1.2.07-.44-.08.68-.2c.35,0,.7-.05.92-.2l.82.03c-.02.14.58.11,1.2-.07.44.08,1.46.27,1.94-.01.17-.19.05-.43.22-.69.45,0,1.04.04,1.65-.14.31-.09.47-.21.48-.35l.23-.2c2.51.66,5.23-.41,7.66.13.37-.3.77-.38,1.32-.33.73-.72,2.53-.33,3.62-.22-.11-1.04,1.32-.89,2.42-.72l-.38.88c.2.79-.63.96-.46,1.65l-.63.47-.25.97-.83.66.3,1.18c-.23.58-.53,1.35-.38,1.94l-.43.28-.78,1.83.15,1.08h-.38c-.5-.03-.55.26-.48.56-.23.09-.4.38-.35.57.02.1.15.1.28.11l.95.82c.17.69-.18,1.26,0,1.95-.25,0-.48.08-.53.37h-.25c-.23.08-.2.18-.05.28h.13c-.03.39.07.79.15,1.08-.25,0-.73,1.54-.91,1.83.27,1.08-.88,1.44-.66,2.32l-.51.96.07.3h-.25c-.6.56-.81,1.72-1.64,2.38l-.26,1.46.78.61.6-.08.02,1.08,1.08.33c-.17-.69.31-1.26.68-1.74-.05.29-.1.58-.05.78l-.33.67c.63.51-1.13,1.43-.51,1.94.05.2-.13.48-.1.58.13,0,.35-.09.43-.28l.3-.77.3-.28.22.89-.45.67c-.25,0-.4.38-.3.77-.3.28-1.01.94-.68,1.25.28.11.75.03,1.15.14-.18.29-.45.67-.36,1.06.05.2.2.3.45.31l.58.31c-.18.29-.1.58-.4.87l1.3.24c-.1-.39.08-.68.41-.87-.33-.3-.75-.52-1.13-.53.03-.39-.1-.88.1-1.07-.07-.3.13-.48.3-.77.3.21.6.41.93.23l.33-.18-.95-.33c.35-.09.58-.18.83-.17,1,.03.58-1.64,1.46-1.61l.2.3c-.1.58-.36,1.06-.58,1.64l-.83.66c.6.41-.72,3.59-.99,3.97.17.2,1.43,1.22,1,1.5-.23.09-.43.28.02.59-.6.57-.79,2.32-.79,2.81.65.61-.31,1.75-.61,2.03-.5.47-.18.78.42,1.19.33.3.55.21.7-.17.33-.18.5-.47.3-.77l-.25-.5c.91-.36,1.44-1.22,1.46-2.1.6-.57.91-1.34,1.51-1.9-.15-.1-.3-.21-.22-.4.2-.19.45-.18.13-.48l.08-.68,1.38-.93.33-.18c.15.1-.03.39,0,.49-.35.09-.23.58.25.99.78.61,2.58.38,3.34.41-.33.18-.35.57.12.98l-.33.67c.07.3-.2.68-.51.96.28.11.45.31.25.5-.2.19-.43.28-.13.48-.33,1.16-.31,2.24-.62,3.5-.43.28-.81,1.24-.06,1.76.15.1.43.21.65.12.63-.47.11-2.54.64-2.91.73-.56,1.36-.54.31-1.26.65-.37.61-1.05,1.24-1.52-.3-.21-.25-.5-.17-.69h.13s-.37-1.47-.37-1.47c.33-.18,1.48-.53.71-1.15-.02-.1.2-.19.38.01.15.1.4.6.32.79-.45.18-.23.58-.51.96l.27,1.09-.75.46.57.8c-.6.57-.86,1.53-.91,2.31-.63.47-.36,1.06.27,1.57l-.53,1.84c.33.3-.11,2.05-.39,2.43.63.51-.6.57.17,1.18q-.53.37.25.99l1.36-1.03c-.42-.7.76-.95.33-1.65l.3-.77c-.3-.21-.12-.49.08-.68l.63-.47.56-1.74c.05-.29.33-.67.53-.86-.3-.21-.22-.4-.02-.59l.6-.57c.3.21-.18.78-.23,1.07.25,0,.18.2.22.4-.33.18-.58.18-.25.48-.13,1.46-.84,3.1-.72,4.57-.18.29-.13.48.32.79h.13c-.4.38-1.39,2.89-1.07,3.19.28.11.75.03.95-.16l.33-.67c.2-.19.35-.57.28-.87.65-.37.51-.96,1.01-1.43l3.03-6.25c.33-.18.75-.46.28-.87.43-.28.6-.57.51-.96.5-.47.91-2.31.81-2.71l.96-1.63-.3-.69c1.26-.93,1.06-2.7,2.05-3.74-.1-.39.2-.68.28-.87l.73-1.54c-.17-.2-.35-.4-.02-.59.28-.38.98-.55.93-1.24-.33-.3-.15-.59.18-.78-.2-.79.46-2.13.94-2.7-.28-.11-.33-.3-.22-.4l.43-.28c.13,0,.25,0,.4.11-.05-.69,0-1.95.31-3.21.38-.48.46-1.16.41-1.84l.23-.58.43-.77c-.1-.39.35-.57.25-.97l.56-1.25.43-.28.3-.77c.5.02.48-.08.4-.38-.07-.3.3-.28.55-.27-.05-.2-.17-.69-.15-1.08l.15-.87c.1-.09.2-.19.18-.29h.13c-.03-.09.05-.29.03-.39-.02-.1.08-.19.2-.19-.07-.3-.12-.49-.07-.78-.02-.1.08-.19.05-.29l.43-.28c.23-.58.61-1.05.43-1.74.13,0,.61-1.54.56-1.74.28-1.36.69-2.71,1.39-3.86-.05-.2-.07-.3,0-.49l.18-.29q-.15-.1-.17-.2c.05-.29.25-.48.63-.47-.12-.49.6-.57.48-1.06l.3-.77c-.17-.69.68-.76.51-1.45-.05-.2.28-2.34.39-2.43-.1-.39.28-.38.18-.78.63.02.78-.36.56-.76l.26-1.95c.18-.29.48-.57.81-.75l.15-.87c-.13,0-.38-.01-.43-.21-.02-.1.3-.28.4-.38-.4-1.58,1.17-3.28,1.45-4.64.75.03.35-.57.25-.97,0,0,.74-2.52.69-2.71l.66-1.35c-.17-.69.71-.66.53-1.35-.07-.3.11-2.05.31-2.24l.2-.68c.63.02.65-.37.43-.77.1-.58.18-1.75.56-2.23l.45-.18.15-.87s-.38-.01-.4-.11c-.05-.2.3-.28.4-.38-.37-1.48,1.01-2.9,1.3-4.26.57.02.5-.47.33-.78.91.07,1.98-.11,2.6-.25.14.17.31.08.39.04.25-.14.87-.84.59-1.18-.07-.08-.32.05-.4.1l-1.03.06c-.33.18-.65.23-1.11.11-.26.14-.56.25-.89.32.09-.4.2-.93.31-1.46.55.68.59.76,1.28.39.58-.32,2.67-.7,3.4-.85l.86.03.25.6-2.41,1.18c.63.77,1.69-.29,2.18.31h2.05c.67-.36,1.32.15,1.91-.16l.84.29,1.11-.11,1.14.37,1-.54c.71-.01,1.66-.03,2.16-.3l.53.21h2.29s.99-.41.99-.41l.08.1c-.1.23-.17.46-.22.67-.75-.03-.35.57-.25.97,0,0-.74,2.52-.69,2.71l-.66,1.35c.17.69-.71.66-.53,1.35.07.3-.11,2.05-.31,2.24l-.2.68c-.63-.02-.65.37-.43.77-.1.58-.18,1.75-.56,2.23l-.45.18-.15.87s.38.01.4.11c.05.2-.3.28-.4.38.37,1.48-1.01,2.9-1.3,4.26-.63-.02-.48.57-.28.87-.1.09-.94,4.17-.87,4.47-.8.27.25,1.47-.56,1.74.17.69-.91,1.83-.74,2.52l-.28.38c.32,1.28-.38,1.94-.06,3.22l-.2.68c-.38-.01-1.14,1.92-1.04,2.31-.63-.02-.4.87-.2,1.17-.2.19-.2.68-.13.97l-.25.48-.43.28-.36,3.02.25.5c.07.3.02.59-.33.67l-.38.96c.15.59-.43.28-.21,1.17.07.3.02.59-.35.57.17.69-.08,1.17.09,1.86-1.16,1.33-2.08,4.62-1.63,6.39-.75-.03-.3.77-.2,1.17l-.28.87c.07.3.05.69-.15.87l-.13.97.4.11c.25,0,.33-.18.28-.38.4-.38.73-1.05.58-1.64.33-.18.23-.58.15-.87.63-.47,1.13-1.43,1.49-2,.53-.37,1.01-.94.86-1.53l.43-.28-.2-.79c.33-.18.33-.67.25-.97l.78-.36c-.1-.39-.1-.88.23-1.07-.12-.49.83-1.14,1.26-1.42l-.07-.3c.12,0,.47.52.54.67-.68.15-1.18.74-1.05,1.35.15.73,2.38.71,2.89.73l3.01.11s.25,0,.27.11c.1.52-2.18-.29-1.95.85.27.11,1.11.56,1.15.76.02.1-.23.09-.23.09-.31.3-.77.49-1.28.47-.19.3-.67.39-1.05.37.06.31-.67.39-.92.38l.42.84c1.26.05,2.66.82,3.87,1.28l5.02.19.33,1.04-.48.7.23,1.14c-.57.29-1.07.89-1.32,1.5l-.8.38c-.5-.02-.46.19-.4.5.04.21-.06.31-.31.3l-.4,1.12c.17.83-.88,1.2-.69,2.14-.19.3-.38.6-.73.69-1.11,1.3-.97,3.26-2.18,4.66.06.31-.4,1.74-.51,1.84.12.62-1.28,1.7-1.07,2.74.52.74,1.53.78,2.28.81.5.02.86-.07.75-.59l.77-.49c1.51.06,1.24-1.29,2.22-1.98-.02-.1-.08-.42.17-.41.38.01.84.44,1.34.46l.02.1c.08.42-.11.72-.61.7l.27,1.97c.04.21.21.42.46.43,1,.04,1.91-1.06,1.74-1.89.5.02.98-.07,1.3-.36,0-.62.32-1.53,1.19-1.5.13,0,.75.03.71-.18-.08-.42-1.3-.25-1.34-.46-.06-.31.25-.61.46-.81-.15-.73,1.61-.66,1.4-1.7l.36-.09c.25,0,.52.12.58.43l.44.33c-.11.72-.61,1.32-.46,2.04-.5-.02-.44.29-.38.6.02.1-.08.2-.21.2l.29.84-.46.81c-1.13-.04-.3,2.26-.19,2.78.06.31-.17.41-.54.39.17.83-.78,1.1-.59,2.04-.5-.02-.42.4-.23.71-.57.91-1.13,1.81-1.57,2.72.08.42.61.54.98.55h.25s.82-.89.82-.89l.82-.28-.1-.52c-.04-.21-.15-.73.36-.71l.34-.81c-.08-.42.31-.3.69-.28.5.02.29-.4.25-.61-.08-.42.13-.61.5-.6l-.04-.83c-.13,0-.25,0-.27-.11-.06-.31.4-.5.48-.08l1.74-1.28c-.1-.52.36-.71.25-1.23l1.07.35c.63.02.84.44,1.46.47.5.02.82-.28.73-.69.88.03.84-.18.71-.8,1.38.05.73-.69,1.05-1.61-.25,0-.38-.01-.42-.22-.06-.31,1.11-1.3,1.22-1.4,1.26.05,1.95-.85,1.86-1.89l1.51-1.8c-.04-.21-.12-.62.13-.61.63.02.98.55,1.48.57.25,0,.19-.3.17-.41l.94-.89c.63.02.82-.28.73-.69-.17-.83.3-1.64.13-2.47,1.38.05.3-1.64,1.3-1.6-.15-.73.84-.17,1.34-.16.88.03.59-.8-.1-1.14-.12-.62,1.47-.77,1.26-1.81l.77.13c.38.01.94-.89.88-1.2.19-.3.5-.6.84-.79l3.39.13.71-.8,3.14.12c.21-.2,1.19-.88,1.34-.16l.4.12c.38.01.59-.18.52-.5l.75-.59.69-1.52c.13,0,.19.32.19.32.12.62,1,1.27,1.76,1.3.88.03,2.05.28,1.84-.76l.44-.29-.17-.83c1,.04.79.24.9.75.08.42.96.45,1.21.46.38.01.86-.07,1.05-.37,1,.04,1.44-.26,2.57-.21.38.01.48-.08.42-.4,1.63.06,3.31-.29,4.69-.24.5.02.56.33.63.64-.17.41-.32.92-.21,1.43l.27.11-.02,1.13-.42.4c1.35,6.75.61,14.24,1.06,20.85.42.22.63.64.69.95-.5-.02-.54.39-.48.7.21,1.04,1.64,6.96,2.77,7.01l.12,1.24-.36.71c.23.52.77.75.88,1.27l1.15.15c.71,2.29,1.38,4.38,2.71,6.7.88.03-.71-3.53-.81-4.05-.02-.1-.12-.62.13-.61.25,0,.79.85.96,1.07l.02.1c.06.31.38.63.88.65l.04.21c.06.31.35.53.75.65l2.44,5.96c.88.65,1.54,3.97,1.69,4.7.5.02-.54-2.7-.67-3.32-.29-1.45.96-.17.55-2.25-.33-1.66-1.04-3.34-1.37-5-.06-.31.57-.29.82-.28l-1.52-5.72s-.06-.31.06-.31c.13,0,.33.42.36.53.04.21,1.04,5.19,2.55,5.25l.48-.09-.44-1.56s-.06-.31.06-.31c0,0,.54.84.58,1.05l3.02,11.34c.02.1.04.21.17.21.25,0,.55-1.01.63-1.21l-.52-1.98c-.02-.1-.04-.21.08-.2.38.01.65.13.94.34,1,1.89,1.02,5.09,2.54,6.48-.31.3-.38.6-.29,1.02.19.93,2.02,4.51,2.27,4.52l.86-.07-.46-1.67c-.39-1.97-.52-3.83-1.08-6.02l.44-.29-1.02-5.71c-.19-.93-.92-3.33.61-3.17l-.35-1.15h.38c-.54-2.68-.56-5.26-1.12-8.06l.54-.39c-.17-.83.04-1.65,0-2.47h.13s-.02-.72-.02-.72c.25,0,.75.03.69-.28l-.08-.42-1.05-.25-.35-1.76c-.17-.83.06-1.54-.1-2.37l.86-.07.06.31c.06.31.23.52.61.54-.06-.31-.04-.83.29-1.02-.06-.31.17-.41.13-.61l-.04-.21-.71-.44-.33-.42h-.13s-.06-.32-.06-.32l.98-.07-.73-1.16c.04-.41.34-.81.67-1.01-.35-1.15-1.13-2.51-1.08-3.54-.42-.22-.65-.75-.73-1.16.38.01.42-2.87.34-3.28.31-.3.36-.71.27-1.12l1,.04-.04-.83.5.02c.5.02.46-.19.38-.6l-1.8-.27c-.21-1.04.24-4.42,1.37-4.38l.06.31c.06.31.23.52.61.54-.08-.42-.04-.83.27-1.12-.08-.42.42-.4.34-.81-.06-.31-.59-.43-.84-.44l-.33-.42-.4-.12c-.75-.03-.3,1.64-.8,1.62l-.04-.21-.12-1.24.67-1.01.08.42,1.51.06-.61-1.16.23-.71.44-.29c-.12-.62-.21-1.66-.94-2.2-.52-2.6,1.13-2.43,3.64-2.34.5.02,1.11-.06,1.3-.36-.1-.52.65-.49,1.05-.37-.19-.93,3.79-.99,4.1-1.29,1.6.52,3.23.17,4.83-.06l.34,1.05,1.18.92c.34,1.06.33,1.81,1.84,2.18.39,1.59,4.28,3.92,6.23,4.5l-.15.33.88.4c.03.11.29.52.54.52l.75-.02,1.86.69c1.3.92,2.56,1.31,3.94,1.69l.16.1.5-.02c1.5-.05,2.87,1.08,4.06.08l.57.2c.37-.01,3.16.43,4.03.4l.22-.11c.5-.02.88.4,1.53.06.66.09,1.28.07,1.9.04l1.1.28c.46-.12,1.05-.25,1.48-.48.69.19,1.53.06,2.15.04l.9-.35-.69-.19c.43-.23.99-.46,1.61-.48l.92.5-.4.33c.53.09,1.13.39,1.7.59l-1.4-.06c-.37.01-.84.13-1.18.25.54.52,2.07.57,2.7.55,1.12-.04-.49-.73,2.48-.51l.31-.22-.67-.51.87-.03.73.3-.26-.42c.86-.46,2.42-.29,3.48-.54l.39.41.71-.13-.73-.3h-.37c1.48-.46,3.81-1.07,4.97-1.75l-.19-.21c.24-.44,2.22-.93,2.78-1.16.57.2,2.01.36,2.47.24l2.38-.82.27-.33,1.97.26.45-.55.91.08c-.15-.85,1.53-1.12,2.24-1.25l1.35-.9,1.25-.04.22-.11-.16-.1c-.07-.21,2.03-1.13,2.4-1.15-.2-.63,7.22-3.01,6.91-3.96l-1.61-.7c.65-.34,2.58-1.37,2.35-2.1,1.64-.37-.27-.85,2.67-.3l-.03-.11.61-.45.03.11c.27.85-2.57,1.79-3.38,2.03l-.35.87c.5-.02,1.09-.14,1.24-.47,2.03.04,1.98-1.67,2.98-1.7l1.97-1.73c-.08.67-.22,1.43-.35,1.56l-.23.79c-.63-.01-.67.44-.46.9-.13.68-.26,2.05-.66,2.61l-.46.22-.19,1.02s.38,0,.4.12c.04.23-.31.34-.42.45.31,1.72-1.14,3.4-1.48,4.99-.63-.01-.5.67-.32,1.02-.1.11-1.13,4.88-1.07,5.23-.82.33.18,1.72-.64,2.04.14.8-.99,2.15-.85,2.95l-.29.45c.26,1.49-.47,2.27-.2,3.76l-.23.79c-.38,0-1.22,2.26-1.14,2.72-.63-.01-.44,1.02-.26,1.36-.21.22-.23.79-.17,1.14l-.27.57-.44.33-.5,3.53.23.58c.06.34,0,.68-.36.79l-.42,1.13c.12.69-.44.33-.26,1.36.06.34,0,.68-.38.68.14.8-.13,1.37.01,2.17-1.22,1.57-2.28,5.43-1.91,7.49-.75-.02-.34.91-.26,1.36l-.32,1.02c.06.34.02.8-.19,1.02l-.17,1.14.4.12c.25,0,.34-.22.29-.45.42-.45.78-1.24.66-1.93.34-.22.25-.68.19-1.02.65-.56,1.2-1.69,1.58-2.36.54-.45,1.05-1.12.93-1.81l.44-.33-.16-.92c.34-.22.36-.79.3-1.14l.8-.44c-.08-.46-.06-1.03.28-1.25-.1-.57.88-1.35,1.32-1.68l-.06-.34c.13,0,.5.69.52.81l-.21.91c.08.46.12.69.62.7h.38s-.22-1.25-.22-1.25c.88.02,1.24-.77,2.11-.75.59-2.27-.07-3.2,2.13-4.18l-.27-1.49c.57-.33,1.07-1,.95-1.69,1,.02-.24-2.06.89-2.04.08.46.6.58.68,1.04.06.34.02.8-.34.91.04.23.41,1.61-.09,1.6-.08.23-.43,2.5.45,2.52l-.21.91c-.33.22-.52.56-.71.9l.18,1.03-.78.55.2,1.15-.4.56h.5s-.3,1.15-.3,1.15c1.23.6-.42.45-.8.44-.38,0-.46.22-.4.56-.42.45-.07,1.71-.32,2.39l1.06.36.57-1.02c-.08-.46.38-.68.77-.55-.08-.46-.04-.91.28-1.25l-.16-.92c.42-.45.59-.9.47-1.59l.48-.79v-1.37c.11-.11.32-.34.57-.33.63.01,0,1.37.06,1.71l1.13.02-.21-.46c-.06-.34.29-.45.54-.45.21-.22.52-.56.88-.67l.21-.91,1.23-.09.46-.22c.5.01.31-.34.25-.68-.02-.11.08-.23.19-.34.1-.11.23-.79.36-.79.13,0,.17.23.17.23.18,1.03-.55,1.81-.39,2.73.04.23.19.35.44.35l.66.93.75-.67c-.1-.57.38-.68.26-1.36h.5c1,.03-.75-1.37.88-1.34.4-.56.82-1.01,1.36-1.46-.16-.92.36-1.48.74-2.15.54,1.61.12,2.06.28,2.97l.88.02,1.26-.66c-.15-.12-.56-.35-.58-.47-.04-.23.33-.22.46-.22l.47-2.27c.4-.56.8-1.12,1.34-1.57.11-.8.49-1.47.34-2.28.11-.8.59-2.27,1.24-2.83l-.05-2.4.52-.56.6.58.21.46-.41,1.93c-.13,0-.75-.02-.71.21.02.11.29.23.44.35l-.19,1.02.77.82c.38-.68.34-1.59.22-2.28l.92.25c-.1-.57-.54-.92-.64-1.5.48-.79.93-1.81.74-2.84-.1-.57-1.23-.6-1.73-.61h-.63c.14,1.47-1.04,2.59-1.42,3.95,0,0,.06.34-.06.34,0,0-.52-.81-.54-.92.63.01.76-1.35.8-1.81.46-.9.91-1.92,1.49-2.82-.16-.92.63-1.36.49-2.16l.94.36-.36.79.68,1.04c-.21.22-.61.79.14.8,0,0,.04.23.17.23.13,0,.4-1.25.49-1.47l.36-.11.1.57c1.25.03.46-.9,1.22-.89l-.04-.91-.52-.81.17-.45.44-.33-.29-.23.47-1.59.67.24-.22-1.26c.75.02.73-.1.61-.79.5.01.44-.33.38-.68-.08-.46.38-.68.3-1.14h-.13s.21-.91.21-.91c-.08-.46.38-.68.3-1.14.11-.8.55-2.5,1.33-3.05l-.29-1.6.61-.1.69-1.01c.15.12.33.46.35.58-.25.68-.49,1.47-.36,2.16-.13,0-.88-.02-.84.21.02.11.29.23.44.35l-.17,1.14.79.93c.4-.56.45-1.7.3-2.5.29.23.58.47.96.48.38,0-.66-1.61-.7-1.84.59-.9,1.05-1.8.83-3.06l-1.02-.82.29-.45.52.12s.06.34.19.35c.38,0,.63-1.36.57-1.7.54.01.93-.73,1.2-1.62.17.13.25.36.32.6,1.79.36,2.96,1.4,4.51,2.09,1.26-.25,1.91.76,3.18.51,2.58.2,4.7,1.63,7.28,1.83.13.4.28.37.76.28,1.1-.22.34,1.07,1.76.79.79-.16-.13,1.16,1.44.85.32-.06.52.04.6.31,1.99.46,3.94,1.35,5.7,2.14.47-.09.99-.05,1.27.32l1.6.82c.63-.12.8.41,1.43.29l2.83,1,.08.27c.17.53.57.74,1.04.65l1.43.28c.95-.19,3.63,1.41,4.59,1.79.63-.12,1.11.35,1.75.22.56.17,1.23.18,1.86.06l.82,1.54c1.26-.25,2.39.66,3.65.41.34,1.07,2.23.69,2.61,1.9.79-.16,3.04-.46,3.33.48,2.26.26,4.14,1.45,6.25,1.75.24-.05.48-.03.72,0l-.06.16-1.15.59h-.29c-.44-.04-.69.34-1.42.3.18.4-.55.36-.84.35l.18.39c-.73-.04-2.3-.37-2.37.4-1.31-.06-1.96.68-3.33.48-.21-.14-.53-.54-.67-.55-.44-.02-.08.77-.02.9l-.49-.15c-.44-.02-.67.1-.34.5l-.86.6c-.61-.42-1.11-.57-1.75-.73-.75.22-2.58.26-3,.88-1.02-.05.27.91-.68,1l.03.39-1.16-.06-.26.37-1.31-.06c.18.39-.75.22-.9.21.24.53-1.94.42-2.23.4l.24.53c-2.47-.12-3.92,1.35-5.95,1.25-.73-.04-.31.89-1.53.7-.46.23-1.04.21-1.56.31l-.49.49c-3.05-.15-.6.87-1.9.81l-.16.89,2.32.11c.42.92,1.07.18,1.64,1.11.44.02.76.42.88.69l.24.53c-1.21.45-2.98.62-4.45.81l-1.86-.35c.18.39-1.65.43-2.08.41l-.57.62c1.31.06,2.71.65,4.01.71l.24.53c.29.01.32-.24.4-.37,4.95,1.53,1.78-1.07,3.41-.6.5.15,1.69.6,2.13.62,1.02.05.6-.87,1.7-.95l1.95.87c2.51-1.03,2.28-.92,5.99-.86.28-.63,1.13-.33,2-.29-.3-.66,3.22-.1,2.68-1.28.44.02,2.38.25,2.44.38l-.03.26c-1.45-.07-2.68,1.28-4.27,1.2-2.59,1.16-.94,1.37-5.09.65l.56.93c.06.13-.78.48-.58-.03-.81.09-1.71.3-2.64.13l-.14.64-2.11.67-1.37-.2c-2.07,1.06-6.1,1.24-8.91.97-.09.12-.17.25-.11.38.24.53,1.14.96,1.32,1.35.12.26-.96.08-1.1.07-1.21.45-6.83.56-6.47,1.35l-2.03-.1c-.29-.01-.52.1-.4.37.18.39.85.94,1.29.96.14,0,.17-.25.11-.38h10.49c-.09-.51.49-.49,1.07-.46.14,0,1.31.06.98-.34.93.17,3.29.68,3.04-.49,2.76.14,4.8-.66,7.62-.39-.54-1.19,5.43-1.15,6.07-.99.17-.25.96-.08,1.25-.07.68-1,5.79-.36,7.55-1.17.18.39-1.02-.05-.54,1-.43-.02-1.02-.05-1.19.2-.96.08-5.13.26-5.47.76l-1.07-.18.09.52-2.57.9c-.93-.17-2.42-.63-3.29-.68-1.01-.05.54,1.18-1.12.97l-1.21.46-2.03-.1c-.03.26-.08.77.1,1.16.24.53,1.39-.06,1.68-.05.58.03.61.42.73.68.18.39.53.54.96.56.58.03,1.25-.07,1.71-.3.5.15.96-.08.72-.61,3.75.44,7.64.89,11.26,1.07.73.04,3.3-.22,3.21-.74.81-.09,1.6.08,2.47.12.14,0,.58.03.46-.23,1.68-.05,2.66-.38,4.4-.3l1.21-.45,1.37.2,1.44-.57,2.03.1.92-.47,1.97-.03c.29.01.87.04.89-.21l1.41-.96,2.66-.38c-.36-.79.69-.35,1.27-.32l.26-.37c.44.02,2.09.23,1.79-.43l.55-.36c.58.03.84-.34,1.3-.58l.78.17c.73.04,1.48-.18,1.88-.55,1.02.05,2.84.01,3.47-.47l1.95.22c1.07-.46,2.19-.79,2.99-1.52,1.02.05,2.12-.02,2.95-.37-.3-.66.98-.34,1.48-.18l.34-.5c.87.04,1.62-.18,2.23-.4l.28-.63,2.29-.27.63-.48,1.91-.16c-.15-.65.74-.86,1.32-.84.29.01-.12-.26-.12-.26h.29s1.07-.45,1.07-.45l1.89.09c.27-.16.55-.3.83-.44,2.53.75,5.98,1.76,6.19,1.72.16-.03.27-.2.19-.46l-2.73-1.73c-.79.16-1.27-.32-2.06-.16l-.14-.17c.22-.16.42-.33.6-.54,1.6.08,2.75-.51,4.02-.83l.34-.5c1.02.05,2.37-.4,2.65-1.03l1.88-.55.51-.75,1.85-.29.05-.51,1.27-.32.17-.25,1.54-.05.54-1,.09.52,1.06,1.08,1.01-.59-.65-.8-.09-.52c.81-.09,1.71-.3,2.4-.65.44.67.74,1.32,1.04,1.98l2.75-.51.72-.61c-.65-.8-1.36-1.74-1.72-2.53.52-.1,1.04-.21,1.5-.44l-2.46-1.67c-.6.23-.95.73-1.35,1.09l-1.34-.45c.02-.9.71-1.25,1.72-1.2l.54-1c1.19-.2,2.25-.66,3.38-.99l.48-1.13-1.42-.33c.95-.08,2.12-.02,3.13.03l-.2-.14.68-1,1.36-.45.91,1.07c-.75.22-1.46,1.47-1.59,2.11l-2,.29-1.06,1.11c-.87-.04-1.42.32-1.76.81l1.18,1.35-.2.5c.75-.22,1.44-.57,2.13-.92l2.07.49.77-1.12-.96-.56,1.2-1.1.02-.9c1.16.06,2.35-.14,3.18-.49l1.11.57c-.07-.78.24-1.66.72-2.15l1.43.97.63-.48c.7.29,1.42.33,2.21.5l1.21-.45-2.56-.64-1-.95,1.45-2.12,1.33-.19.95-.73,1.01.05-.48-1.05c.35.15,1.05.44,1.48.46.73.04.45-.88.27-1.27l-.12-.26-1.44.57-.55-1.83,1.66-1.33.67.55-.16.89.99.31c2.65-1.03,1.25-1.61,5.41-.89l2.2-2.34c-.27-.27-.61-.42-.91-.43-1.16-.06-1.47.83-2.1,1.31l-.76-.42-.48-1.05c.26.27.41.28.7.29.44.02,1.12-.97,1.43-1.22l.19-1.15c.76.42,1.46.72,2.16,1.01l.4-.37c.25-2.56.32-3.97.07-6.69l-.97-1.21c.7-1.9-.2-3.87.35-5.77l-1.09-.83c.81-.09.13-1.28-.26-1.81l.6-.87c-.85-.94-2-1.9-3.08-2.73l-.19-1.04c-1.75-.73-2.09-2.42-2.78-3.61l-1.9-1.38,1.04-.21-.16-1.3-.95-1.46-1.9-.74.03.39-.79-.81h-.14c-1.9-2.93-7.58-5.14-10.86-7.37l-1.89-.74c-.82-.56-1.76-1.37-2.35-2.05l-1.54.05-.06-.13-1.47-1.36c-.58-.03-1.22-.19-1.8-.22l-1.18-1.35-1.6-.08-1.11-.57c-.26-.27-.44-.67-.62-1.06-1.8-.22-2.32-.11-4.16-1.36l-.38-.53-1.29-.96h-.29s-.54.99-.54.99l-.06-.13-1.58-.98h-.14s-1.54-.6-1.54-.6l-.27-.91-1.54-.59-1.27.32-2.97-.92-.89-1.33-1.4-.58.06.13-.54,1-1.55-1.24c-.99-.31-2.04-.74-2.94-1.18l-.67-.55c-1.45-.07-2.73-.39-4.42-.99l-1.12-1.21.13-1.28c1.3.06,2.55,0,2.8-1.02.87.04,1.6.08,2.53.25l1.21-.45c.87.04,1.48-.18,2.08-.41l-.79-.81-.3-.66,1.23.83c.81-.09,1.83-.04,2.7,0l-.73-.68.28-.63,1.25.58,2.33-1.43c.64.16,1.43.33,2.01.36,1.45.07,2.81-.38,4.26-.3l.98-.34,1.65.21.34-.5,1.77-.17.95-.73.43.02c2.32.12,3.97-1.86,6.29-1.75,1.74.09,3.57.05,5.04-.14l.78-.48h-.14s-1.54-.6-1.54-.6l-.61.23c.11-.38.92-.47,1.03-.85,2.18.11,3.56-.6,5.88-.48.58.03,1.25-.07,1.77-.17l.78-.48-1.63-.47c-.66.1-1.33.19-2.06.16l-.38-.53.54-1-1.23-.83-1.33.19c-.67-.55-1.58-.98-2.34-1.4-2.42-.63-4.44-.09-6.55-.07l-.61-.42,1.15-.59c.93.17,1.74.09,2.35-.14l.45-.88c-.73-.04-1.74-.09-2.41,0l-.91-.43-.21-.78c1.31.06,2.35-.14,3.65-.08l1.6.08.95-.73-1.25-.58-.18-.4-1.6-.08-.74-1.32.74-.86.73.04c.34-.5,1.03-.85,1.64-1.08l1.02.69.55-.36-.36-.79,1.71.34c2.24-1.3,4.97-.91,8.1-.89.34-.5,1.27-.32,2-.29l.22-.76c-1.95-.22-3.77-.19-5.8-.29l-7.99-1.04c-2.72.25-5.68-.02-8.4.23l-.32-.4c-8.2.37-17.1-.2-24.92.7-1.1.07-2.65,1.03-3.38.99l-1.03-.69-.72.61-1.72-.34c-.61.23-1.36.45-2.14.28l-.89.86-2.03-.1c-3.37,1.63-5.21,2.57-9.49,3.13l-.43.62c-.23.12-1.3.58-1.65.43l-.95.73-1.54.05c-1.7.95-3.42,2.15-5.05,3.22l.2.14c-1.44.57-2.74,1.15-3.24,2.54-1.74-.09-1.98,1.57-2.22,2.59l-2.13.92.14,1.55c-.28.63-.91,1.11-1.46,1.47l-.02.9-.63.48.59.67h-.15s-1.21.45-1.21.45c-.03.26-.13,1.28.14,1.55l-.19,1.15c1.01,1.59.51,2.98.38,4.27l.48,1.05c.14,0,.87.04.85.3l.74,1.32c.94.82,1.79,1.76,2.36,2.69l1.34.45c.21.78,1.04,1.98,1.78,2.66,1.49,1.1,3.1,1.83,4.45,2.92l-.54-1.18-1.58-.98-.1-1.16.12.26c1.08.83,2.08,1.78,2.94,2.72l.33,1.05,1.7,1.24.72-.61,1.29.96c.64.16,1.87.99,2.63,1.42.23-.12.75-.22,1.04-.21,1.42.33,2.73.39,4.13.98-.05.51-.6.87-.85,1.24,1.26.58,2.63,1.42,3.97,1.87l1.02.05,1.06,1.08c.38-.11,3.11.93,3.9,1.09l.32-.24-.31-1.3,1.63.47-.06-.13-.74-1.32-1.39.06-1.84-1.25-1.39.06-1.34-.45-.44-.02-1.49-1.1-1.54-.59.05-.51.53.54c2.41.63,4.38.6,6.84,2.27l1.78.47c1.35,1.1,2.84,2.2,4.28,3.17h2.41s1.19.44,1.19.44l-.19,1.15-2.18-.11c-.61-.42-1.46-.72-2.1-.88l-.37.75,1.37.84h.14s1.15.96,1.15.96c.64.16,1.28.32,1.83.61l1.45.07c4.56,2.54,9.1,3.8,13.77,5.96,1.22.19,2.47.77,3.76,1.09,1.12,1.21,2.61,2.32,3.65,3.65l-.23.12c.12.26.15.65.33,1.05l-.54,1-1.31-.06c-.45.88-1.32,3.02-1.21,4.19h-.29s-.48,1.12-.48,1.12l-.93-.17-1.15.59.31,1.3c-.28.63-.94,1.37-1.69,1.59l-.31.89c-.4.37-2.36,1.04-3,.88-.28.63-.91,1.11-1.66,1.33l.12.26c-.63.48-1.47.83-2.36,1.04-.65,1.38-2.38,1.94-4.08,2.24l-.25,1.02-1.25.07-.05.51-.73-.04-.83.99-3.01.24.24.53c-.81.09-1.36.45-1.84.94l-1.31-.06-.2.51c-.84.34-2.08.41-2.65,1.03-1.04.21-2.02.54-2.74,1.15l.03.39c-.73-.04-2.1-.88-2.5-.51l-.25,1.02-.67.1-.93-.17c.71.94-1.61.82-2.36,1.04l-1,1.05c-.19-.1-.36-.19-.51-.27-.79.16-.64-.44-1.43-.29-.25-.8-6.07-2.77-6.32-3.58-.84-.54-2.65.1-3.03-1.1-.04-.13.07-.3.23-.33,1.1-.22,4.13.89,5.29,1.37.63-.12.8.41,1.43.29.04.13.17.53.33.5.16-.03.35-.49.3-.63l1.73-.34,1.12.35.48.47,2.99.97c.47-.09.9-.32,1.13-.65.16-.03.43-.23.39-.36-.13-.4-.61-.87-1.01-1.08-2.22-.13-2.57-1.76-4.93-1.3l-.8-.41c-.47.09-.83.02-.64-.44-.16.03-.51-.04-.56-.17-.04-.13.12-.16.27-.2.63-.12,1.3-.12,1.86.06.63-.12.8.41,1.43.29.04.13.17.53.48.47.16-.03.19-.46.3-.63,1.1-.22-.16-2.1,1.41-2.41,2.06.16,4.09.75,6,1.51.28.37.92.25,1.23.18.3.93,1.15-.08,1.44.85,1.26-.25,2.23.69,3.49.45-.3-.93-2.08-1.29-3.03-1.1-.34-1.07-2.62-.33-2.96-1.4-1.76-.79-4.03-1.62-5.9-2.24-1.1.22-1.88-1.19-3.14-.94-1.59-.25-3.46-.88-4.63-1.92-.47.09-1.26.25-1.86-.06-1.58.31-1.41-1.28-2.83-1l-3.06-.67c-.25-.8-2.41.33-2.83-1l-1.27-.32c-.31.06-.95.19-1.23-.18l-1.71-.65c-.25-.8-.68-.57-1.47-.42-1.51-.55-3.16-1.51-4.73-1.19l-1.13-.91c-.34-1.07-2.41.33-2.87-1.14-.17-.53-.44-.34-.91-.24-.16.03-.31.06-.4-.21l-1.51-.55c-.63.12-1.11-.35-1.74-.22l-1.59-.25-1.24-.75c-1.26.25-1.76-.79-3.02-.54-.84-.54-1.53-1.12-2.21-1.69l-1.59-.25c-.34-1.07-2.53-.07-2.83-1-.79.16-1.11-.35-1.13-.91l-1.82.08c-1.11-.35-4.16-2.02-5.26-1.8-.47.09-.32,1.63-.2,2.03.13.4.64.44,1.11.35.34,1.07,2.9.7,3.2,1.64.13.4-.15.6-.46.66-.63.12-1.39-.15-1.95-.33-1.1.22-2.31-.96-3.16-1.51-.16.03-.63.12-.67,0-.13-.4.62-.69.53-.96,0,0-.04-.13-.2-.1l.16-.03c.47-.09.26-.76.18-1.03l.18-1.03c-1.24-.75-3.24-1.77-4.63-1.92-.79.16-1.27-.32-1.28-.88l-1.09.78-1.36-.58-.2-.64c.52-.24,1.05-.43,1.6-.52-.02-.29,2.41-1.01,2.88-.96.63.07.92-.18.88-.76,1.67-.52,2.86-1.25,4.36-2.08l1.72.2c-.06-.87-.24-1.33.85-1.2l.47.06c-.09-1.31,2.47-.14,2.36-1.89l2.02.09c-.36-.76.08-1.14.86-1.05.58-.65,1.48-1.12,2.39-1.45l.85-1.2c2.66.31,7.47-4.31,9.23-5.84,1.41.17,1.41-2.14,2.82-1.98l.23-1.27c.78.09,1-1.33.96-1.91.45-.24.57-.8.54-1.23l-.33-2.64c-.78-.09-1.12-.56-1.9-.66-.84-.96-1.26-2.6-1.48-3.64-.62.07-1.25-.15-1.3-.87-.31-.04-.62-.07-.65-.51-.02-.29.12-.56-.35-.62-.65-.51-1.62-1.06-2.13-1.69-.02-.29-.05-.73.42-.67.44-.38.7-1.07.67-1.65-.02-.29-.04-.58-.35-.62-.63-.07-1.05.6-1.83.51-.47-.06-.51-.64-.53-.93-.05-.73.56-.94,1.18-.87l.16.02-.43-1.78c-.31-.04-1.09-.13-1.12-.57-.04-.58.86-1.05,1.31-1.29l-.15-2.18-2.97-.35c-.44.38-1.05.6-1.67.52l-.6.36c-.31-.04-.77.05-.75.34v.15s-1.03.74-1.03.74l-2.79-.04-.86,1.05-1.88-.22c.06.87-3.79,3.59-3.75,4.32-1.46,1.42-2.76,2.85-3.89,4.45.08,1.16-2.62.27-2.55,1.29l-2.53,1.58c.05.73-4.23,3.97-4.23,3.97-.61.4-1.3,1.08-1.49,1.86-.02-.02-.04-.05-.07-.07h-.13s0-.05,0-.05l.1-.23c-.2-.82.63-1,.45-1.72l.63-.5.19-.77c.83-.59,1.49-1.08,1.54-1.12l.47-2.25h-1.05c.05-.28.06-.56,0-.81l.43-.3.78-1.91h0c.17-.28.36-.54.59-.75l.11-.59s.02-.09.03-.14l.05-.27c.19-.12.32-.38.27-.56-.02-.07-.08-.09-.15-.1v-.04s-.74-.7-.74-.7l-.19.03-.14-.13c-.17-.71.18-1.32,0-2.03.25,0,.48-.09.53-.4h.25c.23-.09.2-.19.05-.3h-.13c.03-.41-.07-.82-.15-1.12.25,0,.73-1.61.9-1.91-.28-1.12.88-1.51.65-2.43l.5-1.01-.07-.31h.25c.6-.59.8-1.81,1.63-2.5l.25-1.52-.78-.62-.6.09-.02-1.12-1.08-.32c.18.71-.3,1.31-.68,1.82.05-.3.1-.61.05-.81l.33-.71c-.63-.52,1.13-1.5.5-2.02-.05-.2.13-.51.1-.61-.13,0-.35.1-.43.3l-.3.81-.3.3-.22-.92.45-.7c.25,0,.4-.4.3-.81.3-.3,1-1,.68-1.31-.28-.11-.75-.01-1.15-.12.18-.3.45-.7.35-1.11-.05-.2-.2-.31-.45-.31l-.58-.32c.18-.3.1-.61.4-.91l-1.3-.23c.1.41-.08.71-.4.91.33.31.75.52,1.13.53-.03.41.1.92-.1,1.12.07.31-.13.51-.3.81-.3-.21-.6-.42-.93-.22l-.33.2.95.32c-.35.1-.58.19-.83.19-1-.02-.58,1.72-1.46,1.7l-.2-.31c.1-.61.35-1.11.58-1.72l.83-.7c-.6-.42.71-3.74.98-4.15-.18-.21-1.43-1.25-1-1.54.23-.1.43-.3-.02-.61.6-.6.78-2.42.78-2.93-.65-.62.3-1.82.6-2.12.5-.5.18-.81-.43-1.23-.33-.31-.55-.21-.7.19-.33.2-.5.5-.3.81l.25.51c-.9.39-1.43,1.29-1.46,2.21-.6.6-.9,1.4-1.51,2,.15.1.3.21.23.41-.2.2-.45.19-.13.51l-.08.71-1.38.99-.33.2c-.15-.1.03-.41,0-.51.35-.09.23-.6-.25-1.02-.78-.62-2.58-.35-3.33-.37.33-.2.35-.6-.12-1.02l.33-.7c-.08-.31.2-.71.5-1.01-.28-.11-.45-.31-.25-.51.2-.2.43-.3.13-.51.33-1.21.3-2.33.61-3.64.43-.3.8-1.31.05-1.83-.15-.1-.43-.21-.65-.11-.63.5-.1,2.64-.63,3.03-.73.6-1.35.58-.3,1.31-.65.39-.6,1.11-1.23,1.6.3.21.25.51.17.71h-.13s.37,1.53.37,1.53c-.33.2-1.48.58-.7,1.21.02.1-.2.2-.38,0-.15-.1-.4-.62-.33-.82.45-.19.23-.61.5-1.01l-.27-1.12.75-.49-.58-.82c.6-.6.85-1.61.91-2.42.63-.5.35-1.11-.27-1.63l.53-1.92c-.33-.31.1-2.13.38-2.53-.63-.52.6-.6-.17-1.22q.53-.4-.25-1.02l-1.36,1.09c.43.72-.75,1-.33,1.72l-.3.81c.3.21.12.51-.08.71l-.63.5-.55,1.82c-.05.3-.33.7-.53.9.3.21.23.41.02.61l-.6.6c-.3-.21.18-.81.23-1.11-.25,0-.18-.21-.23-.41.33-.2.58-.19.25-.5.13-1.52.83-3.23.71-4.76.18-.3.13-.51-.33-.82h-.13c.4-.4,1.38-3.02,1.06-3.33-.28-.11-.75-.01-.95.19l-.33.7c-.2.2-.35.6-.28.91-.65.39-.5,1.01-1,1.5l-3.02,6.55c-.33.2-.75.49-.28.91-.43.3-.6.6-.5,1.01-.5.5-.9,2.42-.8,2.83l-.95,1.71.3.72c-1.25.99-1.06,2.82-2.04,3.92.1.41-.2.71-.28.91l-.73,1.61c.18.21.35.41.02.61-.28.4-.98.59-.93,1.3.33.31.15.61-.18.81.2.82-.45,2.23-.93,2.83.28.11.33.31.23.41l-.43.3c-.13,0-.25,0-.4-.11.05.71,0,2.03-.3,3.35-.38.5-.45,1.21-.4,1.92l-.23.6-.43.8c.1.41-.35.6-.25,1.01l-.55,1.31-.43.3-.3.81c-.5,0-.48.09-.4.4.07.31-.3.3-.55.29.05.2.18.71.15,1.12l-.15.91c-.1.1-.2.2-.18.3h-.13c.02.1-.05.3-.03.4.02.1-.08.2-.2.2.08.31.12.51.07.81.03.1-.08.2-.05.3l-.43.3c-.23.61-.6,1.11-.43,1.82-.13,0-.6,1.61-.55,1.82-.28,1.42-.68,2.83-1.38,4.04.05.2.07.31,0,.51l-.18.3q.15.1.18.21c-.05.3-.25.5-.63.5.12.51-.6.6-.48,1.11l-.3.81c.17.71-.68.8-.5,1.51.05.2-.28,2.43-.38,2.53.1.41-.28.4-.18.81-.63-.01-.78.39-.55.8l-.25,2.03c-.18.3-.48.6-.8.8l-.1.6-.02-.02c-1.42.28-2.21-1.69-3.47-1.44l-.08-.27c-.3-.93-1.04-.65-1.83-.49l-.64-.44c-.91-.24-2.79-.87-3.04-1.67-2.52.5-4.23-1.72-6.75-1.22-.13-.4-.48-.47-.96-.38l-.95.19.31,1.5c-.47.09-1.06.35-1.09.78l-2.03-.59-.64-.44-1.59-.25c-.95.19-1.6-.82-2.86-.57-.72-.14-1.59-.25-2.22-.13-.47.09-.75.29-.62.69-1.73.34-3.64.15-5.53.52l-1.38,1.98c.63,2-1.09.78-2.35,1.03q-1.1.22-.81,1.15c.38,1.2,1.73,1.22,3,1.54l.04.13c.17.53.61.87,1.24.75.96.38,1.68,1.09,2.25,1.83.2.1.71.14.8.41.13.4-1.01,1.05-.8,1.72l-1.69,2.6c-.39.36-.33,1.06-.21,1.46,1.56.69,3.04,1.67,4.32,2.55,1.42-.28,2.04,1.16,3.3.91l2.88,1.7c.16.5.68.7,1.27.86.14.24,1.4.16,1.6.87.12.01.24.03.36.04.02.03.03.06.04.1h-.26c.07.22.02.86-.36.45l-.84,1.31c-.96.14-.82.99-1.81,1.02l-.52.34c-.22.11-.78-.08-.85-.29l-.94.99c-1.74.06-5.4,1.99-6.72,2.99-.44-.2-1.16-.07-1.65-.05l-.23-.31c-1,.03-1.85.91-3.59.97l-.36.44-.57-.2c.07.21-.36.44-.55.23l.02.85h-.12s-.61.45-.61.45c-1.25.04-.88.78-2.38.82-.75.02-.58.55-1.2.57l-.67-.51c-.79,1.84-5.18,1.13-4.7,2.61l-.62.02-.24.44-1.53-.06c-1.62.05-.41,2.26-1.41,2.29l-1.01-.39.99-.46-2.3-.89-1.25.04-.51-.41c-.87.03-.62,1.19-4.61,1.32l-.15-.85-2.05.28c-1.09-1.03-2.27-.78-2.93-2.47l-1.43.26c-.36-.68-1.15-2.49-1.72-4.06l-.61-2.06c-.06-.33-.05-.56.03-.64-1.21-2.2-.23-3.84-3.89-5.43l.51-.76,1.13.39c.25,0,.34-.12.27-.33-.19-1.38-1-2.32,1.18-2.6l-.1-.32c-.48-1.48,1.52-9.77,2.89-9.81l.17-.65-.49-.73.66-1.09-.91-.08.69-.98-.51-.41.43-.23c.41.09.08.64.08.64h.37s.24-.45.24-.45h-.12c-.03-.1.09-.11.22-.11l1.12-1.21h.37s.25-1.2.25-1.2c.5-.02,1.04.5,1.18.92h.25s.57.19.57.19c1.34-.15.63-1.94,1.97-2.09.51-.76,1.33-1.75,2.38-2l-.02-.85.59-.13.18-.22c.43-.23.63-.77.75-1.2l.61-.45.06-.22c1.43-.26,1.3-1.43,2.42-1.47l.32-.97c.71-.13,1.33-.58,1.53-1.12l1.42-.69.35-.87.62-.02.42-.65h.12c.31-.23,3.77-2.37,4.02-2.38l.48-.87c1.99-.06,1.55-1.44,2.67-1.48.61-.45,1.62-1.23,2.49-1.26-.27-.85,1.47-.9,2.1-.92.2-.54.57-.98,1.09-1.32.62-.02,2.44.13,2.61-.51l.23.31-.15.32.17.53-.22,1.29.42.52c-.06.22.29.52.49.73l-.02.32.39.41-.38.76.35.31-.24.43.48.3-.24.43.74.72-.02.32,1.46,1.02v.43s.68.51.68.51l-.24.43.57.2c.22-.11.78.08,1.07.18l1.04-.67.74.72.77-.35-.24.43.67.51-.27.33c.16.1.99.72,1.13.39l.85.29.76-.77.88.4,1.84-1.34.78.08c.75-.02,1.29-.68,1.5-1.22l.78.08c.25,0-.23-.31-.23-.31-.07-.21.37-.01.41.09.27-.33.54-.66.97-.89l1.22.28.91-1.1-.39-.41,1.41-1.11h.25s.85-.89.85-.89h.25c.09-.12,1.02-2.71.86-2.81l.71-1.3-.19-.21.26-.76-.1-.32.57-.98-.35-.31c-.24-.74.4-1.51.85-2.06l-.61-.73c-.27-.85,1.29-1.86.82-3.34l.96-1.31-.32-.2c-.24-.74.66-1.09.95-1.74l-.1-.32.25-1.18-.03-.11-.06.22-1.02,1.53.16.1c-.43.23-.67.66-.78,1.09l.28.1-1.17,1.85c-1.17,1.85-1.46,3.68-2.31,5.73-.09.11-.15.33-.4.33h-.12s.24-.43.24-.43c-.12,0-.59.13-.66-.09.29-.65.18-1.39.63-1.94l-.35-.31c-.07-.21.29-.65.39-.76l-.07-.21.19-.97.67-.66c.06-.22-.05-.53-.11-.74.27-.33.54-.66.66-1.09.19.21.06.96,0,1.18l.28.1.85-.88-.32-.2.82-.99-.32-.2c-.03-.11.12,0,.12,0l.39-.76-.19-.21c.06-.22.7-1.73.63-1.94-.03-.11-.53-.09-.46.12l-.23-.31c-.14-.42,1.04-.67,1.31-1l2.27-2.74-.48-.31-.83.56-.23-.31,1.35-2.07-.19-.21,1.04-1.85.44.2.59-1.3-.44-.2c-.12,0-.22.11-.34.12-.2.54-.83,1.74-1.57,1.76l-.16-.1,1.53-2.29.34-.12.69.19c.67-.66,2.36-2.85,2.24-3.6l-1.62-1.12.41-1.08-.19-.21.14-.75-.67.66-.16-.1.75-1.2h.25s.49-.45.49-.45l-.19-.21c.2-.54,1.45-.58,1.21-1.32l-.16-.1-.49-.73c-.33.54-1.01,1.95-1.76,1.98l-.16-.1-.67.66-1.12.04c-.79,1.84-2.15,3.49-3.39,5.13l-.41-.09-.34.12-.24.44h-.12s-.16-.1-.16-.1l.44-.98-.1-.32c.33-.54,2.68-3.4,2.58-3.71-.03-.11-.41-.09-.53-.09l-1.04,1.85-.92-.5c.95-.56,2.36-1.68,1.98-2.84l-.19-.21.4-.33-.28-.1-1.36,1.65.23.31-.52.34-.28-.1c-.42,1.83-2.15,2.31-2.96,3.73l.51.41-.45.55-.16-.1-.68.24-.49-.73.52-.34-.23-.31c.43-.23,1.04-.67.87-1.2l-.19-.21,1.59-2.51-.03-.11-.85.88-1.1-.29c.34-.12.58-.55.73-.88l-.19-.21c-.07-.21,6.97-10.05,7.91-11.04l-.03-.11-.28-.1c-.12,0-.06.22-.18.22l-.44-.2-.43.23-.16-.1-.74.45h-.12s-.61.45-.61.45l-.28-.1c-.25,0,.23.31.23.31.03.11-.55.23-.65.34-.45.55-1.07,1-1.23,1.64-.68.24-1.42.69-1.74,1.23l-.19-.21.88-1.95h-.12c-1.74.06-11.68,13.41-11.9,14.7l.16.1-.26.76.28.1c-.06.22-.42.65-.83.56l-.6.87c-.02.32-.1.86.12,1.17l-2.13-1.53c-1.99.06-7.89.15-8.97-.88.18.96-3.24,1.28-4.36,1.32.2.63-1.48.48-1.86.49l.03.11c.17.53-.1.86-.6.87-2.37.08-4.6,1.75-6.1,1.8l-.19-.21.35-.87-.28-.1c-1.5.05-5.04.38-5.47,1.78l-2.37.08c.24.74-.44.98-1.26.79-.09,1.28-2.19,1.03-3.31,1.07-1.25.04.94,1.36-1.93,1.45-1.37.04-4.06,3.44-4.68,3.46l-.49.44-.71.13.03.11-.45.55-.02.32-.57-.2c-.24.44-.6.87-1.03,1.1l.03.11-.46.12-1.71.16c-1.09.14.97,1.46-1.73,1.66-.87.03-3.1,4.05-3.85,4.08.33.63-1.67.69-1.39,1.54.07.21.14.42.08.64l-1.33.58c.4.84-.24,1.61-1.01,1.96l-.06.22-.49.44h-.37c-.09.12-.73.89-.57.99l-.29.65c-.28-.1.14.42-.99.46l.05.53h-.37c-2.33,2.54-3.51,5.14-5.4,7.88-1.78-.05-.15,2.67-2.29,3.06-1.07,1-1.4,3.46-1.46,4.85-.95.56-1.04,1.85-.45,2.9-.76.77-1.36,1.65-1.68,2.62l-.03-1.28-.83,1.74c-.96.14-.61,2.8-.87,3.55l.68.94c-1.46.15-1.1.89-.79,1.84.37,1.16-.92,1.85-.44,3.33.17.53.18,3.3-.44,3.32.2.63.5,1.16.7,1.79.14.42.56,2.12-.16,2.25l-.09.11.09,1.07c.19.21.42.52.49.73.2.63-.06,1.39-.26,1.93.03.09.06.19.08.28-1.12.02-.58,1.11-1.8,1.06l-3.91-.25-.54-2.7c1.51.06.51-3.07.38-3.7h-.38c-.17.39-.34.8-.38,1.21l-.06-.31-.06.31h.13c-.08.21-.06.31-.04.41l-.08-.41-.36.71-.04.41c-.13,0-.52-.74-.54-.84-.1-.52.44-.91.34-1.43-.21-.42-.73-.54-1.11-.56l.42-.4.27.11c.48.53.96,1.07,1.09,1.69v-2.47s-1.04.37-1.04.37l-.02-.1.36-.71c.27.11.61-.08.84-.17l.23-.71-.63-.64c.36-.09.38-1.84.4-2.36-.38.6-1.13,1.19-1.8,1.58l.32-.92c-.1-.52.54-.39.44-.91l.34-.81c.11-.1.17-1.02.29-1.02l.04.21.63.64.04.83.65.75c-.12-.62-.77-2.6-.08-2.89-.12-.62-.35-3,.65-2.96l.65-.49c-.12-.62-.6-1.77.07-2.16h-.13c-.38-.02-.48-.54-.52-.75.13-.61.65-1.11,1.22-1.4l-.02-1.96.65-.49-.42-1.46.44-.91-.35-1.76c.46-.19.5.02,1.02.14-.15-.73.19-1.54.59-2.04-.21-.42-.19-.93-.02-1.34.55-.39.04-1.65.53-1.73l-.25-1.25.63-1.21c-.15-.11-.31-.32-.35-.53-.96-4.77,3.86-9.34,2.95-13.9l-.79-.85c-.19.3-.34.81-.02,1.13-.15.51-.78,1.72-.53,2.35l-1.01,2.44c.15.11.44.33.46.43.02.1-.13,0-.27-.11h-.13c-.63-.03-.5.59-.32.91l-.38,1.22-.15-.73c-.48-2.39.05-3.5.99-5.63-.17-.21-.44-.33-.48-.53-.06-.31.13-.61.21-.82.69-1.52.63-3.07,1.24-4.38.08-.2.96-1.41.32-1.53.17-.41.44-.91.21-1.43.08-.2,0-.62-.4-.74.71-1.42.74-3.17,1.43-4.69l-.31-.32-.23.09c-.13,0,.02-.51,0-.62l-.61.08-.9.48c-.25.61.38,1.25.5,1.87l.04.21h-.25c-.38-.02-.98.06-.17.4l-.34.81-.59.18.19.32c.04.21-.23.09-.36.09l-.11.72c-.36.09-.06.31.21.42l-1.01,1.82-.48.08.17.83c-.19.92-1.02-.14-.69,1.52.08.42-.46.81-.94.89l-.23.71c.25,0,.4.12.44.33l-.08.2c-.48.08-.67.39-.86.69h-.13c-1.51-.06-1.81,4.67-2.94,4.63-.25,0-.52-.12-.8-.24l.55-1.01c.13,0,.86-.07.34-.19l.25-1.23c-.69-.33-.54-.84.13-.61.27-.51-.19-.32-.25-.63-.15-.73,1.57-2.1,1.34-3.25-.04-.21-.08-.42-.23-.52,0,0,.08-.2-.04-.21-.25,0-.38-.01-.61.08-.71.8-.75.59-.57,1.52.02.1.04.21-.06.31l-.27-.11c-.88-.03.18,3.41-1.24,2.53-.17.41.25.63.1,1.14.4.12.56.33.63.64l-.06.31c-.15-.11-.27-.11-.4-.12-.63-.02.44,2.18-.78,1.72-.71.8-1.4,1.7-1.85,2.61l-1.03-.14c.84-1.41,1.72-2,2.37-3.72-.15-.11-.19-.32-.21-.42-.1-.52.48-1.32.65-1.73l-.31-.32c.17-.41,1.17-2.22,1.11-2.53-.02-.1-.04-.21-.17-.21-.63-.02-1.32,2.12-1.49,2.52l-2.18.33c-.34,1.43-1.93,5.9-2.39,6.09-.38-.01-.75-.03-.98.07-.1.1-.08.2.04.21l.19.32-.13.61c-.63-.02-.73-.54-.69-.95-.63-.02-.82-.34-.52-.74l-1.76-.07c.13-.61,1.09-3.26,1.05-3.46,0,0-.02-.1-.15-.11-.25,0-.57.29-.8.38-.17.41-.69,2.14-1.36,1.91l-.57.91-.15-.11-2.43-.92-.88-.03c-.5-.02-.98.07-.9.48l.48.53c-.59.18-2.8.31-2.66,1.03.04.21-.19.3-.44.29l-.29.4-1.13-.04-.86.69c.1.52-.5.6-1.03.48.17.83-2.39-.09-2.18.95.17.83-1.8.96-2.55.94l.08.42c.21,1.04.19,1.55-1.19,1.5l-1.07,1.51c-.88-.03-1.51,1.18-1.93,1.58-1.38-.05-2.95,2.05-3.56,2.75.23,1.14-1.38-.05-1.13,1.19.04.21-.46.19-.59.18.08.42-.34.81-.82.9.15.73-.44.29-.75-.03-.06.31-.67.39-1.05.37l.54.84c.1-.1.17-.41.29-.4.25,0,.31.32.33.42l-.73.69-1.05.37.12,1.24c-.5-.02-.86.07-1.17.37-.38-.01-.19.3-.15.51.06.31-.17.41-.54.39.08.42-.19.3-.57.29-.25,0-.21.2-.17.41.08.42-.44.29-.36.71-.82.9-2.05,1.57-2.45,2.69.1.52-.34.81-1.01.58.23,1.14-1.7,1.48-1.47,2.62-.65.49-1.17.99-1.68,1.59.08.42-.42.4-.32.92-1.11.68-2.24,1.87-2.77,2.99-.75-.03.16,2.07-.84,2.03-1.13-.04-.98.68-1.61.66l-.27.51-.44.29-.34.81c.04.21.17.83-.21.82-.04.41-.46.81-.96.79l-.29,1.02c.06.31.02.72-.32.92l-.59.8c-1.26-.05-.3,1.64-1.55,1.59-.02.51-.23,1.95-.99,1.92-.29.4-1.43,2.21-2.01,2.4l-.3.53c-.14-.19-.27-.38-.33-.62.45-.67.86-1.53.64-2.42-.12-.49-1.25-.53-1.76-.55l-.63-.02c.2,1.28-.94,2.22-1.27,3.38,0,0,.07.3-.05.29,0,0-.55-.7-.57-.8.63.02.71-1.15.73-1.54.43-.77.83-1.63,1.39-2.4-.2-.79.58-1.15.41-1.84l.95.33-.33.67.72.9c-.2.19-.58.66.17.69,0,0,.05.2.17.2.13,0,.36-1.06.43-1.26l.35-.09.12.49c1.26.04.43-.77,1.18-.74l-.07-.78-.55-.7.15-.39.43-.28-.3-.21.41-1.35.68.22-.27-1.08c.75.03.73-.07.58-.66.5.02.43-.28.35-.57-.1-.39.35-.57.25-.97h-.13s.18-.78.18-.78c-.1-.39.35-.57.25-.97.08-.68.46-2.13,1.21-2.6l-.35-1.38.6-.08.66-.86c.15.1.35.4.38.5-.23.58-.43,1.26-.28,1.85-.13,0-.88-.03-.83.17.02.1.3.21.45.31l-.13.97.83.81c.38-.48.38-1.45.21-2.14.3.21.6.41.98.42.38.01-.72-1.39-.77-1.59.55-.76.98-1.53.71-2.61l-1.05-.72.28-.38.53.12s.07.3.2.3c.38.01.58-1.15.51-1.45,1.25.04,1.52-3.37,1.65-3.85l-1-1.01c.08-.19.03-.39-.02-.59.5.51,1.23.92,1.93,1.24l-.27-1.08c.88.03.85-.07.68-.76.25,0,.66-1.35.58-1.64-.3-.21-.75-.51-.8-.71-.05-.2.2-.19.33-.18.35-.09-.3-.69-.48-.41-.02-.1-.35-.89-.12-.98l.56-1.74h.13s.68-1.73.68-1.73l-.12-.98.93-.26c.05.2.15,1.08.65,1.1.25,0,.3-.28.25-.48.48-.57.78-1.34.99-2.02-.1-.39.25-.48.15-.87.73-.56.99-2.02,1.04-2.8.25,0,.2-.19.18-.29-.07-.29-.67-1.25-1.16-1.31v-.1c.12-.31-.1-.43-.58-.42-.24-.1-.48-.16-.67-.13.05-.62.13-1.22.17-1.54l.33-.67.8.22.57,2.76c1.13.04.23-1.56,1.11-1.53l.71-1.64c-.2-.79.63-.96.46-1.65l.63-.47.25-.97.83-.66-.3-1.18c.23-.58.53-1.35.38-1.94l.43-.28.78-1.83-.15-1.08h.38c.5.03.55-.26.48-.56.23-.09.4-.38.35-.57-.02-.1-.15-.1-.28-.11l-.95-.82c-.17-.69.18-1.26,0-1.96.25,0,.48-.08.53-.37h.25c.23-.08.2-.18.05-.28h-.13c.03-.39-.07-.79-.15-1.09.22,0,.6-1.14.82-1.64.22,0,.44-.02.64-.03.46-.18.85.03,1.31-.15,1.34.33,3.54.08,4.64-.11.19.17.42.08.53.04.34-.13,1.21-.84.84-1.18-.09-.09-.44.05-.55.09l-1.41.06c-.46.18-.9.23-1.52.11-.8.32-1.91.5-2.95.3l-.39-1.56.11-.04c.12-.05.7.34.79.42.56.51.99-.14,1.03-.41l.44-.05c.93.86.91.99,1.95.58.8-.32,3.66-.7,4.66-.85l1.18.03.33.6-3.31,1.18c.84.77,2.31-.29,2.96.31h2.79c.92-.36,1.8.15,2.61-.16l1.14.29,1.52-.11,1.55.37,1.38-.54c.97-.01,2.26-.03,2.95-.3l.72.21h3.12s1.36-.41,1.36-.41l.28.26c.37.34.81.29,1.16.16.3.13.83.16,1.06.07.11-.04.02-.13-.07-.22l.36-.87c.8-.32,1.87-.24,2.67-.56.19.17.49.3.93.25l.19.17c.3.13.42.08.44-.05l-.09-.09c.55-.09,1.01-.27,1.36-.41.19.17,2.68.05,3.21.09,1.26-.5,2.66.18,3.69-.23l1.71.06.35-.14.19.17c1.25.24,3,.05,4.56.41l1.52-.17c-.22.1-.41.22-.58.31.27.11.29.22.33.42.08.42-1.34,3.25-1.43,3.45l.17.83-.61,1.32-.61.08-.08.2c.06.31.46.43.73.54.23-.09,1.76-.55.82-.9l.59-.18c.06-.31-.1-.52-.17-.83-.06-.31.73-1.93.92-2.23-.17-.21-.21-.42-.25-.63-.19-.93,1-1.81.86-2.54l.2-.62-.58-.38,1.45-.32-.4-.82c-.8.32-1.96.16-2.91.04.44-.05.88-.1,1.11-.19l1.18.03c.2-.57,2.85.35,3.05-.22.23-.09.76-.05.88-.1-.09-.09-.4-.21-.72-.21l-1.29.02-.63-.12,1.03-.41,1.27.11c.19.17.83.16,1.29-.02.63.12,2.08.4,2.24.1-.07-.22-.56-.51-.73-.82.53.04,1.27.11,1.73-.07.23-.09.25-.22.06-.39l-.03-.48c.53.04.88-.1,1.5.02l-.7-.95c-.46.18-.99.14-1.5-.02-.16.31-.11.65.17.91-.55.09-1.13.32-1.54.24-.35.14-.76.05-1.29.02.04-.26.09-.52-.42-.69l-.51-.17.31.73c-.4-.21-.7-.34-.88-.51-.75-.68-2.7.08-3.36-.52l.25-.22c.88-.1,1.73-.07,2.7-.08l1.55.37c.09-.52,5.47-.55,6.21-.48.14-.18.54-1.31,1.26-1.1.3.13.72.21.78-.18,1.25.24,3.79-.14,4.45-.28.32-.61,2.63-.3,3.25-.18,1.04.2,1.2-.1,1.29-.63.16-.31-.14-.43-.79-.42-.51-.17-1.04-.2-1.29.02l-.48.31c-1.21-.5-2.8-.61-4.02-.38-1.25-.24-2.54-.22-3.79-.47-.02.13-.04.26-.37.27-.42-.08-.6-.25-.76.05l-.99.14-2.36-.66-.51-.17c.02-.13.55-.1.67-.14.4.21.97-.01,1.15-.45.22-.7-1.52-1.85-2.08-2.36.51.17,1.06.07,1.24-.36l1.18.03c.34-.13,1.08-.06,1.71.06-.07-.22.06-.39.48-.31.42.08.72.21.76-.05,1.85-.11,3.3-.44,5.26-.59.72.21,2.33.18,2.44-.47.02-.13-.05-.35-.35-.47-1.14-.29-3.55.66-4.48.41-1.34-.33-1.81-.76-1.96.16-1.02-.33-1.92-.1-3.05-.39-.04.26-.48.31-.8.32l-.09-.09-1.72.68c-.51-.17-1.9-.84-2.13-.14-.12.05-.42-.08-.28-.26.02-.13.5-.44.83-.45.6.25.97-.01,1.71.06l1.26-.5,1.23.37.64-.62c1.25.24,2.77.13,3.88-.05,1.14.29,1.73-.07,1.93-.63l2.93-.17c.16-.31,2.88-.52,3.62-.44.2-.57,1.25.24,1.47-.45q.93.25,1.15-.45l-2.48-.62c-.62.49-1.9-.23-2.51.25l-1.29.02c-.04.26-.57.23-.99.14l-1.13-.29-2.82.13c-.44.05-1.18-.03-1.59-.11-.04.26-.37.27-.78.18l-1.25-.24c.04-.26,1.2-.1,1.64-.15-.19-.17.14-.18.37-.27.51.17.7.34.85.03,2.1-.33,4.89-.33,6.8-.83.53.04.76-.05.83-.45l-.09-.09c.83.16,5.04.1,5.19-.2-.07-.22-.56-.51-.98-.59l-1.18-.03c-.42-.08-1.06-.07-1.41.06-1.02-.33-1.71-.06-2.75-.27l-10.93-.24c-.51-.17-1.23-.37-1.41.06-.72-.21-1.25-.24-1.71-.06-1.04-.2-3.88.05-4.34.23l-2.98-.18-.71.4c-2.27-.58-4.53.06-6.72-.3-.46.18-1.08.06-1.41.06l-2.68-.05c-.14.18-.27.35-.78.18-.74-.08-1.53-.5-2.43-.27-.16.31-.69.27-1.2.1-.92.36-3.28.31-4.43.15.07.22-.16.31-.37.27l-.72-.21c-.09-.09-.19-.17-.17-.3-.9.23-2.67.56-4.63.72-.95-.12-1.94.03-2.84.26h-.97s-1.39-.05-1.39-.05c-.46.18-1.06-.07-1.52.11h-2.15s-.72-.22-.72-.22l-1.29.02c-.37-.34-.49-.3-.83-.16-.34.14-.63-.12-.81-.29-.23.09-.8.32-1.36.41l-1.31.15c-.21-.04-.42-.08-.53-.04l-.09-.09c-.12.05-.44.05-.55.09-.11.05-.32,0-.42-.08-.34.14-.57.23-1.01.27-.12.05-.32,0-.44.05l-.72-.21c-.97.01-1.92-.1-2.72.21-.09-.09-2.59.04-2.82.13-1.19.12-2.4.2-3.63.23Z"/></svg>